<svg width="376" height="116" viewBox="0 0 376 116" fill="none" xmlns="http://www.w3.org/2000/svg">
<path d="M271.186 104.209L272.272 104.863C281.871 110.546 293.298 112.542 304.326 110.463C315.353 108.383 325.191 102.377 331.92 93.6144L332.677 92.5907C332.969 92.7668 333.262 92.943 333.555 93.1192C333.652 93.1779 333.75 93.2366 333.802 93.2679C340.246 97.1102 347.537 99.4001 355.071 99.9476C362.606 100.495 370.165 99.284 377.123 96.4152L376.145 94.1457C370.608 96.4056 364.666 97.5727 358.663 97.5794C352.66 97.5861 346.715 96.4326 341.173 94.1854C339.061 93.3248 337.021 92.3072 335.069 91.1417C335.004 91.1025 334.939 91.0634 334.874 91.0243C334.601 90.8599 334.335 90.6993 334.068 90.5388L334.197 90.336C340.456 80.4018 342.421 68.4559 339.66 57.1136C336.9 45.7713 329.639 35.9565 319.468 29.8179L319.188 29.6496L318.109 29.0699L317.462 30.0899C315.818 32.8086 314.464 35.684 313.421 38.6715C310.052 31.4894 304.567 25.4453 297.664 21.3072L297.404 21.1508L296.318 20.5673L295.667 21.5937C293.524 25.1454 291.92 28.9813 290.907 32.9814C288.223 26.0391 283.25 20.1607 276.768 16.2676C276.69 16.2206 276.619 16.1774 276.54 16.1304L275.465 15.5446L274.819 16.5646C270.452 23.7614 268.855 32.2368 270.313 40.4755C263.35 36.8189 255.31 35.6015 247.536 37.0264L246.3 37.2625L246.531 38.4698C247.985 46.05 252.077 52.9096 258.117 57.8927C250.662 60.4559 244.334 65.4322 240.19 71.9916L239.523 73.0434L240.603 73.6933C247.176 77.6123 254.906 79.279 262.563 78.4283C259.273 81.1576 256.443 84.3728 254.175 87.9561L253.508 89.008L254.672 89.7088C261.671 93.8584 269.785 95.8703 277.968 95.484C275.634 97.815 273.57 100.389 271.814 103.161L271.186 104.209ZM243.135 72.2496C247.286 66.2242 253.467 61.8007 260.61 59.7434L261.198 59.5809C261.614 59.4635 262.045 59.3642 262.477 59.2652C262.908 59.1656 263.331 59.079 263.768 59.0003C264.204 58.9215 264.637 58.8492 265.067 58.7931C265.187 58.768 265.31 58.7507 265.433 58.7417C265.553 58.7226 265.674 58.711 265.796 58.7067C268.319 63.4513 271.799 67.651 276.027 71.0546C273.025 72.0469 270.15 73.3751 267.461 75.0119C263.42 76.1363 259.19 76.471 255.015 75.997C250.84 75.5231 246.803 74.2494 243.135 72.2496ZM332.077 89.0166L332.013 89.118C331.986 89.098 331.958 89.0809 331.928 89.0671C331.603 88.8714 331.314 88.6184 330.996 88.3833C330.935 88.3512 330.877 88.3159 330.82 88.2776C330.541 88.1093 330.295 87.8737 330.035 87.6735L329.648 87.3622L328.979 86.8018C328.797 86.6922 328.645 86.5218 328.476 86.3764C328.308 86.2314 327.968 85.9305 327.718 85.7014L327.621 85.6427C327.421 85.4611 327.222 85.2799 327.063 85.1053C326.709 84.7702 326.353 84.4244 326.015 84.0803C325.826 83.8965 325.645 83.7092 325.473 83.5179C324.359 82.3621 323.311 81.1473 322.335 79.8782C321.714 79.058 321.122 78.2202 320.555 77.3711L320.11 76.6565C319.962 76.4364 319.831 76.2175 319.698 75.9886C319.43 75.547 319.166 75.0992 318.916 74.6423C318.666 74.1857 318.41 73.7253 318.175 73.26C317.708 72.3394 317.265 71.4075 316.873 70.4535C316.383 69.2891 315.941 68.0976 315.545 66.8791C315.302 66.1287 315.078 65.3634 314.881 64.5969C314.862 64.5585 314.849 64.518 314.84 64.4764L314.759 64.1648C314.544 63.3 314.35 62.4302 314.196 61.5671C313.334 57.0201 313.22 52.3681 313.86 47.7861C314.003 46.752 314.185 45.7145 314.41 44.6942C314.569 43.9323 314.754 43.1682 314.965 42.402C315.904 38.9528 317.275 35.6295 319.047 32.5065C328.331 38.4358 334.881 47.6529 337.31 58.2057C339.739 68.7585 337.857 79.8181 332.061 89.0419L332.077 89.0166ZM315.122 82.4529C314.626 82.3994 314.139 82.36 313.652 82.3205C313.16 82.2875 312.672 82.2646 312.183 82.242C312.183 82.242 312.137 82.2146 312.093 82.2409C311.628 82.2232 311.198 82.2359 310.703 82.2091L309.306 82.2437C309.306 82.2437 309.254 82.2124 309.202 82.2513C308.711 82.2616 308.215 82.2784 307.717 82.3118L307.131 82.3441L306.551 82.3799C306.531 82.4118 306.454 82.3914 306.394 82.3998C306.335 82.4079 306.293 82.4175 306.238 82.4194C305.747 82.4567 305.274 82.5223 304.758 82.5706L304.713 82.5433L304.643 82.5539C304.25 82.5971 303.856 82.6521 303.461 82.7176L303.197 82.7514L302.535 82.8606L301.85 82.9909C301.361 83.0821 300.842 83.1635 300.388 83.2841C299.934 83.4049 299.42 83.5068 298.938 83.6288C294.436 80.3109 290.658 76.1502 287.828 71.3907C287.587 70.9917 287.357 70.5903 287.141 70.18C286.924 69.7696 286.731 69.4085 286.505 69.0005C286.119 68.1909 285.692 67.3207 285.332 66.4566C285.139 66.0248 284.96 65.5843 284.795 65.1353C284.614 64.6845 284.467 64.2368 284.284 63.7591C284.102 63.282 284.004 62.9255 283.885 62.5037C283.767 62.0818 283.664 61.7754 283.546 61.4239L283.297 60.4692C283.211 60.1371 283.129 59.7989 283.049 59.4438L283.881 59.3229C285.021 59.1688 286.161 59.0614 287.302 59.0008C287.778 58.9725 288.238 58.9426 288.742 58.94C289.247 58.9376 289.654 58.9198 290.152 58.9134C291.126 58.9218 292.104 58.9672 293.068 59.0483C293.552 59.0778 294.025 59.1258 294.504 59.1779C294.983 59.2301 295.472 59.2962 295.949 59.3651C301.67 60.1907 307.157 62.147 312.073 65.1132L312.561 65.4068L312.919 66.6554C312.919 66.6554 312.919 66.6554 312.938 66.7106C313.046 67.0645 313.158 67.4123 313.265 67.7826L313.312 67.934L313.441 68.3265L313.576 68.7229C313.632 68.8616 313.677 69.0026 313.727 69.1373C313.776 69.2721 313.78 69.266 313.795 69.3275L314.19 70.3621L314.238 70.4699C314.486 71.1002 314.754 71.7257 315.037 72.3423C315.139 72.5787 315.247 72.819 315.359 73.0528C315.499 73.3563 315.646 73.6633 315.803 73.9681C315.96 74.2729 316.204 74.7526 316.407 75.128C316.609 75.5035 316.82 75.8933 317.045 76.2743C317.271 76.6554 317.471 77.0204 317.707 77.3992C317.943 77.7776 318.144 78.1264 318.415 78.5078C318.685 78.8893 318.803 79.1003 319.006 79.3892C319.096 79.5309 319.19 79.6661 319.288 79.7951C319.491 80.0837 319.694 80.3725 319.906 80.6485C320.379 81.3188 320.923 82.0052 321.464 82.6545C321.597 82.8135 321.724 82.9683 321.867 83.1247C322.01 83.2811 322.018 83.312 322.102 83.4062L322.387 83.7356C321.912 83.607 321.432 83.4845 320.951 83.3787C319.994 83.1445 319.027 82.9559 318.049 82.7966C317.072 82.6372 316.086 82.5774 315.106 82.4783L315.122 82.4529ZM282.726 69.4047L282.382 69.4517C281.534 69.5982 280.702 69.7625 279.864 69.9498C279.573 70.0111 279.285 70.0829 278.997 70.1548C278.744 70.0022 278.525 69.8088 278.291 69.6247C274.327 66.5581 271.022 62.7602 268.566 58.4478C268.342 58.0502 268.122 57.6465 267.912 57.24C267.703 56.8341 267.515 56.4495 267.338 56.0193C267.414 56.0126 267.484 56.0021 267.556 56.0019L267.342 56.0131C266.174 53.5625 265.28 50.9957 264.676 48.3584C267.309 47.9583 269.979 47.8278 272.641 47.97C273.113 47.9913 273.587 48.0229 274.053 48.0672C274.519 48.1112 275.015 48.165 275.494 48.2168C280.472 48.8471 285.276 50.418 289.635 52.8415C290.013 53.0687 290.39 53.2956 290.767 53.5227L291.203 53.785L291.388 54.4566L291.581 55.1157L291.619 55.226C291.741 55.6146 291.862 56.0033 291.999 56.3832L292.028 56.4793L291.145 56.4555C290.707 56.4372 290.261 56.4312 289.805 56.4279C289.349 56.4249 288.902 56.4356 288.421 56.4707C286.126 56.5267 283.838 56.7599 281.581 57.1683C281.473 57.182 281.368 57.2064 281.267 57.2245L280.13 57.4156L280.029 57.4333L280.257 58.6039C280.266 58.672 280.281 58.7389 280.3 58.8047C280.34 59.0391 280.391 59.2712 280.441 59.5028L280.599 60.2189C281.058 62.1546 281.652 64.0572 282.379 65.9131C282.539 66.3419 282.728 66.7797 282.893 67.1857C283.058 67.5915 283.258 68.0272 283.427 68.4263L283.82 69.2233C283.41 69.3177 283.062 69.3709 282.71 69.4301L282.726 69.4047ZM311.765 62.1264C306.54 59.2537 300.778 57.4284 294.817 56.7574C294.472 55.8843 294.191 55.0236 293.937 54.1352C293.804 53.6788 293.671 53.2224 293.546 52.7533L293.47 52.4622C293.245 51.5564 293.047 50.6494 292.892 49.7329C291.314 40.8914 292.865 31.7899 297.292 23.92C304.223 28.3433 309.498 34.8325 312.331 42.4184C310.672 48.8775 310.474 55.6106 311.749 62.1518L311.765 62.1264ZM290.002 38.4333C289.589 42.2004 289.701 46.0044 290.334 49.7426C290.303 49.9606 290.266 50.1747 290.219 50.3913C285.334 47.788 279.955 46.1829 274.411 45.6742C274.042 44.6847 273.728 43.6768 273.468 42.655L273.337 42.182C271.39 34.3144 272.489 26.0239 276.422 18.8958C283.409 23.4244 288.282 30.4531 289.986 38.4587L290.002 38.4333ZM271.143 43.7151C271.195 43.9305 271.257 44.1431 271.324 44.3499C271.391 44.5563 271.398 44.5868 271.428 44.7098C271.458 44.8329 271.553 45.109 271.628 45.3027C271.638 45.3653 271.656 45.4266 271.683 45.4849C268.742 45.4041 265.8 45.6293 262.909 46.1567L261.665 46.3887L261.91 47.6041C262.498 50.5881 263.429 53.4975 264.685 56.2785L264.546 56.2997C264.139 56.3609 263.738 56.4259 263.333 56.4975C262.77 56.6053 262.222 56.7045 261.67 56.8531C261.497 56.8893 261.329 56.928 261.165 56.9696C255.223 52.5662 251.058 46.2696 249.397 39.1794C256.868 38.1083 264.486 39.6484 270.902 43.5269L271.143 43.7151ZM268.554 77.2281C271.398 75.4644 274.47 74.0751 277.689 73.0965C277.94 73.0114 278.209 72.9282 278.47 72.8574L279.058 72.6951C279.564 72.5621 280.078 72.4332 280.582 72.317C281.368 72.1416 282.147 71.9891 282.932 71.8574C283.44 71.7785 283.932 71.6975 284.452 71.6431L284.992 71.5833C287.759 76.5368 291.485 80.9205 295.965 84.4915C290.451 86.281 285.349 89.1004 280.942 92.7919C272.703 93.7979 264.35 92.1819 257.13 88.1851C260.108 83.8147 263.989 80.0978 268.526 77.2726L268.554 77.2281ZM284.08 93.455C284.915 92.8194 285.767 92.2117 286.651 91.6403C290.142 89.3652 293.962 87.6105 297.986 86.4344C298.322 86.3302 298.666 86.2401 298.992 86.165C299.545 86.0162 300.085 85.8592 300.679 85.7444L300.907 85.6973L301.123 85.653L301.593 85.5502L302.054 85.4601C302.579 85.3557 303.082 85.2562 303.627 85.1904C304.37 85.0682 305.12 84.9766 305.861 84.8981L306.731 84.8168C307.024 84.7892 307.314 84.7711 307.601 84.7629C308.183 84.7226 308.766 84.6969 309.348 84.6853C309.899 84.667 310.448 84.6649 310.99 84.6755L311.962 84.7008C312.253 84.7094 312.547 84.7284 312.834 84.7435C313.121 84.7585 313.414 84.7779 313.697 84.7992C314.232 84.8349 314.766 84.8852 315.3 84.9497C316.499 85.085 317.687 85.2662 318.877 85.501C319.39 85.5994 319.894 85.7109 320.395 85.8281C320.53 85.8566 320.66 85.8917 320.791 85.9264C320.922 85.9614 321.211 86.0301 321.418 86.0851C323.031 86.504 324.616 87.0195 326.164 87.6283C326.466 87.8888 326.738 88.1401 327.053 88.4087C327.189 88.4909 327.291 88.6134 327.409 88.7108C327.711 88.9713 327.995 89.2038 328.325 89.4633C328.655 89.7228 329.071 90.0439 329.453 90.3347C329.834 90.6256 330.165 90.8688 330.533 91.1251L330.605 91.1682L329.893 92.1058C323.709 100.248 314.67 105.894 304.494 107.969C294.318 110.045 283.714 108.406 274.696 103.364C276.776 100.288 279.265 97.4938 282.096 95.0534C282.731 94.5339 283.41 93.9879 284.052 93.4992L284.08 93.455Z" stroke="#F0E6CB" stroke-opacity="0.3" stroke-width="3.51382"/>
<path d="M140.146 100.889L140.146 102.248C140.234 114.205 144.772 125.7 152.875 134.492C160.978 143.284 172.066 148.743 183.976 149.805L185.351 149.903C185.351 150.269 185.351 150.635 185.351 151.001C185.351 151.123 185.351 151.245 185.351 151.311C185.385 159.353 187.336 167.271 191.042 174.408C194.749 181.546 200.104 187.696 206.664 192.349L208.226 190.16C203.028 186.444 198.618 181.733 195.253 176.301C191.888 170.868 189.634 164.822 188.622 158.513C188.241 156.106 188.045 153.674 188.036 151.237C188.036 151.156 188.036 151.075 188.036 150.993C188.036 150.652 188.036 150.318 188.036 149.984L188.297 149.984C201.033 149.948 213.237 144.866 222.235 135.852C231.234 126.839 236.295 114.627 236.31 101.89L236.31 101.54L236.244 100.23L234.934 100.23C231.487 100.302 228.057 100.727 224.697 101.499C229.488 94.3235 232.037 85.8852 232.021 77.2568L232.021 76.9316L231.956 75.6132L230.638 75.6132C226.137 75.7118 221.674 76.463 217.389 77.8429C222.34 71.4249 225.022 63.5455 225.014 55.4398C225.014 55.3421 225.014 55.2524 225.014 55.1547L224.957 53.8447L223.647 53.8447C214.514 54.0233 205.743 57.4447 198.9 63.4962C198.404 55.0909 195.037 47.1106 189.363 40.8893L188.451 39.9049L187.459 40.8079C181.226 46.4774 177.139 54.1228 175.887 62.4546C169.333 57.1749 161.167 54.3027 152.751 54.3168L151.4 54.3168L151.4 55.6678C151.435 63.8715 154.211 71.8284 159.286 78.2742C154.908 76.8625 150.336 76.1461 145.736 76.1501L144.385 76.1501L144.385 77.6071C144.444 86.3279 147.114 94.8313 152.051 102.02C148.578 101.245 145.031 100.855 141.472 100.856L140.146 100.889ZM154.159 57.1322C162.082 57.4306 169.652 60.4876 175.561 65.7747L176.041 66.2139C176.383 66.5232 176.717 66.8568 177.05 67.1908C177.384 67.5243 177.702 67.8579 178.019 68.2077C178.336 68.5576 178.645 68.9078 178.938 69.2656C179.029 69.3602 179.114 69.461 179.191 69.567C179.276 69.6647 179.354 69.7681 179.426 69.8759C176.428 74.8859 174.471 80.4489 173.673 86.2328C171.071 84.0837 168.228 82.243 165.202 80.7481C161.896 77.7338 159.218 74.0955 157.323 70.0427C155.427 65.9899 154.352 61.6022 154.159 57.1322ZM188.337 147.307L188.207 147.307C188.211 147.272 188.211 147.236 188.207 147.201C188.207 146.794 188.281 146.387 188.321 145.964C188.317 145.891 188.317 145.818 188.321 145.744C188.321 145.394 188.403 145.036 188.443 144.687L188.516 144.158L188.663 143.23C188.663 143.002 188.736 142.766 188.777 142.53C188.817 142.294 188.907 141.814 188.98 141.456L188.98 141.334C189.038 141.049 189.094 140.764 189.168 140.52C189.281 140.007 189.404 139.486 189.534 138.982C189.599 138.705 189.672 138.434 189.753 138.168C190.205 136.495 190.748 134.849 191.381 133.237C191.796 132.203 192.244 131.186 192.716 130.185L193.131 129.371C193.253 129.111 193.383 128.867 193.521 128.614C193.782 128.118 194.05 127.622 194.335 127.133C194.62 126.645 194.905 126.149 195.206 125.669C195.8 124.716 196.418 123.781 197.085 122.877C197.894 121.765 198.754 120.68 199.665 119.622C200.227 118.971 200.813 118.328 201.415 117.71C201.44 117.671 201.47 117.635 201.504 117.604L201.749 117.352C202.432 116.66 203.132 115.985 203.848 115.35C207.592 111.957 211.853 109.183 216.47 107.131C217.511 106.667 218.577 106.236 219.652 105.853C220.449 105.56 221.263 105.289 222.093 105.039C225.824 103.909 229.681 103.242 233.575 103.054C233.258 114.866 228.355 126.091 219.905 134.352C211.455 142.612 200.122 147.258 188.305 147.307L188.337 147.307ZM184.952 128.183C184.724 127.703 184.488 127.239 184.252 126.775C184.008 126.311 183.756 125.856 183.504 125.4C183.504 125.4 183.503 125.343 183.455 125.319C183.211 124.887 182.958 124.505 182.706 124.041L181.892 122.796C181.892 122.796 181.892 122.731 181.827 122.706C181.543 122.267 181.25 121.828 180.94 121.396L180.582 120.884L180.224 120.379C180.183 120.379 180.159 120.298 180.118 120.249C180.078 120.2 180.045 120.167 180.013 120.119C179.703 119.695 179.378 119.305 179.044 118.865L179.044 118.808L178.995 118.752C178.735 118.42 178.464 118.095 178.182 117.775L178.002 117.555L177.53 117.018L177.026 116.473C176.668 116.082 176.302 115.659 175.936 115.317C175.569 114.976 175.187 114.569 174.804 114.203C175.369 108.219 177.123 102.409 179.964 97.113C180.2 96.6654 180.444 96.2263 180.704 95.795C180.965 95.3633 181.192 94.9809 181.445 94.5418C181.982 93.7277 182.552 92.841 183.154 92.019C183.447 91.5957 183.756 91.1807 184.081 90.7737C184.399 90.3508 184.733 89.96 185.074 89.5204C185.416 89.0813 185.693 88.7882 186.018 88.4384C186.344 88.0885 186.571 87.8196 186.832 87.5107L187.581 86.7376C187.841 86.4687 188.109 86.2003 188.395 85.9235L188.972 86.6073C189.753 87.5512 190.491 88.5224 191.186 89.5204C191.479 89.9358 191.764 90.3345 192.048 90.79C192.333 91.2458 192.577 91.604 192.862 92.0516C193.399 92.9387 193.904 93.85 194.368 94.7693C194.612 95.2252 194.832 95.6811 195.051 96.1449C195.271 96.6087 195.482 97.0888 195.686 97.5609C198.119 103.216 199.37 109.308 199.364 115.464L199.364 116.074L198.404 117.116C198.404 117.116 198.404 117.116 198.363 117.164C198.095 117.465 197.834 117.767 197.549 118.076L197.435 118.206L197.143 118.548L196.85 118.898C196.752 119.028 196.646 119.15 196.549 119.272C196.451 119.394 196.459 119.394 196.41 119.443L195.669 120.395L195.596 120.501C195.149 121.087 194.718 121.689 194.303 122.3C194.14 122.527 193.977 122.763 193.823 122.999C193.619 123.3 193.416 123.61 193.22 123.927C193.025 124.244 192.715 124.741 192.48 125.14C192.244 125.538 191.999 125.953 191.772 126.377C191.544 126.8 191.316 127.19 191.096 127.622C190.876 128.053 190.665 128.435 190.461 128.899C190.258 129.363 190.128 129.591 189.973 129.941C189.892 130.104 189.819 130.266 189.753 130.429C189.599 130.779 189.444 131.129 189.306 131.479C188.948 132.293 188.614 133.18 188.313 134.042C188.24 134.254 188.167 134.457 188.102 134.677C188.036 134.897 188.012 134.921 187.971 135.051L187.825 135.499C187.678 134.994 187.524 134.49 187.353 133.993C187.035 132.993 186.669 132.008 186.271 131.031C185.872 130.055 185.375 129.127 184.92 128.183L184.952 128.183ZM178.955 91.3514L178.718 91.0667C178.108 90.3833 177.49 89.7242 176.847 89.0729C176.627 88.845 176.399 88.6254 176.171 88.4058C176.171 88.0885 176.229 87.7792 176.269 87.4619C176.902 82.1105 178.583 76.9369 181.217 72.2359C181.461 71.8046 181.713 71.3734 181.974 70.9501C182.234 70.5272 182.487 70.1364 182.788 69.7294C182.836 69.7945 182.885 69.8517 182.926 69.9169L182.795 69.7294C184.42 67.2638 186.305 64.98 188.419 62.9184C190.264 65.0737 191.879 67.4165 193.236 69.9085C193.481 70.3481 193.717 70.7956 193.936 71.2432C194.156 71.6907 194.384 72.1708 194.604 72.6346C196.803 77.5046 198.03 82.7565 198.217 88.0964C198.217 88.5686 198.217 89.0403 198.217 89.5125L198.217 90.0577L197.696 90.6109L197.191 91.1644L197.11 91.2621C196.817 91.5957 196.524 91.9292 196.247 92.2711L196.174 92.3525L195.702 91.5389C195.474 91.1319 195.23 90.7248 194.978 90.3099C194.726 89.8949 194.465 89.4962 194.164 89.0813C192.828 87.0346 191.331 85.0971 189.688 83.2872C189.615 83.1974 189.534 83.1165 189.46 83.035L188.647 82.1153L188.574 82.0339L187.613 82.9127C187.555 82.9602 187.501 83.0117 187.451 83.0672C187.255 83.2383 187.068 83.4174 186.881 83.5961L186.303 84.1497C184.761 85.6771 183.325 87.3083 182.006 89.0324C181.697 89.4232 181.396 89.8461 181.111 90.2285C180.826 90.6113 180.533 91.0425 180.257 91.4249L179.736 92.2386C179.419 91.9213 179.174 91.6366 178.922 91.3514L178.955 91.3514ZM201.968 113.47C201.715 107.088 200.187 100.821 197.476 95.0382C198.095 94.2241 198.738 93.4756 199.421 92.735C199.771 92.3526 200.121 91.9702 200.487 91.5878L200.715 91.3514C201.431 90.6276 202.164 89.9275 202.928 89.2604C210.264 82.7539 219.592 78.9316 229.384 78.4207C229.151 87.2375 226.07 95.7418 220.604 102.663C213.672 104.871 207.302 108.558 201.936 113.47L201.968 113.47ZM211.815 80.1541C208.082 81.9437 204.609 84.2293 201.488 86.9492C201.268 87.0469 201.049 87.1363 200.821 87.2177C200.507 81.2986 198.99 75.5059 196.361 70.1936C197.074 69.2911 197.835 68.4273 198.64 67.6057L199.006 67.215C205.23 60.9338 213.551 57.1674 222.378 56.6359C222.078 65.5639 218.271 74.0137 211.782 80.1541L211.815 80.1541ZM196.353 66.1083C196.182 66.279 196.02 66.4581 195.865 66.6372C195.71 66.8163 195.686 66.8405 195.588 66.9382C195.491 67.0359 195.287 67.2801 195.149 67.4592C195.096 67.5045 195.05 67.5565 195.01 67.6137C193.44 64.9043 191.585 62.3696 189.477 60.0537L188.565 59.0609L187.573 59.9806C185.128 62.2266 182.944 64.7406 181.062 67.4755L180.964 67.3615C180.68 67.028 180.395 66.7023 180.102 66.3767C179.687 65.9292 179.288 65.49 178.841 65.0746C178.711 64.9391 178.58 64.8088 178.45 64.6843C179.219 56.7749 182.741 49.387 188.403 43.8107C193.578 49.9608 196.409 57.7448 196.394 65.7826L196.353 66.1083ZM163.753 83.0104C166.984 84.5734 169.995 86.5576 172.705 88.9101C172.925 89.0892 173.152 89.2846 173.364 89.4799L173.844 89.9195C174.251 90.3019 174.658 90.6927 175.048 91.083C175.651 91.6934 176.229 92.3116 176.79 92.9466C177.148 93.3616 177.498 93.7603 177.84 94.1999L178.198 94.6553C175.141 100.005 173.151 105.898 172.339 112.005C167.59 108.04 162.115 105.038 156.218 103.168C150.673 96.2839 147.501 87.7915 147.177 78.958C152.905 79.1446 158.532 80.5246 163.696 83.0104L163.753 83.0104ZM157.357 106.39C158.415 106.781 159.457 107.204 160.482 107.676C164.55 109.531 168.319 111.983 171.663 114.951C171.948 115.195 172.225 115.456 172.477 115.708C172.924 116.123 173.372 116.522 173.812 116.994L173.983 117.173L174.145 117.344L174.503 117.71L174.845 118.076C175.236 118.491 175.61 118.89 175.976 119.346C176.505 119.948 177.01 120.574 177.498 121.201L178.06 121.941C178.249 122.191 178.428 122.443 178.597 122.698C178.96 123.203 179.31 123.716 179.647 124.236C179.972 124.725 180.281 125.221 180.574 125.717L181.095 126.613C181.25 126.881 181.396 127.158 181.543 127.426C181.689 127.695 181.835 127.972 181.974 128.24C182.24 128.745 182.492 129.257 182.731 129.778C183.276 130.942 183.772 132.122 184.22 133.334C184.415 133.855 184.594 134.376 184.765 134.897C184.814 135.035 184.854 135.173 184.895 135.312C184.936 135.45 185.034 135.751 185.099 135.971C185.612 137.672 186.019 139.403 186.319 141.155C186.246 141.578 186.165 141.968 186.091 142.408C186.091 142.579 186.035 142.742 186.01 142.904C185.937 143.327 185.88 143.718 185.823 144.166C185.766 144.613 185.701 145.175 185.644 145.687C185.587 146.2 185.546 146.64 185.514 147.12L185.514 147.209L184.244 147.103C173.215 146.179 162.91 141.236 155.287 133.212C147.664 125.189 143.255 114.644 142.896 103.583C146.919 103.7 150.908 104.349 154.761 105.511C155.599 105.788 156.486 106.089 157.3 106.39L157.357 106.39Z" stroke="#F0E6CB" stroke-opacity="0.3" stroke-width="3.83932"/>
<path d="M50.9975 34.1939L50.0754 35.0009C42.0186 42.1576 36.9867 51.9813 35.9608 62.5566C34.9346 73.1316 37.988 83.7 44.5257 92.2011L45.2974 93.1679C45.049 93.3853 44.8006 93.6027 44.5522 93.8201C44.4694 93.8926 44.3866 93.965 44.3424 94.0037C38.9077 98.8008 34.7255 104.791 32.1428 111.478C29.56 118.165 28.6516 125.356 29.4924 132.453L31.9294 132.186C31.2824 126.544 31.7908 120.834 33.4252 115.385C35.0596 109.935 37.7874 104.856 41.4506 100.441C42.8505 98.7605 44.381 97.1871 46.0287 95.735C46.0839 95.6867 46.139 95.6384 46.1942 95.5901C46.4261 95.3872 46.6525 95.1891 46.8788 94.991L47.0376 95.1631C54.8239 103.559 65.7073 108.607 77.3054 109.202C88.9034 109.797 100.271 105.891 108.92 98.3396L109.157 98.1319L110.007 97.3109L109.208 96.445C107.058 94.2102 104.68 92.1956 102.108 90.4332C109.896 89.3391 117.173 86.014 123.016 80.8806L123.237 80.6875L124.091 79.8618L123.288 78.9906C120.478 76.0747 117.249 73.5715 113.702 71.559C121.073 71.0206 128.052 68.1149 133.546 63.2974C133.612 63.2394 133.673 63.1861 133.739 63.1281L134.593 62.3127L133.795 61.4469C128.108 55.5173 120.442 51.7517 112.167 50.8225C117.566 45.504 120.927 38.5411 121.69 31.0977L121.802 29.9111L120.585 29.7911C112.941 29.038 105.264 30.8763 98.8492 34.9953C98.4366 27.5294 95.4086 20.4276 90.2705 14.8742L89.4472 13.9814L88.5308 14.7835C82.9874 19.6773 79.2812 26.2355 78.0015 33.4163C76.2915 29.6852 73.9912 26.2383 71.1855 23.2009L70.3622 22.3081L69.3739 23.1731C63.4939 28.3893 59.3527 35.2022 57.4852 42.7335C55.8948 39.9781 53.9976 37.4018 51.8278 35.0511L50.9975 34.1939ZM89.2188 17.4763C93.8446 22.8895 96.3841 29.7073 96.3986 36.7513L96.3932 37.3293C96.3917 37.7389 96.3688 38.1574 96.3455 38.5761C96.3227 38.9948 96.2898 39.4025 96.2458 39.8199C96.2019 40.2373 96.1528 40.6497 96.0887 41.0558C96.0798 41.1718 96.0629 41.2875 96.0379 41.4014C96.0234 41.5155 96.0012 41.6289 95.9721 41.7406C90.7464 42.7335 85.7803 44.743 81.3707 47.6497C81.2427 44.6539 80.7587 41.6821 79.9288 38.795C79.9586 34.8203 80.7948 30.8906 82.389 27.2319C83.9832 23.5732 86.3044 20.2578 89.2188 17.4763ZM48.8783 93.6004L48.7989 93.5143C48.8252 93.4961 48.8493 93.475 48.8707 93.4515C49.1467 93.2099 49.4675 93.0169 49.7792 92.7925C49.8264 92.7464 49.8762 92.7028 49.9282 92.662C50.1656 92.4543 50.4581 92.2955 50.7204 92.1148L51.1237 91.849L51.8423 91.3951C51.9969 91.2598 52.2015 91.168 52.3865 91.0549C52.5713 90.9415 52.9517 90.7158 53.2391 90.5515L53.3218 90.4791C53.5499 90.3478 53.7777 90.2162 53.9881 90.1198C54.405 89.8904 54.8329 89.6621 55.2545 89.4486C55.4819 89.3274 55.7104 89.2146 55.9403 89.1106C57.3498 88.4156 58.7975 87.797 60.2775 87.2584C61.2314 86.9191 62.1941 86.6109 63.1609 86.3287L63.9657 86.1198C64.2167 86.0457 64.4616 85.9869 64.7169 85.9285C65.2124 85.8059 65.7128 85.6885 66.2177 85.5871C66.7224 85.4854 67.2326 85.3789 67.7417 85.2927C68.7496 85.12 69.7615 84.9733 70.7808 84.8779C72.0278 84.7518 73.2879 84.676 74.5609 84.6502C75.3447 84.6348 76.1377 84.6403 76.9244 84.671C76.9661 84.6647 77.0086 84.6634 77.0506 84.6674L77.3707 84.6788C78.2562 84.7202 79.1408 84.7816 80.008 84.8779C84.5908 85.3383 89.0692 86.5067 93.2749 88.3394C94.2243 88.7524 95.1665 89.2009 96.0804 89.6838C96.7652 90.0368 97.445 90.4137 98.1201 90.8141C101.161 92.609 103.963 94.7618 106.465 97.2234C98.2584 104.027 87.6563 107.451 76.9037 106.771C66.151 106.091 56.0925 101.359 48.8585 93.5789L48.8783 93.6004ZM59.7876 80.0094C59.9744 79.5737 60.1453 79.1425 60.3162 78.7112C60.482 78.2744 60.6375 77.8372 60.7927 77.3997C60.7927 77.3997 60.8314 77.3659 60.8182 77.3191C60.9622 76.902 61.0677 76.508 61.2287 76.066L61.5774 74.789C61.5774 74.789 61.6216 74.7504 61.5985 74.6928C61.723 74.2438 61.8425 73.7892 61.9466 73.3287L62.0761 72.7876L62.2003 72.2517C62.1753 72.2246 62.2158 72.1603 62.224 72.1042C62.2324 72.0485 62.2347 72.0076 62.248 71.9571C62.3465 71.5015 62.413 71.0543 62.5079 70.573L62.5465 70.5392L62.5553 70.4732C62.6215 70.1047 62.6766 69.7322 62.722 69.3556L62.7618 69.1068L62.8385 68.4758L62.9011 67.8189C62.9476 67.3504 63.0116 66.8571 63.0204 66.4122C63.0289 65.9675 63.072 65.4731 63.0871 65.0027C67.4898 61.8236 72.5 59.5331 77.8237 58.2664C78.271 58.1566 78.7177 58.0572 79.169 57.9734C79.6206 57.8892 80.0186 57.8125 80.4705 57.7187C81.3498 57.5902 82.2986 57.4404 83.223 57.3502C83.6888 57.2925 84.1588 57.2506 84.633 57.2239C85.1135 57.1828 85.5818 57.1712 86.0884 57.1362C86.5944 57.1011 86.9619 57.11 87.3976 57.1175C87.8334 57.125 88.1544 57.1157 88.5227 57.1045L89.5033 57.1402C89.8444 57.1527 90.1901 57.1707 90.5516 57.1948L90.4398 57.9827C90.2755 59.0592 90.0665 60.1235 89.8126 61.1749C89.7094 61.6152 89.6125 62.0401 89.4771 62.4987C89.3413 62.9575 89.2472 63.3315 89.1171 63.7854C88.8427 64.6672 88.5321 65.5418 88.1912 66.394C88.0305 66.8258 87.8554 67.2419 87.6746 67.6624C87.4938 68.0828 87.2971 68.5078 87.1007 68.9224C84.7478 73.8876 81.3778 78.3318 77.1982 81.9823L76.7842 82.3446L75.4925 82.3285C75.4925 82.3285 75.4925 82.3284 75.4345 82.3305C75.0667 82.3318 74.7036 82.3386 74.3204 82.3338L74.1627 82.3358L73.7522 82.3452L73.3364 82.3594C73.1885 82.3722 73.0414 82.3748 72.899 82.3827C72.7567 82.3906 72.7615 82.3959 72.6986 82.3926L71.6015 82.4684L71.4852 82.483C70.815 82.5351 70.1437 82.6076 69.4768 82.6958C69.223 82.7235 68.9637 82.756 68.7095 82.794C68.3811 82.8381 68.0474 82.8874 67.7131 82.9467C67.3788 83.006 66.8535 83.0962 66.4393 83.1771C66.0251 83.258 65.5947 83.343 65.1688 83.4436C64.7428 83.5441 64.3393 83.6257 63.9126 83.7363C63.4862 83.8473 63.0978 83.9345 62.6592 84.0755C62.2207 84.2166 61.9867 84.2658 61.655 84.3712C61.495 84.414 61.3401 84.4623 61.19 84.5159C60.8585 84.6216 60.5268 84.7269 60.2052 84.8434C59.4349 85.0898 58.6299 85.396 57.8614 85.7092C57.6731 85.7863 57.4905 85.8588 57.3018 85.9462C57.1131 86.0336 57.0815 86.0318 56.9685 86.0823L56.5756 86.2513C56.8286 85.8549 57.0767 85.4533 57.3093 85.0457C57.7947 84.2415 58.2395 83.4149 58.659 82.5717C59.0784 81.7284 59.4053 80.8496 59.7678 79.9879L59.7876 80.0094ZM81.117 54.1789L81.1662 53.8537C81.2578 53.0447 81.3282 52.2447 81.3782 51.4332C81.399 51.1527 81.409 50.8717 81.4191 50.5907C81.6343 50.4023 81.879 50.2565 82.1189 50.0949C86.1343 47.3357 90.6683 45.3753 95.4624 44.3251C95.9038 44.2304 96.3499 44.141 96.7958 44.0619C97.2412 43.9827 97.6602 43.9176 98.1197 43.8749C98.1053 43.9458 98.0963 44.012 98.0767 44.0775L98.1245 43.8801C100.787 43.4897 103.485 43.3799 106.172 43.5527C105.834 46.0519 105.229 48.5101 104.366 50.8865C104.216 51.3089 104.056 51.7305 103.887 52.1413C103.717 52.5524 103.53 52.9878 103.35 53.4085C101.386 57.7533 98.5718 61.6824 95.0632 64.976C94.7429 65.2564 94.4229 65.5364 94.1026 65.8168L93.7328 66.1405L93.0402 66.1247L92.3572 66.1199L92.2414 66.1242C91.8366 66.1285 91.4317 66.1329 91.0311 66.153L90.9314 66.153L91.1956 65.3579C91.3328 64.9656 91.4603 64.5628 91.5881 64.1498C91.7157 63.7365 91.8276 63.328 91.9254 62.8824C92.4993 60.7841 92.9016 58.6448 93.1283 56.4846C93.1447 56.3831 93.15 56.2812 93.1604 56.1843L93.2884 55.1006L93.2992 55.004L92.1177 54.8908C92.05 54.8807 91.9821 54.8755 91.9139 54.8752C91.6788 54.8477 91.443 54.8302 91.2079 54.8127L90.4803 54.7595C88.5043 54.647 86.5227 54.6666 84.5498 54.8189C84.0962 54.8465 83.626 54.8986 83.1928 54.9372C82.7596 54.9763 82.2885 55.0387 81.8607 55.0831L80.9913 55.2218C81.0131 54.8238 81.0574 54.4933 81.0972 54.1574L81.117 54.1789ZM80.1376 82.5195C84.3123 78.563 87.6325 73.8331 89.9031 68.6079C90.8322 68.5333 91.7317 68.5138 92.6506 68.5259C93.1233 68.5301 93.5959 68.5343 94.0784 68.5493L94.3776 68.5596C95.305 68.603 96.2263 68.6714 97.1449 68.7809C106.029 69.7658 114.306 73.6612 120.62 79.8292C114.497 84.9092 106.851 87.9226 98.8245 88.4192C93.1027 85.1488 86.72 83.1284 80.1178 82.498L80.1376 82.5195ZM108.737 69.2472C105.249 67.8431 101.582 66.9044 97.8349 66.4569C97.6348 66.3697 97.4402 66.2775 97.2462 66.1753C101.07 62.4539 104.075 58.012 106.076 53.1208C107.123 53.0564 108.173 53.0463 109.221 53.0904L109.709 53.1003C117.762 53.4844 125.388 56.7474 131.127 62.265C124.888 67.3672 116.837 69.868 108.718 69.2257L108.737 69.2472ZM108.843 50.6901C108.623 50.6784 108.402 50.6774 108.186 50.6813C107.971 50.6856 107.94 50.684 107.814 50.6774C107.688 50.6708 107.398 50.6812 107.193 50.6962C107.13 50.6885 107.066 50.6885 107.003 50.6963C107.884 48.0501 108.473 45.3193 108.759 42.551L108.877 41.3593L107.649 41.2493C104.635 40.967 101.599 41.0165 98.5971 41.3964L98.6149 41.2642C98.6677 40.878 98.7151 40.4965 98.7574 40.1095C98.8081 39.5696 98.863 39.0454 98.8721 38.503C98.8846 38.3365 98.8936 38.1731 98.8987 38.013C104.732 33.8253 111.89 31.767 119.123 32.1977C118.105 39.2692 114.55 45.7616 109.088 50.5235L108.843 50.6901ZM77.5115 39.1808C78.42 42.2439 78.9086 45.4113 78.9644 48.5991C78.977 48.8508 78.9831 49.1172 78.9796 49.3731L78.9739 49.9513C78.9626 50.4474 78.9456 50.9484 78.9187 51.438C78.8718 52.1985 78.8045 52.9474 78.7159 53.6955C78.6524 54.1783 78.5955 54.6465 78.5053 55.1331L78.4147 55.6402C72.9229 56.7966 67.7134 58.9798 63.075 62.0689C62.8713 56.5763 61.5706 51.1757 59.2459 46.168C60.5362 38.4166 64.3643 31.2788 70.1587 25.82C73.5231 29.7166 76.0157 34.2542 77.4766 39.143L77.5115 39.1808ZM57.7543 48.8341C58.1339 49.7652 58.4817 50.7051 58.7866 51.6628C60.0072 55.4528 60.6405 59.399 60.6652 63.3713C60.673 63.7045 60.665 64.0421 60.6476 64.3584C60.6388 64.9005 60.6414 65.4333 60.5887 66.0038L60.5716 66.2233L60.5547 66.4319L60.5246 66.886L60.4846 67.3294C60.441 67.8342 60.3985 68.3181 60.3125 68.8306C60.2264 69.5376 60.1089 70.2432 59.9813 70.9377L59.8214 71.7487C59.7677 72.0222 59.7057 72.2904 59.6351 72.5529C59.5144 73.0926 59.3798 73.6282 59.2317 74.1599C59.0986 74.6647 58.9504 75.1638 58.7923 75.6522L58.5023 76.5277C58.4146 76.7895 58.3162 77.0506 58.2233 77.3069C58.1305 77.5631 58.0318 77.824 57.9341 78.075C57.7538 78.5502 57.5597 79.0212 57.352 79.4884C56.8949 80.5396 56.397 81.5681 55.8472 82.5838C55.613 83.0221 55.3685 83.4494 55.1196 83.8717C55.0555 83.9861 54.9863 84.095 54.9174 84.2042C54.8482 84.3131 54.7036 84.5564 54.5942 84.7299C53.7529 86.0789 52.8269 87.3761 51.8217 88.6142C51.4902 88.8172 51.1756 88.9953 50.8327 89.2076C50.7168 89.3091 50.5718 89.3682 50.4464 89.4485C50.1149 89.6515 49.815 89.8456 49.4768 90.0738C49.1386 90.302 48.7178 90.592 48.3354 90.8589C47.953 91.1258 47.63 91.3596 47.2845 91.6232L47.2237 91.6763L46.5219 90.7745C40.4277 82.9374 37.5012 73.1922 38.2986 63.3909C39.0959 53.5896 43.5613 44.4151 50.8464 37.6106C53.2182 40.339 55.2094 43.3605 56.7685 46.5968C57.0916 47.3151 57.428 48.0801 57.7197 48.7965L57.7543 48.8341Z" stroke="#F0E6CB" stroke-opacity="0.3" stroke-width="3.41079"/>
</svg>
