<svg width="37" height="46" viewBox="0 0 37 46" fill="none" xmlns="http://www.w3.org/2000/svg">
<path d="M27.2909 36.3343C31.2939 34.3497 34.3546 30.8683 35.8104 26.6439C37.2656 22.4198 36.9995 17.7921 35.0683 13.7629L35.0094 13.6407L34.6865 13.0343L34.0735 13.3474C33.1595 13.8163 32.2871 14.361 31.4648 14.9761C31.7602 12.1349 31.2586 9.26752 30.0166 6.6952L29.9612 6.58013L29.6368 5.97667L29.0274 6.28799C27.8173 6.90325 26.6879 7.66603 25.665 8.55875C26.0748 5.95343 25.678 3.28529 24.5287 0.911589L24.4803 0.811037L24.1559 0.207584L23.5456 0.517053C20.8016 1.90596 18.608 4.18179 17.321 6.97478C15.8606 4.5578 13.6535 2.68156 11.0323 1.63022L10.382 1.36985L10.1193 2.01906C9.05333 4.66207 8.88622 7.58241 9.64427 10.3294C6.85491 9.76753 3.95809 10.1345 1.39726 11.3741L0.760629 11.6808L1.06715 12.3171C2.23054 14.714 4.10274 16.6954 6.42971 17.9927C5.06576 18.2443 3.74127 18.6766 2.4917 19.2783L1.85507 19.5849L2.16251 20.2232C3.43224 22.8226 5.40828 25.012 7.86399 26.5415C6.83394 26.8182 5.83227 27.1903 4.87134 27.6531L4.23829 27.958L4.54484 28.5944C6.40148 32.3849 9.60506 35.3467 13.5293 36.9012C17.4536 38.4556 21.8162 38.4912 25.7647 37.0008C25.8421 36.9636 25.9263 36.9406 26.0081 36.9035L26.1329 37.1624C26.5268 37.9667 26.9814 38.7398 27.4925 39.4752C29.2633 42.0269 31.6667 44.0748 34.4677 45.417L35.1267 44.1783C31.7551 42.5858 29.0277 39.8911 27.3941 36.5393L27.349 36.4458C27.3279 36.4096 27.3085 36.3724 27.2909 36.3343ZM34.0649 14.935C35.6381 18.5876 35.7564 22.7031 34.3956 26.44C33.0349 30.1769 30.2978 33.2527 26.7444 35.0384L26.7384 35.0259C26.6936 34.9101 26.6506 34.7935 26.6121 34.6769C26.5451 34.4877 26.4849 34.3064 26.4294 34.1182C26.3995 34.0286 26.373 33.9372 26.3481 33.8474C26.2986 33.6807 26.2535 33.5141 26.2117 33.3482C26.2038 33.3271 26.1989 33.3049 26.1974 33.282C26.1643 33.1585 26.1356 33.0395 26.1084 32.9175C26.0932 32.8525 26.0785 32.7856 26.0646 32.7171C26.0511 32.6527 26.0301 32.5587 26.0148 32.4797C25.9988 32.401 25.9879 32.3509 25.9728 32.2785C25.9084 31.9286 25.8572 31.5789 25.8111 31.2291C25.7884 31.0496 25.7716 30.8717 25.7569 30.6905C25.7471 30.5956 25.7376 30.4982 25.7331 30.4007C25.7142 30.1042 25.697 29.8113 25.6967 29.5124C25.6932 29.3347 25.6932 29.1598 25.6995 28.9796C25.7036 28.6897 25.7198 28.3962 25.738 28.1039C25.7486 27.9416 25.7635 27.7793 25.7812 27.6136C25.822 27.1886 25.8857 26.7638 25.9599 26.3427C26.0304 25.961 26.1148 25.5837 26.2083 25.2087C26.2238 25.1525 26.2359 25.0956 26.2525 25.0433C26.3416 24.7169 26.4336 24.3936 26.5412 24.0737L26.5842 23.9423C26.6154 23.8519 26.6455 23.7622 26.6773 23.676C27.42 21.602 28.5734 19.6989 30.0678 18.0808C30.3881 17.7338 30.7251 17.3986 31.077 17.0807C31.9889 16.2544 32.9896 15.5317 34.0606 14.9261L34.0649 14.935ZM29.0099 7.87556C30.1523 10.5468 30.4335 13.5078 29.8152 16.3465C28.1001 17.9876 26.7317 19.9556 25.7903 22.1344C24.7825 20.3602 23.4603 18.784 21.8885 17.4826C21.9931 17.0226 22.1237 16.5632 22.2726 16.1083L22.3149 15.9861C22.4206 15.6716 22.5397 15.3618 22.667 15.0614C23.9234 12.027 26.1546 9.49747 29.0082 7.87199L29.0099 7.87556ZM17.7853 9.8606C17.8727 9.52617 17.9612 9.20014 18.0698 8.87316L18.1066 8.76235C19.0557 5.96797 20.9816 3.60981 23.5297 2.12154C24.6523 4.83559 24.7023 7.87481 23.6702 10.6248C22.8008 11.7142 22.0765 12.9118 21.5152 14.1876C20.5525 12.5267 19.2871 11.0609 17.7852 9.8651L17.7853 9.8606ZM17.6199 14.9012C17.5457 14.8705 17.4674 14.8418 17.3923 14.8093L16.9873 14.6457L16.8619 14.5953L16.7412 14.5472L16.4988 15.1579L16.4804 15.2065C16.4295 15.3351 16.3821 15.462 16.3294 15.596C16.2766 15.7299 16.2502 15.809 16.2164 15.9184C15.9933 16.551 15.8088 17.1967 15.6642 17.852C15.6085 18.1003 15.5554 18.3475 15.5165 18.6076C15.4902 18.7509 15.4666 18.8952 15.4465 19.0377L15.3865 19.0134C15.258 18.9536 15.1293 18.9025 15.0015 18.8489L14.9759 18.8414C14.9029 18.81 14.8358 18.7848 14.7593 18.7553L14.5602 18.6784C14.4174 18.6254 14.278 18.5795 14.1352 18.531C14.0914 18.4081 14.0467 18.2835 14.0037 18.1514C13.486 16.5836 13.2504 14.9365 13.3074 13.2866C13.3153 13.0215 13.3333 12.7559 13.3652 12.4858C13.3965 12.2161 13.4167 11.9827 13.4547 11.7297C13.5812 10.8663 13.7882 10.0162 14.0724 9.1908C14.8339 9.54219 15.5619 9.96244 16.2473 10.4464C16.4662 10.5979 16.677 10.7555 16.8821 10.918C17.0866 11.0809 17.3165 11.2691 17.5216 11.4559C18.7377 12.5364 19.7553 13.8211 20.5288 15.2519C20.6348 15.4489 20.7353 15.6485 20.8349 15.8553L20.8704 15.929C20.8255 16.0746 20.7814 16.2266 20.7409 16.3723C20.7227 16.432 20.7042 16.494 20.6905 16.5538C20.5797 16.4699 20.462 16.3914 20.3532 16.3131C20.1404 16.1742 19.9252 16.041 19.7168 15.911C19.0572 15.5203 18.3727 15.1737 17.6669 14.8742C17.6548 14.849 17.657 14.817 17.6502 14.7892C17.6299 14.82 17.6183 14.8554 17.6156 14.8923L17.6199 14.9012ZM11.1651 3.22065C13.5584 4.36197 15.4882 6.28805 16.6358 8.67803L16.6436 8.69416C16.6292 8.73878 16.6153 8.78755 16.604 8.83724C16.5922 8.88728 16.5757 8.93064 16.5645 8.98039C15.7262 8.43469 14.8361 7.97324 13.907 7.60278L13.255 7.33872L12.9941 7.99161C12.5923 8.99126 12.2952 10.0302 12.1085 11.0913C11.8266 10.9658 11.5295 10.8587 11.2299 10.7571C10.3667 8.31989 10.3423 5.66404 11.1607 3.21167L11.1651 3.22065ZM2.65542 12.3227C5.14864 11.3035 7.91785 11.1813 10.4907 11.9769C10.9401 12.1171 11.3802 12.2837 11.8098 12.4754L11.9278 12.5271C11.7748 14.3918 11.9664 16.2687 12.4926 18.0642C11.4737 17.8419 10.4338 17.7239 9.39055 17.7114C6.53536 16.85 4.12256 14.9196 2.65542 12.3227ZM3.74989 20.227C6.64613 19.0004 9.87003 18.7829 12.9046 19.6088C12.9594 19.6267 13.0154 19.6411 13.0721 19.6521L13.3685 19.7441C14.0136 19.9434 14.6439 20.1882 15.2543 20.4769C15.2607 20.4827 15.2681 20.4873 15.2763 20.4906C15.1541 22.4664 15.3836 24.4478 15.9536 26.3434C13.9821 25.8997 11.9467 25.8134 9.94459 26.0885C7.32404 24.8255 5.16067 22.7799 3.75336 20.2342L3.74989 20.227ZM24.8779 33.8114C24.9043 33.9226 24.9368 34.0311 24.9674 34.1403C24.9844 34.203 25.0032 34.2648 25.0255 34.3339C25.0615 34.4649 25.1017 34.5895 25.1445 34.7194C25.1873 34.8495 25.2407 35.012 25.2886 35.1572L25.2939 35.168C25.3453 35.3159 25.396 35.4576 25.451 35.6039C25.3915 35.6326 25.3241 35.654 25.2644 35.6761C21.7604 37.0166 17.8889 37.0386 14.3699 35.7381C10.8509 34.4376 7.92428 31.9031 6.1339 28.6063C7.3052 28.1069 8.53319 27.7512 9.78965 27.5473C10.2858 27.4679 10.7827 27.4145 11.2786 27.3773C13.1531 27.2604 15.0336 27.4847 16.8284 28.0393L17.109 28.1256C17.588 28.2831 18.0565 28.4627 18.5137 28.6648C18.7478 28.7734 18.9715 28.874 19.1961 28.9873C19.3878 29.081 19.5727 29.1756 19.7593 29.2829C19.8551 29.3342 19.9491 29.3864 20.0381 29.4387L20.3115 29.6016C20.4029 29.6572 20.4909 29.7167 20.5814 29.7706C20.6718 29.8245 20.7598 29.884 20.8484 29.9431C21.0287 30.0601 21.2008 30.1831 21.3721 30.3088C21.4598 30.3707 21.5451 30.4337 21.6283 30.4954C21.7987 30.6238 21.9743 30.754 22.1294 30.892L22.3734 31.0955C22.4556 31.1644 22.5355 31.2389 22.6119 31.3062C22.6889 31.3732 22.7723 31.4504 22.8457 31.5191C22.9185 31.5881 23.0019 31.6654 23.0753 31.7386C23.3049 31.958 23.5254 32.1862 23.7415 32.4232C23.9575 32.6601 24.1848 32.925 24.3952 33.1869C24.4494 33.2582 24.5044 33.3268 24.5586 33.3982C24.6623 33.5298 24.7645 33.6689 24.8641 33.807L24.8779 33.8114ZM24.3753 31.0393C24.3537 31.0187 24.3335 30.9951 24.3107 30.9751C24.2143 30.8754 24.1154 30.7813 24.0172 30.6869C23.9183 30.5927 23.772 30.455 23.6465 30.3405C23.5204 30.2263 23.4151 30.1309 23.2959 30.0311C23.2959 30.0311 23.2775 30.0156 23.2686 30.011C23.1416 29.8994 23.0109 29.794 22.8898 29.6841C22.768 29.5744 22.6266 29.4786 22.4968 29.3795C22.3669 29.2804 22.2279 29.179 22.0883 29.0824C21.9486 28.9857 21.8126 28.8874 21.6694 28.7881C21.5263 28.6887 21.3944 28.6083 21.2538 28.5188C21.2449 28.517 21.2374 28.512 21.2318 28.505L20.8433 28.2691C20.7789 28.2359 20.7172 28.1992 20.6576 28.1637C20.6385 28.1559 20.6205 28.146 20.6038 28.1342L20.5521 28.1059C20.4931 28.0701 20.4322 28.0397 20.3717 28.0069C20.2512 27.9409 20.1219 27.8702 19.996 27.8068L19.7643 27.697C19.4194 27.5243 19.0678 27.3681 18.7138 27.222C18.4857 27.1259 18.253 27.0386 18.0186 26.9522C17.882 26.9029 17.748 26.85 17.5997 26.8084C16.9512 25.0269 16.6359 23.1412 16.6699 21.2456C16.6727 20.9806 16.6828 20.7124 16.704 20.4474C16.7246 20.1828 16.7446 19.9384 16.7785 19.6829L16.9947 19.8002L16.7802 19.682C16.8144 19.4441 16.8465 19.185 16.8879 18.9392C16.9287 18.6936 16.9838 18.408 17.045 18.1437C17.0563 18.0851 17.0682 18.0306 17.0849 17.9694C17.136 17.7543 17.193 17.5364 17.2509 17.3203C17.2951 17.155 17.3483 16.9899 17.4032 16.8239C17.4223 16.8635 17.4413 16.903 17.4488 16.9459L17.405 16.8186C17.4494 16.6732 17.4961 16.5268 17.5458 16.3788C17.7158 16.4563 17.8813 16.5382 18.0451 16.621C18.0581 16.6253 18.0708 16.6302 18.0837 16.6356C18.171 16.6799 18.2625 16.7268 18.3521 16.7744C18.5952 16.9032 18.8352 17.0378 19.069 17.1776C19.3021 17.3178 19.5157 17.4475 19.7275 17.5936C19.9399 17.7392 20.1526 17.8826 20.3598 18.0374C20.5671 18.1923 20.7837 18.3604 20.9899 18.5313C21.1961 18.7021 21.4198 18.8956 21.6281 19.0876C23.0706 20.4174 24.2482 22.0084 25.0978 23.7768L25.1489 23.8829L25.0425 24.2265C25.0362 24.2562 25.0252 24.2835 25.0196 24.3129C24.9764 24.4577 24.9369 24.6008 24.8998 24.7537C24.8956 24.7633 24.8923 24.7731 24.8891 24.7832C24.8573 24.9226 24.824 25.0604 24.789 25.1946L24.7724 25.2668L24.7556 25.3414C24.7278 25.4678 24.6946 25.5923 24.6747 25.7259C24.6548 25.8596 24.6286 25.9696 24.6 26.0852C24.5852 26.1655 24.5709 26.2454 24.5587 26.3266C24.4163 27.1708 24.3354 28.024 24.3159 28.8797C24.313 28.9941 24.3091 29.1045 24.3124 29.2225C24.3163 29.3402 24.3104 29.4162 24.3128 29.5125C24.3152 29.6088 24.3131 29.7338 24.3231 29.8551C24.3358 30.2543 24.3575 30.6448 24.402 31.0353L24.3753 31.0393Z" fill="#E9DCBC"/>
</svg>
