<svg width="112" height="118" viewBox="0 0 112 118" fill="none" xmlns="http://www.w3.org/2000/svg">
<path d="M101.793 80.5275L102.519 79.3515C108.834 68.9604 111.052 56.5899 108.741 44.6519C106.43 32.7141 99.7563 22.0647 90.0201 14.7802L88.8826 13.9607C89.0783 13.6439 89.2741 13.3271 89.4698 13.0103C89.5351 12.9047 89.6003 12.7991 89.6351 12.7427C93.9045 5.7669 96.449 -2.12651 97.0573 -10.2824C97.6656 -18.4384 96.3199 -26.6219 93.1322 -34.1538L90.6105 -33.0951C93.1215 -27.1013 94.4184 -20.6688 94.4259 -14.1703C94.4333 -7.67178 93.1515 -1.23626 90.6545 4.76346C89.6983 7.0493 88.5677 9.25818 87.2725 11.3706C87.2291 11.441 87.1856 11.5113 87.1421 11.5817C86.9594 11.8774 86.781 12.1662 86.6027 12.4548L86.3773 12.3156C75.3388 5.53936 62.0652 3.41255 49.4621 6.40092C36.859 9.38926 25.9533 17.2492 19.1324 28.2603L18.9454 28.5629L18.3012 29.7314L19.4347 30.4317C22.4555 32.2113 25.6506 33.6772 28.9701 34.8055C20.9897 38.4527 14.2737 44.3904 9.67577 51.8639L9.50195 52.1453L8.85352 53.3206L9.99407 54.0253C13.9405 56.3457 18.2028 58.0812 22.6476 59.1777C14.9336 62.0838 8.40174 67.4672 4.07592 74.4839C4.0237 74.5684 3.97571 74.6461 3.9235 74.7306L3.27254 75.8944L4.406 76.5947C12.4027 81.3218 21.8202 83.0504 30.9746 81.4724C26.9116 89.0097 25.5589 97.7134 27.1422 106.129L27.4045 107.467L28.746 107.217C37.1687 105.643 44.7909 101.213 50.3278 94.6746C53.176 102.746 58.7054 109.595 65.9939 114.081L67.1626 114.804L67.8847 113.635C72.2393 106.519 74.0913 98.1512 73.1461 89.862C76.1787 93.4232 79.7513 96.4868 83.7329 98.942L84.9017 99.6641L85.6804 98.4036C90.2912 90.8276 92.5267 82.0439 92.0975 73.185C94.6876 75.7121 97.5482 77.9461 100.628 79.8467L101.793 80.5275ZM66.2805 110.893C59.5854 106.4 54.6702 99.7088 52.3842 91.9763L52.2036 91.3397C52.0732 90.8894 51.9629 90.4225 51.8528 89.9552C51.7422 89.4881 51.646 89.03 51.5585 88.5577C51.471 88.0855 51.3906 87.6171 51.3283 87.1509C51.3004 87.0206 51.2812 86.8883 51.2713 86.7554C51.25 86.6255 51.2371 86.4939 51.2323 86.362C56.5043 83.6305 61.1708 79.8636 64.9527 75.2861C66.0554 78.5365 67.5312 81.6487 69.3499 84.5593C70.5993 88.9344 70.9711 93.5133 70.4445 98.0327C69.9179 102.552 68.5027 106.923 66.2805 110.893ZM84.9112 14.6101L85.0239 14.6798C85.0017 14.7081 84.9827 14.7388 84.9674 14.7713C84.7499 15.1233 84.4688 15.4361 84.2076 15.7805C84.1719 15.8459 84.1327 15.9094 84.0902 15.9706C83.9031 16.2733 83.6413 16.5396 83.4189 16.8204L83.0729 17.239L82.4503 17.9633C82.3285 18.1604 82.1391 18.3255 81.9776 18.5078C81.8164 18.6904 81.4821 19.0578 81.2275 19.3285L81.1623 19.4341C80.9606 19.6499 80.7592 19.866 80.5652 20.0379C80.1929 20.4208 79.8087 20.806 79.4263 21.1728C79.2221 21.3774 79.0139 21.573 78.8014 21.7595C77.517 22.9655 76.1672 24.0996 74.7571 25.156C73.8457 25.8283 72.9148 26.4691 71.9713 27.0827L71.1773 27.5649C70.9327 27.7251 70.6895 27.8666 70.4352 28.011C69.9444 28.3012 69.4469 28.5872 68.9392 28.8572C68.4319 29.1275 67.9202 29.4047 67.4032 29.6592C66.3803 30.1654 65.3448 30.6444 64.2849 31.0692C62.991 31.5993 61.667 32.0783 60.313 32.5064C59.4793 32.7695 58.6289 33.0124 57.7772 33.2258C57.7346 33.2458 57.6895 33.2606 57.6433 33.2694L57.297 33.3574C56.3361 33.5901 55.3697 33.8004 54.4107 33.967C49.3582 34.9005 44.1892 35.0234 39.0979 34.3312C37.9488 34.1757 36.7959 33.9789 35.6623 33.7356C34.8157 33.5629 33.9667 33.3624 33.1153 33.1346C29.2827 32.1181 25.59 30.6335 22.1198 28.7152C28.7082 18.6651 38.9498 11.5744 50.6756 8.94482C62.4014 6.31526 74.6903 8.35339 84.9394 14.6276L84.9112 14.6101ZM77.618 32.9644C77.5586 33.5016 77.5147 34.029 77.4708 34.5564C77.4342 35.0882 77.4087 35.6173 77.3836 36.1466C77.3836 36.1466 77.3532 36.1958 77.3824 36.243C77.3628 36.7465 77.3769 37.2124 77.3471 37.7484L77.3855 39.2605C77.3855 39.2605 77.3507 39.3169 77.394 39.3728C77.4054 39.9051 77.4241 40.442 77.4612 40.9804L77.497 41.6155L77.5369 42.2432C77.5723 42.265 77.5497 42.3484 77.559 42.4125C77.5679 42.4764 77.5787 42.522 77.5808 42.5816C77.6222 43.1131 77.6951 43.6251 77.7488 44.1836L77.7184 44.2328L77.7302 44.3082C77.7782 44.7337 77.8393 45.1601 77.9121 45.588L77.9497 45.8737L78.071 46.591L78.2158 47.3322C78.3171 47.8613 78.4076 48.4233 78.5415 48.9148C78.6758 49.4059 78.789 49.9624 78.9245 50.4838C75.2379 55.3585 70.6147 59.4477 65.3261 62.5109C64.8829 62.772 64.4368 63.0214 63.981 63.2553C63.5248 63.4895 63.1236 63.6987 62.6703 63.9436C61.7707 64.361 60.8038 64.8235 59.8436 65.2129C59.3638 65.4225 58.8744 65.6161 58.3754 65.7944C57.8745 65.9905 57.3771 66.1502 56.8463 66.3478C56.3162 66.5452 55.92 66.6508 55.4513 66.7794C54.9826 66.908 54.6421 67.019 54.2516 67.147L53.1907 67.4158C52.8217 67.5092 52.4459 67.598 52.0513 67.685L51.917 66.7846C51.7457 65.5505 51.6264 64.3158 51.5591 63.0812C51.5276 62.5652 51.4944 62.0681 51.4915 61.5219C51.4889 60.9753 51.4691 60.5348 51.462 59.9955C51.4713 58.9408 51.5218 57.8826 51.6119 56.8394C51.6446 56.3147 51.698 55.8026 51.7559 55.284C51.8139 54.7654 51.8874 54.2369 51.9639 53.7197C52.8813 47.5271 55.055 41.5873 58.3509 36.2651L58.6771 35.7371L60.0645 35.3492C60.0645 35.3492 60.0646 35.3492 60.1259 35.3287C60.5191 35.2118 60.9055 35.0902 61.3171 34.9752L61.4852 34.9234L61.9214 34.7842L62.3619 34.638C62.516 34.5776 62.6726 34.5285 62.8223 34.4751C62.9721 34.4217 62.9653 34.4174 63.0336 34.4013L64.1833 33.9735L64.303 33.921C65.0034 33.6533 65.6984 33.3628 66.3836 33.0565C66.6463 32.9464 66.9133 32.8293 67.173 32.7077C67.5102 32.5561 67.8514 32.3972 68.1901 32.2271C68.5288 32.057 69.0617 31.7928 69.4789 31.574C69.8961 31.355 70.3293 31.1265 70.7526 30.8823C71.176 30.638 71.5816 30.4218 72.0025 30.1662C72.423 29.9104 72.8106 29.6926 73.2344 29.4C73.6582 29.1074 73.8927 28.9798 74.2138 28.7599C74.3712 28.6626 74.5214 28.5609 74.6647 28.4549C74.9854 28.2347 75.3064 28.0148 75.613 27.786C76.3578 27.2734 77.1205 26.6843 77.842 26.0989C78.0187 25.9551 78.1907 25.8181 78.3644 25.6628C78.5382 25.5076 78.5726 25.4996 78.6772 25.4086L79.0432 25.0997C78.9003 25.6145 78.7643 26.1336 78.6466 26.6543C78.3865 27.6901 78.1769 28.7377 77.9999 29.7956C77.8228 30.8535 77.7564 31.9215 77.6462 32.9818L77.618 32.9644ZM63.1195 68.0348L63.1717 68.4074C63.3345 69.3249 63.517 70.2256 63.7251 71.1327C63.7932 71.4473 63.8731 71.7591 63.9529 72.0709C63.7833 72.3454 63.5685 72.5825 63.3638 72.8353C59.9564 77.127 55.7363 80.7042 50.9447 83.3633C50.5029 83.6058 50.0542 83.8441 49.6026 84.0711C49.1516 84.298 48.7242 84.501 48.2462 84.6923C48.2387 84.6098 48.2271 84.5342 48.2269 84.4562L48.2393 84.688C45.5163 85.953 42.6642 86.9209 39.7337 87.5748C39.2891 84.7236 39.1442 81.8336 39.3021 78.9522C39.3258 78.4414 39.361 77.9281 39.4102 77.4236C39.4591 76.9188 39.5189 76.3819 39.5764 75.863C40.2768 70.4742 42.0223 65.2745 44.7152 60.555C44.9676 60.1465 45.2197 59.7384 45.4721 59.3299L45.7635 58.8582L46.5098 58.658L47.2422 58.4488L47.3647 58.4077C47.7965 58.2758 48.2284 58.1439 48.6506 57.996L48.7573 57.9646L48.7309 58.9209C48.7105 59.3949 48.7039 59.8774 48.7002 60.3712C48.6969 60.8652 48.7088 61.3491 48.7478 61.8692C48.81 64.3542 49.0692 66.8304 49.5229 69.2743C49.5381 69.391 49.5652 69.5045 49.5853 69.6142L49.7976 70.8448L49.8173 70.9543L51.1181 70.7075C51.1938 70.6974 51.2681 70.6818 51.3411 70.6607C51.6017 70.617 51.8596 70.5623 52.1169 70.5077L52.9126 70.3376C55.0634 69.8406 57.1776 69.1968 59.2397 68.4099C59.7162 68.2372 60.2027 68.0322 60.6538 67.8538C61.1047 67.6748 61.5888 67.4583 62.0322 67.2752L62.9179 66.8498C63.0228 67.2939 63.0819 67.6707 63.1476 68.0522L63.1195 68.0348ZM55.0322 36.5981C51.8401 42.2549 49.8119 48.4928 49.0663 54.9452C48.0962 55.319 47.1399 55.6229 46.1526 55.8983C45.6455 56.042 45.1384 56.1859 44.6172 56.3209L44.2937 56.4036C43.2873 56.6471 42.2794 56.8613 41.261 57.0295C31.4368 58.7376 21.3236 57.0583 12.579 52.2663C17.4939 44.7635 24.7044 39.0525 33.1334 35.9864C40.3106 37.7816 47.7921 37.9964 55.0603 36.6155L55.0322 36.5981ZM28.7055 60.1578C32.8912 60.6046 37.1181 60.4839 41.2718 59.7989C41.5141 59.8318 41.752 59.872 41.9926 59.9233C39.1 65.2117 37.3164 71.0344 36.7512 77.0353C35.6517 77.4349 34.5318 77.7755 33.3965 78.0562L32.8708 78.1985C24.1287 80.3058 14.9167 79.1166 6.99631 74.8585C12.0282 67.2949 19.8383 62.0195 28.7337 60.1752L28.7055 60.1578ZM34.5744 80.574C34.8137 80.5178 35.0499 80.4496 35.2797 80.3775C35.509 80.3051 35.5429 80.2971 35.6796 80.2648C35.8163 80.2325 36.1232 80.1301 36.3384 80.049C36.408 80.0378 36.4761 80.0178 36.5409 79.9895C36.4511 83.1727 36.7013 86.3572 37.2873 89.4877L37.5451 90.8337L38.8956 90.5687C42.2113 89.9324 45.4441 88.9246 48.5342 87.5645L48.5578 87.7153C48.6258 88.1561 48.698 88.59 48.7775 89.0284C48.8973 89.6373 49.0075 90.2304 49.1726 90.829C49.2129 91.0158 49.256 91.1981 49.3021 91.3755C44.4093 97.8073 37.4128 102.316 29.5345 104.114C28.3444 96.0273 30.0556 87.7797 34.3653 80.8341L34.5744 80.574ZM71.8124 83.3764C69.8527 80.2972 68.3089 76.9715 67.2216 73.4876C67.127 73.2151 67.0346 72.9245 66.9559 72.6423L66.7756 72.0053C66.6278 71.4569 66.4845 70.9013 66.3555 70.355C66.1605 69.505 65.9911 68.6612 65.8448 67.8118C65.7571 67.2615 65.6671 66.7294 65.6067 66.1665L65.5402 65.5811C71.0443 62.5863 75.9153 58.5523 79.8832 53.7026C81.8716 59.6716 85.0043 65.1951 89.1062 69.9656C90.2241 78.8848 88.4284 87.9271 83.9874 95.7427C79.1311 92.5193 75.0011 88.318 71.8619 83.407L71.8124 83.3764ZM89.8431 66.5687C89.1367 65.6652 88.4615 64.742 87.8266 63.7858C85.2987 60.0063 83.3489 55.8706 82.0421 51.5152C81.9263 51.1517 81.8261 50.7784 81.7427 50.4255C81.5774 49.8273 81.4029 49.2429 81.2753 48.5997L81.223 48.3532L81.1738 48.1187L81.0596 47.6105L80.9595 47.111C80.8434 46.5428 80.7329 45.998 80.6597 45.408C80.524 44.6043 80.4222 43.7925 80.335 42.9896L80.2447 42.0485C80.214 41.7312 80.1939 41.4172 80.1848 41.1068C80.14 40.476 80.1114 39.8454 80.0985 39.2149C80.0782 38.6187 80.0758 38.0239 80.0876 37.4378L80.1157 36.3851C80.1253 36.07 80.1464 35.7523 80.1632 35.4416C80.1799 35.131 80.2014 34.8135 80.225 34.5071C80.2648 33.9285 80.3207 33.3502 80.3923 32.7719C80.5427 31.4737 80.7439 30.1875 81.0049 28.8993C81.1143 28.3443 81.2381 27.7982 81.3684 27.2561C81.4001 27.1103 81.439 26.969 81.4775 26.8274C81.5165 26.6861 81.5928 26.3734 81.6539 26.1485C82.1193 24.4025 82.6922 22.687 83.3687 21.0113C83.6581 20.6843 83.9373 20.3899 84.2358 20.0489C84.3271 19.9011 84.4632 19.7907 84.5715 19.663C84.8609 19.336 85.1192 19.0286 85.4076 18.6717C85.6959 18.3148 86.0528 17.8641 86.3759 17.4509C86.6991 17.0377 86.9694 16.6794 87.2542 16.2814L87.302 16.204L88.3438 16.9741C97.3915 23.6685 103.664 33.4535 105.971 44.4697C108.277 55.4858 106.456 66.9653 100.853 76.7271C97.4355 74.4752 94.3307 71.7816 91.6191 68.7165C91.0418 68.0289 90.4352 67.2944 89.8922 66.5991L89.8431 66.5687Z" stroke="#F0E6CB" stroke-opacity="0.5" stroke-width="3.5"/>
</svg>
