<svg width="67" height="215" viewBox="0 0 67 215" fill="none" xmlns="http://www.w3.org/2000/svg">
<path d="M64.8803 39.6002C64.1955 63.1231 62.2541 94.3773 56.9226 111.016C49.0455 135.479 43.7456 150.518 48.2809 187.292C48.8227 191.73 49.5067 196.482 50.3503 201.594C51.0185 205.609 48.1379 209.529 43.3001 210.893C31.5641 213.93 19.4654 215.391 7.33263 215.238C-3.36903 215.321 -14.0462 214.216 -24.4968 211.945C-29.7009 210.737 -32.9316 206.675 -32.2313 202.535C-31.2446 196.591 -30.4648 191.15 -29.876 186.132C-25.6109 150.252 -30.8626 135.291 -38.6767 111.094C-43.9285 94.7535 -45.8701 64.3775 -46.634 40.9958C-46.9523 30.4262 -47 21.2994 -47 15.5441C-47 11.8275 -43.9922 8.47162 -39.4883 7.31113C-24.167 3.62519 -8.43779 1.8445 7.33263 2.01064C27.083 2.01064 45.0188 4.47268 58.2598 8.45589C62.4926 9.74176 65.246 12.9723 65.2302 16.5478C65.1986 22.0051 65.1346 30.1911 64.8803 39.6002Z" stroke="#F0E6CB" stroke-width="3.33062" stroke-miterlimit="10"/>
<mask id="mask0_168_3904" style="mask-type:luminance" maskUnits="userSpaceOnUse" x="-36" y="11" width="91" height="196">
<path d="M36.5601 202.472C38.3616 201.961 39.9215 200.826 40.9615 199.269C42.0007 197.712 42.4515 195.836 42.2325 193.977C41.556 189.293 41.0036 184.956 40.5672 180.905M36.5601 202.472L54.1378 24.7565C54.1648 29.8143 54.1114 37.294 53.906 45.9046C53.3634 67.4267 51.805 95.9742 47.4955 111.175C47.3216 111.789 47.1493 112.399 46.9785 113.002C40.9532 134.313 37.0259 148.207 40.5672 180.905M36.5601 202.472C28.92 204.938 18.8049 206.434 7.70994 206.434L36.5601 202.472ZM40.5672 180.905L40.1247 180.953C40.1247 180.953 40.1247 180.953 40.1247 180.952M40.5672 180.905L40.1247 180.952L40.5672 180.905ZM40.1247 180.952C40.5612 185.008 41.1143 189.349 41.7908 194.035C41.9962 195.786 41.571 197.555 40.5913 199.022C39.6108 200.491 38.1381 201.562 36.439 202.043L36.4315 202.046L36.4239 202.048C28.8372 204.497 18.7692 205.989 7.70994 205.989H7.7061C-0.871937 206.063 -9.42537 205.059 -17.7535 203.002C-21.7348 201.948 -24.1635 198.429 -23.656 194.814C-22.8629 189.378 -22.2388 184.412 -21.7662 179.811C-20.0493 163.388 -20.246 151.732 -21.6611 141.409C-23.0014 131.631 -25.4338 123.06 -28.3468 112.794C-28.5075 112.227 -28.6695 111.656 -28.833 111.08C-33.0358 96.2188 -34.595 68.4601 -35.1741 47.0771C-35.4232 37.4429 -35.4677 29.1066 -35.4678 23.8461C-35.4171 22.2066 -34.8351 20.6279 -33.8094 19.3477C-32.7823 18.0658 -31.3661 17.1528 -29.7745 16.7465L-29.7665 16.7444L-29.7585 16.7421C-19.5931 13.7377 -6.55594 11.9163 7.68322 11.9163C23.4964 11.9163 37.871 14.1556 48.4007 17.7779L48.4075 17.7802L48.4143 17.7823C49.9155 18.2457 51.2331 19.1695 52.1805 20.423C53.1272 21.6754 53.6562 23.1936 53.6923 24.7629C53.7194 29.8157 53.6659 37.2892 53.4613 45.8934C52.918 67.4279 51.358 95.917 47.0665 111.053V111.054C46.8919 111.671 46.7189 112.283 46.5481 112.889C43.6223 123.236 41.182 131.868 39.8568 141.76C38.4527 152.237 38.3007 164.115 40.1247 180.952Z" fill="white"/>
<path d="M36.5601 202.472C38.3616 201.961 39.9216 200.826 40.9615 199.269C42.0007 197.712 42.4515 195.836 42.2325 193.977C41.556 189.293 41.0036 184.956 40.5672 180.905M36.5601 202.472L54.1378 24.7565C54.1649 29.8143 54.1114 37.294 53.906 45.9046C53.3634 67.4267 51.805 95.9742 47.4955 111.175C47.3216 111.789 47.1493 112.399 46.9785 113.002C40.9532 134.313 37.0259 148.207 40.5672 180.905M36.5601 202.472C28.92 204.938 18.8049 206.434 7.70994 206.434L36.5601 202.472ZM40.5672 180.905L40.1247 180.953C40.1247 180.953 40.1247 180.953 40.1247 180.952M40.5672 180.905L40.1247 180.952M40.1247 180.952C40.5612 185.008 41.1143 189.349 41.7908 194.035C41.9962 195.786 41.571 197.555 40.5913 199.022C39.6108 200.491 38.1381 201.562 36.439 202.043L36.4315 202.046L36.4239 202.048C28.8372 204.497 18.7692 205.989 7.70994 205.989H7.7061C-0.871939 206.063 -9.42537 205.059 -17.7535 203.002C-21.7348 201.948 -24.1635 198.429 -23.656 194.814C-22.8629 189.378 -22.2388 184.412 -21.7662 179.811C-20.0493 163.388 -20.246 151.732 -21.6611 141.409C-23.0014 131.631 -25.4338 123.06 -28.3468 112.794C-28.5075 112.227 -28.6695 111.656 -28.833 111.08C-33.0358 96.2188 -34.595 68.4601 -35.1741 47.0771C-35.4232 37.4429 -35.4677 29.1066 -35.4678 23.8461C-35.4171 22.2066 -34.8351 20.6279 -33.8094 19.3477C-32.7823 18.0658 -31.3661 17.1528 -29.7745 16.7465L-29.7665 16.7444L-29.7585 16.7421C-19.5931 13.7377 -6.55594 11.9163 7.68322 11.9163C23.4964 11.9163 37.871 14.1556 48.4007 17.7779L48.4075 17.7802L48.4143 17.7823C49.9155 18.2457 51.2331 19.1695 52.1805 20.423C53.1272 21.6754 53.6562 23.1936 53.6923 24.7629C53.7194 29.8157 53.6659 37.2892 53.4613 45.8934C52.918 67.4279 51.358 95.917 47.0665 111.053V111.054C46.8919 111.671 46.7189 112.283 46.5481 112.889C43.6223 123.236 41.182 131.868 39.8568 141.76C38.4527 152.237 38.3007 164.115 40.1247 180.952Z" stroke="white" stroke-width="0.890447"/>
</mask>
<g mask="url(#mask0_168_3904)">
<path d="M-26.9998 148C-21.3276 148 -21.3276 152.087 -15.6466 152.087C-9.96551 152.087 -9.97447 148 -4.2934 148C1.38766 148 1.37871 152.087 7.05977 152.087C12.7408 152.087 12.7319 148 18.4129 148C24.0939 148 24.0939 152.087 29.7752 152.087C35.4559 152.087 35.4558 148 41.1372 148" stroke="#F0E6CB" stroke-width="1.78089" stroke-miterlimit="10"/>
<path d="M-26.9998 154C-21.3276 154 -21.3276 158.088 -15.6466 158.088C-9.96551 158.088 -9.97447 154 -4.2934 154C1.38766 154 1.37871 158.088 7.05977 158.088C12.7408 158.088 12.7319 154 18.4129 154C24.0939 154 24.0939 158.088 29.7752 158.088C35.4559 158.088 35.4558 154 41.1372 154" stroke="#F0E6CB" stroke-width="1.78089" stroke-miterlimit="10"/>
<path d="M-22.9583 160.167C-17.2861 160.167 -17.2861 164.253 -11.6051 164.253C-5.92401 164.253 -5.93296 160.167 -0.251898 160.167C5.42917 160.167 5.42021 164.253 11.1013 164.253C16.7823 164.253 16.7734 160.167 22.4545 160.167C28.1354 160.167 28.1354 164.253 33.8167 164.253C39.4974 164.253 39.4974 160.167 45.1787 160.167" stroke="#F0E6CB" stroke-width="1.78089" stroke-miterlimit="10"/>
<path d="M-22.9583 166.017C-17.2861 166.017 -17.2861 170.104 -11.6051 170.104C-5.92401 170.104 -5.93296 166.017 -0.251898 166.017C5.42917 166.017 5.42021 170.104 11.1013 170.104C16.7823 170.104 16.7734 166.017 22.4545 166.017C28.1354 166.017 28.1354 170.104 33.8167 170.104C39.4974 170.104 39.4974 166.017 45.1787 166.017" stroke="#F0E6CB" stroke-width="1.78089" stroke-miterlimit="10"/>
<path d="M-22.9583 171.867C-17.2861 171.867 -17.2861 175.954 -11.6051 175.954C-5.92401 175.954 -5.93296 171.867 -0.251898 171.867C5.42917 171.867 5.42021 175.954 11.1013 175.954C16.7823 175.954 16.7734 171.867 22.4545 171.867C28.1354 171.867 28.1354 175.954 33.8167 175.954C39.4974 175.954 39.4974 171.867 45.1787 171.867" stroke="#F0E6CB" stroke-width="1.78089" stroke-miterlimit="10"/>
<path d="M-22.9583 177.69C-17.2861 177.69 -17.2861 181.777 -11.6051 181.777C-5.92401 181.777 -5.93296 177.69 -0.251898 177.69C5.42917 177.69 5.42021 181.777 11.1013 181.777C16.7823 181.777 16.7734 177.69 22.4545 177.69C28.1354 177.69 28.1354 181.777 33.8167 181.777C39.4974 181.777 39.4974 177.69 45.1787 177.69" stroke="#F0E6CB" stroke-width="1.78089" stroke-miterlimit="10"/>
<path d="M-22.9583 183.567C-17.2861 183.567 -17.2861 187.655 -11.6051 187.655C-5.92401 187.655 -5.93296 183.567 -0.251898 183.567C5.42917 183.567 5.42021 187.655 11.1013 187.655C16.7823 187.655 16.7734 183.567 22.4545 183.567C28.1354 183.567 28.1354 187.655 33.8167 187.655C39.4974 187.655 39.4974 183.567 45.1787 183.567" stroke="#F0E6CB" stroke-width="1.78089" stroke-miterlimit="10"/>
<path d="M-22.9583 189.418C-17.2861 189.418 -17.2861 193.505 -11.6051 193.505C-5.92401 193.505 -5.93296 189.418 -0.251898 189.418C5.42917 189.418 5.42021 193.505 11.1013 193.505C16.7823 193.505 16.7734 189.418 22.4545 189.418C28.1354 189.418 28.1354 193.505 33.8167 193.505C39.4974 193.505 39.4974 189.418 45.1787 189.418" stroke="#F0E6CB" stroke-width="1.78089" stroke-miterlimit="10"/>
<path d="M-22.9583 195.268C-17.2861 195.268 -17.2861 199.356 -11.6051 199.356C-5.92401 199.356 -5.93296 195.268 -0.251898 195.268C5.42917 195.268 5.42021 199.356 11.1013 199.356C16.7823 199.356 16.7734 195.268 22.4545 195.268C28.1354 195.268 28.1354 199.356 33.8167 199.356C39.4974 199.356 39.4974 195.268 45.1787 195.268" stroke="#F0E6CB" stroke-width="1.78089" stroke-miterlimit="10"/>
<path d="M-22.9583 201.119C-17.2861 201.119 -17.2861 205.205 -11.6051 205.205C-5.92401 205.205 -5.93296 201.119 -0.251898 201.119C5.42917 201.119 5.42021 205.205 11.1013 205.205C16.7823 205.205 16.7734 201.119 22.4545 201.119C28.1354 201.119 28.1354 205.205 33.8167 205.205C39.4974 205.205 39.4974 201.119 45.1787 201.119" stroke="#F0E6CB" stroke-width="1.78089" stroke-miterlimit="10"/>
<mask id="mask1_168_3904" style="mask-type:luminance" maskUnits="userSpaceOnUse" x="-44" y="-33" width="106" height="168">
<path d="M61.7583 67.6226V66.1355C61.6619 53.0525 56.6962 40.4744 47.8295 30.8538C38.9628 21.2331 26.8303 15.2596 13.7989 14.0979L12.2941 13.9911C12.2941 13.5904 12.2941 13.1897 12.2941 12.789C12.2941 12.6555 12.2941 12.5219 12.2941 12.4506C12.2572 3.65067 10.1222 -5.01367 6.06643 -12.8233C2.01061 -20.6331 -3.84925 -27.363 -11.0267 -32.4546L-12.7363 -30.0593C-7.04797 -25.9929 -2.22309 -20.8383 1.45896 -14.894C5.14109 -8.94969 7.60725 -2.33391 8.71448 4.57017C9.13234 7.2033 9.34665 9.86466 9.3556 12.5308C9.3556 12.6198 9.3556 12.7088 9.3556 12.7978C9.3556 13.1718 9.3556 13.537 9.3556 13.902H9.07071C-4.86588 13.9421 -18.2189 19.5021 -28.0653 29.3652C-37.9116 39.2282 -43.4491 52.5907 -43.4656 66.5274V66.9102L-43.3944 68.3438H-41.9608C-38.1892 68.2647 -34.4355 67.7993 -30.7589 66.9548C-36.0011 74.8068 -38.7906 84.0404 -38.7729 93.4812V93.8371L-38.7017 95.2797H-37.2592C-32.3345 95.1721 -27.4514 94.3503 -22.7627 92.8401C-28.1803 99.8624 -31.1148 108.485 -31.1062 117.354C-31.1062 117.461 -31.1062 117.559 -31.1062 117.666L-31.0439 119.099H-29.6103C-19.617 118.904 -10.0189 115.16 -2.53185 108.539C-1.98832 117.736 1.69561 126.468 7.90418 133.275L8.90147 134.352L9.98778 133.364C16.8076 127.161 21.2798 118.795 22.65 109.678C29.8215 115.455 38.7566 118.598 47.965 118.583H49.4436V117.104C49.4052 108.128 46.3682 99.4214 40.8155 92.3683C45.6051 93.9124 50.6077 94.6972 55.6412 94.692H57.1191V93.0982C57.0552 83.5557 54.1339 74.251 48.731 66.3848C52.5311 67.2333 56.4133 67.6604 60.3067 67.6583L61.7583 67.6226ZM46.4246 115.502C37.7551 115.176 29.4716 111.831 23.0062 106.046L22.4808 105.565C22.1068 105.226 21.7417 104.861 21.3766 104.496C21.0115 104.131 20.6643 103.766 20.317 103.383C19.9697 103 19.6314 102.617 19.3109 102.225C19.2115 102.122 19.1192 102.012 19.0348 101.896C18.9417 101.789 18.8555 101.676 18.7766 101.558C22.0579 96.0758 24.199 89.9881 25.072 83.6596C27.9199 86.0111 31.03 88.0256 34.3417 89.6615C37.959 92.9597 40.8892 96.9404 42.9631 101.375C45.037 105.81 46.2131 110.611 46.4246 115.502ZM9.02617 16.8316H9.16868C9.16424 16.8701 9.16424 16.9089 9.16868 16.9473C9.16868 17.3926 9.08847 17.8378 9.04399 18.3009C9.04836 18.3809 9.04836 18.4612 9.04399 18.5413C9.04399 18.9241 8.9549 19.3159 8.91035 19.6988L8.83029 20.2776L8.66993 21.2927C8.66993 21.542 8.58979 21.8003 8.54524 22.0585C8.50077 22.3167 8.40279 22.8421 8.32265 23.2339V23.3674C8.26034 23.679 8.19804 23.9907 8.1179 24.2579C7.99321 24.8188 7.85971 25.3887 7.71719 25.9408C7.646 26.2436 7.56578 26.5403 7.47676 26.8313C6.98343 28.6615 6.38887 30.463 5.6959 32.2274C5.24176 33.3583 4.75196 34.4713 4.23553 35.5666L3.78139 36.457C3.64782 36.742 3.50537 37.009 3.35397 37.285C3.06908 37.8283 2.77523 38.3715 2.46354 38.9058C2.15194 39.44 1.84032 39.9831 1.5108 40.5084C0.860794 41.5503 0.183998 42.5744 -0.546154 43.5628C-1.43064 44.7797 -2.37156 45.967 -3.36892 47.1246C-3.98326 47.8369 -4.62432 48.5403 -5.28328 49.217C-5.31097 49.2596 -5.34393 49.2985 -5.38118 49.3329L-5.6484 49.6089C-6.39638 50.3658 -7.16212 51.1048 -7.9457 51.7994C-12.0426 55.5115 -16.7046 58.5473 -21.7565 60.7929C-22.8963 61.3004 -24.0628 61.7724 -25.2382 62.1909C-26.1108 62.5115 -27.0012 62.8083 -27.9095 63.0814C-31.9926 64.3182 -36.2123 65.0478 -40.4737 65.254C-40.1267 52.3286 -34.762 40.046 -25.5158 31.0075C-16.2696 21.9691 -3.86813 16.8847 9.06183 16.8316H9.02617ZM12.7304 37.757C12.9798 38.2824 13.238 38.79 13.4962 39.2975C13.7634 39.805 14.0394 40.3038 14.3155 40.8024C14.3155 40.8024 14.3154 40.8647 14.3688 40.8914C14.636 41.3634 14.9121 41.7818 15.1881 42.2894L16.0785 43.6518C16.0785 43.6518 16.0785 43.723 16.1497 43.7497C16.4614 44.2305 16.7819 44.7114 17.1203 45.1833L17.5121 45.7443L17.9038 46.2964C17.9484 46.2964 17.9751 46.3855 18.0196 46.4389C18.0641 46.4923 18.0998 46.528 18.1354 46.5814C18.4738 47.0444 18.83 47.4718 19.195 47.9527V48.015L19.2484 48.0773C19.5334 48.4394 19.8302 48.7956 20.1389 49.1459L20.3349 49.3863L20.8513 49.9739L21.4033 50.5706C21.7952 50.998 22.1958 51.4611 22.5965 51.8351C22.9972 52.2091 23.4157 52.6542 23.8343 53.0549C23.2167 59.6018 21.2973 65.9594 18.1889 71.7543C17.9306 72.244 17.6635 72.7249 17.3785 73.1968C17.0935 73.6687 16.8442 74.0872 16.5682 74.5681C15.9805 75.4581 15.3572 76.4288 14.6983 77.3288C14.3777 77.7916 14.0393 78.2454 13.6831 78.6908C13.3359 79.1536 12.9708 79.581 12.5968 80.0619C12.2228 80.5427 11.92 80.8633 11.5639 81.2463C11.2077 81.6293 10.9584 81.9228 10.6735 82.2615L9.85429 83.1073C9.56939 83.4015 9.27554 83.695 8.96385 83.9982L8.3316 83.2502C7.47676 82.217 6.66941 81.1545 5.90961 80.0619C5.58905 79.6081 5.27744 79.1717 4.96575 78.6728C4.65414 78.1746 4.387 77.7826 4.07532 77.2927C3.48762 76.322 2.93544 75.3249 2.42795 74.3188C2.16081 73.8201 1.92039 73.3215 1.67996 72.8139C1.43954 72.3063 1.208 71.7809 0.985409 71.2645C-1.67678 65.0769 -3.04633 58.4106 -3.03933 51.6747V51.0069L-1.98869 49.8671C-1.98869 49.8671 -1.98862 49.8671 -1.94407 49.8137C-1.65022 49.4843 -1.36532 49.1548 -1.05364 48.8164L-0.928947 48.6739L-0.608459 48.2999L-0.287895 47.917C-0.181038 47.7746 -0.0653076 47.6411 0.0415497 47.5075C0.148403 47.3739 0.13945 47.3739 0.192879 47.3204L1.00324 46.2787L1.08331 46.1629C1.57311 45.5218 2.04507 44.8628 2.49921 44.1949C2.67733 43.9456 2.85537 43.6874 3.02453 43.4292C3.2472 43.0997 3.46979 42.7614 3.68349 42.4141C3.89721 42.0668 4.2356 41.5236 4.49379 41.0873C4.75204 40.651 5.01918 40.1968 5.26848 39.7338C5.51778 39.2707 5.76709 38.8435 6.00751 38.3715C6.24794 37.8995 6.47948 37.481 6.70207 36.9734C6.92474 36.4659 7.06718 36.2166 7.23634 35.8336C7.32536 35.6556 7.40558 35.4775 7.47676 35.2994C7.64593 34.9165 7.81516 34.5337 7.96656 34.1508C8.35839 33.2604 8.72343 32.2897 9.05287 31.3459C9.13301 31.1143 9.21316 30.8917 9.28442 30.6513C9.35568 30.4109 9.38239 30.3842 9.42694 30.2417L9.58715 29.7519C9.74743 30.304 9.91659 30.8561 10.1035 31.3992C10.4508 32.4945 10.8516 33.5719 11.2879 34.6405C11.7242 35.709 12.2674 36.7241 12.7661 37.757H12.7304ZM19.293 78.0587L19.5513 78.3703C20.2191 79.1183 20.8958 79.8399 21.5992 80.5518C21.8396 80.8016 22.089 81.0416 22.3384 81.2817C22.3384 81.6293 22.2759 81.968 22.2314 82.3149C21.5394 88.1701 19.6997 93.8319 16.8175 98.9752C16.5504 99.447 16.2745 99.9188 15.9895 100.382C15.7045 100.845 15.4285 101.273 15.0991 101.718C15.0456 101.647 14.9921 101.584 14.9476 101.513L15.0901 101.718C13.3129 104.416 11.2499 106.915 8.93714 109.171C6.91766 106.812 5.15079 104.249 3.66566 101.522C3.39852 101.041 3.14026 100.551 2.89984 100.062C2.65942 99.5719 2.41019 99.0467 2.16977 98.5387C-0.236725 93.2103 -1.57978 87.4635 -1.78386 81.6203C-1.78386 81.1041 -1.78386 80.5871 -1.78386 80.0709V79.4742L-1.214 78.8692L-0.661888 78.2634L-0.572865 78.1566C-0.2523 77.7916 0.068264 77.4266 0.371071 77.0526L0.451138 76.9631L0.967651 77.8541C1.21703 78.2988 1.48402 78.7443 1.76011 79.1988C2.03613 79.6525 2.32109 80.089 2.65054 80.5427C4.11287 82.7822 5.75054 84.9027 7.54795 86.8833C7.6281 86.9811 7.71719 87.0699 7.79733 87.1587L8.68776 88.1648L8.76791 88.2543L9.81869 87.2926C9.88227 87.2407 9.94173 87.1843 9.99673 87.1233C10.2104 86.9367 10.4153 86.7403 10.6201 86.5447L11.2523 85.9389C12.9401 84.2684 14.511 82.4827 15.9538 80.5962C16.2922 80.1687 16.6217 79.706 16.9333 79.2876C17.2449 78.8692 17.5656 78.3974 17.8683 77.9782L18.4382 77.088C18.7855 77.4357 19.0526 77.7472 19.3287 78.0587H19.293ZM-5.88882 53.8563C-5.61145 60.8397 -3.9403 67.697 -0.973572 74.0249C-1.6503 74.9153 -2.35373 75.7343 -3.10171 76.5447C-3.48458 76.9631 -3.86745 77.3815 -4.26816 77.8006L-4.51746 78.0587C-5.30112 78.8511 -6.10245 79.6172 -6.93946 80.3471C-14.9663 87.4665 -25.1733 91.6489 -35.8879 92.208C-35.6321 82.5602 -32.2616 73.2548 -26.28 65.6814C-18.6951 63.2656 -11.7253 59.2309 -5.85315 53.8563H-5.88882ZM-16.6632 90.3109C-12.5791 88.3529 -8.77811 85.8516 -5.3635 82.8762C-5.12307 82.7694 -4.88258 82.6708 -4.63327 82.582C-4.29021 89.0588 -2.6299 95.3971 0.24638 101.21C-0.534111 102.197 -1.36637 103.143 -2.24695 104.042L-2.64758 104.469C-9.45807 111.343 -18.5629 115.463 -28.2212 116.045C-27.8926 106.276 -23.7271 97.03 -16.6275 90.3109H-16.6632ZM0.25526 105.68C0.442257 105.493 0.620373 105.298 0.789536 105.101C0.958694 104.906 0.985409 104.879 1.09226 104.772C1.19912 104.665 1.42171 104.398 1.57311 104.202C1.6306 104.152 1.68147 104.095 1.72451 104.033C3.443 106.998 5.47271 109.771 7.7795 112.305L8.77678 113.392L9.86324 112.385C12.5381 109.928 14.9277 107.177 16.9868 104.184L17.0936 104.309C17.4053 104.674 17.7169 105.031 18.0375 105.386C18.4915 105.876 18.9279 106.357 19.4177 106.811C19.5602 106.959 19.7026 107.102 19.8451 107.238C19.004 115.893 15.1496 123.977 8.95498 130.078C3.29182 123.349 0.194004 114.832 0.210709 106.037L0.25526 105.68ZM35.9265 87.1858C32.3913 85.4754 29.0976 83.3044 26.1316 80.7301C25.8912 80.5337 25.6419 80.3208 25.4104 80.107L24.885 79.6254C24.4398 79.2071 23.9945 78.7796 23.5671 78.3522C22.9082 77.6847 22.276 77.0083 21.6616 76.3137C21.2698 75.8592 20.8869 75.4227 20.5129 74.942L20.1211 74.4434C23.4656 68.5894 25.6428 62.1422 26.5323 55.4591C31.7283 59.798 37.7197 63.0827 44.1724 65.1293C50.2398 72.6619 53.7095 81.9544 54.0647 91.6203C47.7964 91.4156 41.6402 89.9053 35.9889 87.1858H35.9265ZM42.9255 61.6032C41.7681 61.1758 40.6281 60.7128 39.5061 60.1963C35.0543 58.1667 30.9306 55.4835 27.2712 52.2357C26.9597 51.9686 26.6572 51.6837 26.3809 51.4076C25.8912 50.9535 25.4014 50.5171 24.9206 50.0007L24.7336 49.8048L24.5556 49.6178L24.1637 49.217L23.7897 48.8164C23.3623 48.3623 22.9528 47.9259 22.5521 47.4273C21.9733 46.7683 21.4212 46.0828 20.887 45.3971L20.2725 44.5868C20.0647 44.3138 19.8688 44.0377 19.6848 43.7586C19.287 43.2065 18.9042 42.6455 18.5362 42.0757C18.18 41.5414 17.8416 40.9982 17.521 40.4551L16.9511 39.4756C16.7819 39.1818 16.6217 38.8791 16.4614 38.5852C16.3011 38.2914 16.1409 37.9886 15.9895 37.6948C15.6986 37.1427 15.4225 36.5817 15.1614 36.0118C14.5647 34.7384 14.0216 33.4473 13.5318 32.1206C13.3181 31.5507 13.1222 30.9808 12.9352 30.4109C12.8818 30.2595 12.8373 30.1081 12.7927 29.9568C12.7482 29.8054 12.6413 29.4759 12.5701 29.2355C12.0087 27.374 11.5626 25.4798 11.2344 23.5634C11.3146 23.1004 11.4037 22.6729 11.4837 22.1921C11.4837 22.0051 11.5461 21.827 11.5728 21.6489C11.653 21.1859 11.7153 20.7584 11.7776 20.2686C11.8399 19.7789 11.9112 19.1645 11.9735 18.6035C12.0359 18.0426 12.0803 17.5617 12.116 17.0364V16.9384L13.5051 17.0542C25.573 18.0652 36.8491 23.4744 45.1898 32.2539C53.5312 41.0335 58.3562 52.5714 58.7483 64.6752C54.3469 64.5468 49.9817 63.8373 45.7662 62.5649C44.8489 62.2621 43.8781 61.9327 42.9879 61.6032H42.9255Z" fill="white"/>
</mask>
<g mask="url(#mask1_168_3904)">
<path d="M61.7583 67.6226V66.1355C61.6619 53.0525 56.6962 40.4744 47.8295 30.8538C38.9628 21.2331 26.8303 15.2596 13.7989 14.0979L12.2941 13.9911C12.2941 13.5904 12.2941 13.1897 12.2941 12.789C12.2941 12.6555 12.2941 12.5219 12.2941 12.4506C12.2572 3.65066 10.1222 -5.01367 6.06643 -12.8233C2.01061 -20.6331 -3.84925 -27.363 -11.0267 -32.4546L-12.7363 -30.0593C-7.04797 -25.9929 -2.22309 -20.8383 1.45896 -14.894C5.14109 -8.94969 7.60725 -2.33391 8.71448 4.57017C9.13234 7.20329 9.34665 9.86466 9.3556 12.5308C9.3556 12.6198 9.3556 12.7088 9.3556 12.7978C9.3556 13.1718 9.3556 13.537 9.3556 13.902H9.0707C-4.86587 13.9421 -18.2189 19.5021 -28.0653 29.3652C-37.9116 39.2282 -43.4491 52.5907 -43.4656 66.5274V66.9102L-43.3944 68.3438H-41.9608C-38.1892 68.2647 -34.4355 67.7993 -30.7589 66.9548C-36.0011 74.8068 -38.7906 84.0403 -38.7729 93.4812V93.8371L-38.7017 95.2797H-37.2592C-32.3345 95.1721 -27.4514 94.3503 -22.7627 92.8401C-28.1803 99.8624 -31.1148 108.485 -31.1062 117.354C-31.1062 117.461 -31.1062 117.559 -31.1062 117.666L-31.0439 119.099H-29.6103C-19.617 118.904 -10.0189 115.16 -2.53184 108.539C-1.98831 117.736 1.69561 126.468 7.90418 133.275L8.90147 134.352L9.98778 133.364C16.8076 127.161 21.2798 118.795 22.65 109.678C29.8215 115.455 38.7566 118.598 47.965 118.583H49.4436V117.104C49.4052 108.128 46.3682 99.4214 40.8155 92.3683C45.6051 93.9124 50.6077 94.6972 55.6412 94.692H57.1191V93.0982C57.0551 83.5557 54.1339 74.251 48.731 66.3848C52.5311 67.2333 56.4133 67.6604 60.3067 67.6583L61.7583 67.6226ZM46.4246 115.502C37.7551 115.176 29.4716 111.831 23.0062 106.046L22.4808 105.565C22.1068 105.226 21.7417 104.861 21.3766 104.496C21.0115 104.131 20.6643 103.766 20.317 103.383C19.9697 103 19.6314 102.617 19.3109 102.225C19.2115 102.122 19.1192 102.012 19.0348 101.896C18.9417 101.789 18.8555 101.676 18.7766 101.558C22.0579 96.0758 24.199 89.9881 25.072 83.6596C27.9199 86.0111 31.03 88.0256 34.3417 89.6615C37.959 92.9597 40.8892 96.9404 42.9631 101.375C45.037 105.81 46.2131 110.611 46.4246 115.502ZM9.02616 16.8316H9.16868C9.16424 16.8701 9.16424 16.9089 9.16868 16.9473C9.16868 17.3926 9.08847 17.8378 9.044 18.3009C9.04836 18.3809 9.04836 18.4612 9.044 18.5413C9.044 18.9241 8.9549 19.3159 8.91035 19.6988L8.83029 20.2776L8.66993 21.2927C8.66993 21.542 8.58979 21.8003 8.54524 22.0585C8.50077 22.3167 8.40279 22.8421 8.32265 23.2339V23.3674C8.26034 23.679 8.19804 23.9907 8.1179 24.2579C7.99321 24.8188 7.85971 25.3887 7.71719 25.9408C7.646 26.2436 7.56579 26.5403 7.47676 26.8313C6.98343 28.6615 6.38887 30.463 5.6959 32.2274C5.24176 33.3583 4.75197 34.4713 4.23553 35.5666L3.78139 36.457C3.64782 36.742 3.50538 37.009 3.35397 37.285C3.06908 37.8283 2.77523 38.3715 2.46354 38.9058C2.15193 39.44 1.84032 39.9831 1.5108 40.5084C0.860793 41.5503 0.183997 42.5744 -0.546152 43.5628C-1.43064 44.7797 -2.37156 45.967 -3.36892 47.1246C-3.98326 47.8369 -4.62432 48.5403 -5.28328 49.217C-5.31098 49.2596 -5.34393 49.2985 -5.38118 49.3329L-5.64839 49.6089C-6.39638 50.3658 -7.16212 51.1048 -7.9457 51.7994C-12.0426 55.5115 -16.7046 58.5473 -21.7565 60.7929C-22.8963 61.3004 -24.0628 61.7724 -25.2382 62.1909C-26.1108 62.5115 -27.0012 62.8083 -27.9095 63.0814C-31.9926 64.3182 -36.2123 65.0478 -40.4737 65.254C-40.1267 52.3286 -34.762 40.046 -25.5158 31.0075C-16.2696 21.9691 -3.86813 16.8847 9.06183 16.8316H9.02616ZM12.7304 37.757C12.9798 38.2824 13.238 38.79 13.4962 39.2975C13.7634 39.805 14.0394 40.3038 14.3155 40.8024C14.3155 40.8024 14.3154 40.8647 14.3688 40.8914C14.636 41.3634 14.9121 41.7818 15.1881 42.2894L16.0785 43.6518C16.0785 43.6518 16.0785 43.723 16.1497 43.7497C16.4614 44.2305 16.7819 44.7114 17.1203 45.1833L17.5121 45.7443L17.9038 46.2964C17.9484 46.2964 17.9751 46.3855 18.0196 46.4389C18.0641 46.4923 18.0998 46.528 18.1354 46.5814C18.4738 47.0444 18.83 47.4718 19.195 47.9527V48.015L19.2484 48.0773C19.5334 48.4394 19.8302 48.7956 20.1389 49.1459L20.3349 49.3863L20.8513 49.9739L21.4033 50.5706C21.7952 50.998 22.1958 51.4611 22.5965 51.8351C22.9972 52.2091 23.4157 52.6542 23.8343 53.0549C23.2167 59.6018 21.2973 65.9594 18.1889 71.7543C17.9306 72.244 17.6635 72.7249 17.3785 73.1968C17.0935 73.6687 16.8442 74.0872 16.5682 74.5681C15.9805 75.4581 15.3572 76.4288 14.6983 77.3288C14.3777 77.7916 14.0393 78.2454 13.6831 78.6908C13.3359 79.1536 12.9708 79.581 12.5968 80.0619C12.2228 80.5427 11.92 80.8633 11.5639 81.2463C11.2077 81.6293 10.9584 81.9228 10.6734 82.2615L9.85429 83.1073C9.56939 83.4015 9.27554 83.695 8.96385 83.9982L8.3316 83.2502C7.47677 82.2171 6.66941 81.1545 5.90961 80.0619C5.58905 79.6081 5.27744 79.1717 4.96575 78.6728C4.65414 78.1746 4.38701 77.7826 4.07532 77.2927C3.48762 76.322 2.93543 75.3249 2.42795 74.3188C2.16081 73.8201 1.92039 73.3215 1.67996 72.8139C1.43954 72.3063 1.208 71.7809 0.985409 71.2645C-1.67678 65.0769 -3.04633 58.4106 -3.03933 51.6747V51.0069L-1.98869 49.8671C-1.98869 49.8671 -1.98862 49.8671 -1.94407 49.8137C-1.65022 49.4843 -1.36532 49.1548 -1.05364 48.8164L-0.928947 48.6739L-0.608458 48.2999L-0.287894 47.917C-0.181039 47.7746 -0.065307 47.6411 0.0415478 47.5075C0.148403 47.3739 0.13945 47.3739 0.192878 47.3204L1.00324 46.2787L1.08331 46.1629C1.57311 45.5217 2.04507 44.8628 2.49921 44.1949C2.67732 43.9456 2.85537 43.6874 3.02453 43.4292C3.2472 43.0997 3.46979 42.7614 3.6835 42.4141C3.89721 42.0668 4.2356 41.5236 4.49378 41.0873C4.75204 40.651 5.01918 40.1968 5.26848 39.7338C5.51778 39.2707 5.76709 38.8435 6.00751 38.3715C6.24793 37.8995 6.47948 37.481 6.70207 36.9734C6.92474 36.4659 7.06718 36.2166 7.23634 35.8336C7.32536 35.6556 7.40558 35.4775 7.47676 35.2994C7.64593 34.9165 7.81516 34.5337 7.96656 34.1508C8.35839 33.2604 8.72343 32.2897 9.05287 31.3459C9.13301 31.1143 9.21316 30.8917 9.28442 30.6513C9.35568 30.4109 9.38239 30.3842 9.42694 30.2417L9.58715 29.7519C9.74743 30.304 9.91659 30.8561 10.1035 31.3992C10.4508 32.4945 10.8516 33.5719 11.2879 34.6405C11.7242 35.709 12.2674 36.7241 12.7661 37.757H12.7304ZM19.293 78.0587L19.5513 78.3703C20.2191 79.1183 20.8958 79.8399 21.5992 80.5518C21.8396 80.8016 22.089 81.0416 22.3384 81.2817C22.3384 81.6294 22.2759 81.968 22.2314 82.3149C21.5394 88.1701 19.6997 93.8319 16.8175 98.9752C16.5504 99.447 16.2745 99.9188 15.9895 100.382C15.7045 100.845 15.4285 101.273 15.0991 101.718C15.0456 101.647 14.9921 101.584 14.9476 101.513L15.0901 101.718C13.3129 104.416 11.2499 106.915 8.93714 109.171C6.91766 106.812 5.15079 104.249 3.66566 101.522C3.39852 101.041 3.14026 100.551 2.89984 100.062C2.65942 99.5719 2.41019 99.0467 2.16977 98.5387C-0.236725 93.2103 -1.57978 87.4635 -1.78386 81.6203C-1.78386 81.1041 -1.78386 80.5871 -1.78386 80.0709V79.4742L-1.214 78.8692L-0.661887 78.2634L-0.572866 78.1566C-0.252301 77.7916 0.0682648 77.4266 0.37107 77.0526L0.451136 76.9631L0.967652 77.8541C1.21703 78.2988 1.48402 78.7443 1.76011 79.1988C2.03613 79.6525 2.32109 80.089 2.65054 80.5427C4.11287 82.7822 5.75054 84.9027 7.54795 86.8833C7.6281 86.9811 7.71718 87.0699 7.79733 87.1587L8.68776 88.1648L8.76791 88.2543L9.81869 87.2926C9.88228 87.2407 9.94173 87.1843 9.99673 87.1233C10.2104 86.9367 10.4153 86.7403 10.6201 86.5447L11.2523 85.9389C12.9401 84.2684 14.511 82.4827 15.9538 80.5962C16.2922 80.1687 16.6217 79.706 16.9333 79.2876C17.2449 78.8692 17.5656 78.3974 17.8683 77.9782L18.4382 77.088C18.7855 77.4357 19.0526 77.7472 19.3287 78.0587H19.293ZM-5.88882 53.8563C-5.61145 60.8397 -3.9403 67.697 -0.973572 74.0249C-1.65029 74.9153 -2.35373 75.7343 -3.10171 76.5447C-3.48458 76.9631 -3.86745 77.3815 -4.26816 77.8006L-4.51746 78.0587C-5.30112 78.8511 -6.10245 79.6172 -6.93946 80.3471C-14.9663 87.4665 -25.1733 91.6489 -35.8879 92.208C-35.6321 82.5602 -32.2616 73.2548 -26.28 65.6814C-18.6951 63.2656 -11.7253 59.2309 -5.85315 53.8563H-5.88882ZM-16.6632 90.3109C-12.5791 88.3529 -8.77811 85.8516 -5.3635 82.8762C-5.12307 82.7694 -4.88258 82.6708 -4.63327 82.582C-4.29021 89.0588 -2.6299 95.3971 0.246379 101.21C-0.534113 102.197 -1.36638 103.143 -2.24695 104.042L-2.64758 104.469C-9.45807 111.343 -18.5629 115.463 -28.2212 116.045C-27.8926 106.276 -23.7271 97.03 -16.6275 90.3109H-16.6632ZM0.255261 105.68C0.442257 105.493 0.620372 105.298 0.789534 105.101C0.958696 104.906 0.985408 104.879 1.09226 104.772C1.19912 104.665 1.42171 104.398 1.57311 104.202C1.6306 104.152 1.68147 104.095 1.72451 104.033C3.443 106.998 5.47271 109.771 7.77949 112.305L8.77678 113.392L9.86324 112.385C12.5381 109.928 14.9277 107.177 16.9868 104.184L17.0936 104.309C17.4053 104.674 17.7169 105.031 18.0375 105.386C18.4915 105.876 18.9279 106.357 19.4177 106.811C19.5602 106.959 19.7026 107.102 19.8451 107.238C19.004 115.893 15.1496 123.977 8.95497 130.078C3.29182 123.349 0.194004 114.832 0.21071 106.037L0.255261 105.68ZM35.9265 87.1858C32.3913 85.4754 29.0976 83.3044 26.1316 80.7301C25.8912 80.5337 25.6419 80.3208 25.4104 80.107L24.885 79.6254C24.4398 79.2071 23.9945 78.7796 23.5671 78.3522C22.9082 77.6847 22.276 77.0083 21.6616 76.3137C21.2698 75.8592 20.8869 75.4227 20.5129 74.942L20.1211 74.4434C23.4656 68.5894 25.6428 62.1422 26.5323 55.4591C31.7283 59.798 37.7197 63.0827 44.1724 65.1293C50.2398 72.6619 53.7095 81.9544 54.0647 91.6203C47.7964 91.4156 41.6402 89.9053 35.9889 87.1858H35.9265ZM42.9255 61.6032C41.7681 61.1757 40.6281 60.7128 39.5061 60.1963C35.0543 58.1667 30.9306 55.4835 27.2712 52.2357C26.9597 51.9685 26.6572 51.6837 26.3809 51.4076C25.8912 50.9535 25.4014 50.5171 24.9206 50.0007L24.7336 49.8048L24.5556 49.6178L24.1637 49.217L23.7897 48.8164C23.3623 48.3623 22.9528 47.9259 22.5521 47.4273C21.9733 46.7683 21.4212 46.0828 20.887 45.3971L20.2725 44.5868C20.0647 44.3138 19.8688 44.0377 19.6848 43.7586C19.287 43.2065 18.9042 42.6455 18.5362 42.0757C18.18 41.5414 17.8416 40.9982 17.521 40.4551L16.9511 39.4756C16.7819 39.1818 16.6217 38.8791 16.4614 38.5852C16.3011 38.2914 16.1409 37.9886 15.9895 37.6948C15.6986 37.1427 15.4225 36.5817 15.1614 36.0118C14.5647 34.7384 14.0216 33.4473 13.5318 32.1206C13.3181 31.5507 13.1222 30.9808 12.9352 30.4109C12.8818 30.2595 12.8373 30.1081 12.7927 29.9568C12.7482 29.8054 12.6413 29.4759 12.5701 29.2355C12.0087 27.374 11.5626 25.4798 11.2344 23.5634C11.3146 23.1004 11.4037 22.6729 11.4837 22.1921C11.4837 22.0051 11.5461 21.827 11.5728 21.6489C11.653 21.1859 11.7153 20.7584 11.7776 20.2686C11.8399 19.7789 11.9112 19.1645 11.9735 18.6035C12.0359 18.0426 12.0803 17.5617 12.116 17.0364V16.9384L13.5051 17.0542C25.573 18.0652 36.8491 23.4744 45.1898 32.2539C53.5312 41.0335 58.3562 52.5714 58.7483 64.6752C54.3469 64.5468 49.9817 63.8373 45.7662 62.5649C44.8489 62.2621 43.8781 61.9327 42.9879 61.6032H42.9255Z" stroke="#F0E6CB" stroke-width="4.20104"/>
</g>
<path d="M9.65015 77.0164H9.81931L9.65015 77.0073V77.0164Z" fill="#F0E6CB"/>
<mask id="mask2_168_3904" style="mask-type:luminance" maskUnits="userSpaceOnUse" x="9" y="77" width="1" height="1">
<path d="M9.65015 77.0164H9.81931L9.65015 77.0073V77.0164Z" fill="white"/>
</mask>
<g mask="url(#mask2_168_3904)">
<path d="M9.65019 77.0162H8.75977V77.9065H9.65019V77.0162ZM9.81936 77.0162V77.9065L9.86616 76.1268L9.81936 77.0162ZM9.65019 77.0072L9.69693 76.1178L8.75977 76.0688V77.0072H9.65019ZM9.65019 77.9065H9.81936V76.126H9.65019V77.9065ZM9.86616 76.1268L9.69693 76.1178L9.60339 77.8967L9.77263 77.9057L9.86616 76.1268ZM8.75977 77.0072V77.0162H10.5406V77.0072H8.75977Z" fill="#F0E6CB"/>
</g>
</g>
<path d="M53.9059 45.9045C53.3633 67.4265 51.8049 95.9741 47.4953 111.175C41.1818 133.542 36.925 147.282 40.5671 180.905C41.0035 184.956 41.5558 189.293 42.2323 193.977C42.4513 195.836 42.0006 197.712 40.9614 199.269C39.9214 200.826 38.3615 201.961 36.56 202.472C28.9199 204.938 18.8047 206.434 7.7098 206.434C-0.906686 206.508 -9.49835 205.5 -17.8638 203.433C-22.0399 202.329 -24.6401 198.616 -24.0969 194.752C-23.3044 189.319 -22.6811 184.36 -22.2092 179.765C-18.7809 146.97 -23.0017 133.293 -29.2615 111.201C-33.4822 96.2766 -35.0405 68.4594 -35.6193 47.0887C-35.8686 37.4453 -35.9131 29.1018 -35.9131 23.8392C-35.8609 22.1007 -35.2445 20.4265 -34.157 19.0692C-33.0695 17.7118 -31.57 16.7451 -29.8848 16.315C-19.6714 13.2964 -6.59077 11.4709 7.68308 11.4709C23.533 11.4709 37.9581 13.7148 48.5458 17.3568C50.1358 17.8476 51.5317 18.8264 52.5356 20.1544C53.5394 21.4823 54.0992 23.0923 54.1376 24.7564C54.1647 29.8142 54.1113 37.2938 53.9059 45.9045Z" stroke="#F0E6CB" stroke-width="3.56178" stroke-miterlimit="10"/>
</svg>
