<svg width="24" height="26" viewBox="0 0 24 26" fill="none" xmlns="http://www.w3.org/2000/svg">
<path d="M23.9999 12.9903V8.90541H23.9937V6.71889C23.9929 5.95207 23.7525 5.20467 23.3059 4.58127C22.8595 3.95791 22.2291 3.48972 21.5034 3.24232L11.991 0L2.49061 3.23606C1.76147 3.48453 1.12849 3.95586 0.681863 4.5835C0.234976 5.21113 -0.00358633 5.96329 0.000290657 6.73372L0.0315656 12.9903L0.000290657 19.2469C-0.00332786 20.0174 0.234976 20.7697 0.681863 21.3974C1.12875 22.0251 1.76147 22.4966 2.49061 22.7454L11.9879 25.9814L21.501 22.7399C22.2268 22.4925 22.8569 22.0243 23.3036 21.4009C23.7502 20.7775 23.9906 20.0301 23.9913 19.2633V17.0768H23.9975L23.9999 12.9903Z" fill="#E9DCBC"/>
<path d="M23.3413 12.9904V9.12959V7.06176C23.3407 6.33694 23.1135 5.63045 22.6917 5.0412C22.2697 4.45195 21.6739 4.00948 20.9877 3.7757L11.9964 0.711426L3.01602 3.77022C2.32669 4.00517 1.7286 4.45076 1.30601 5.04402C0.883679 5.6373 0.658298 6.34829 0.661658 7.07659L0.692156 12.9904L0.661658 18.9041C0.658298 19.6324 0.883679 20.3434 1.30601 20.9367C1.7286 21.5299 2.32669 21.9755 3.01602 22.2105L11.9964 25.2692L20.9877 22.205C21.6739 21.9715 22.2697 21.5291 22.6917 20.94C23.1138 20.3509 23.341 19.6444 23.3413 18.9197V16.8512H23.3477L23.3413 12.9904Z" fill="#095424"/>
<path d="M12.0687 21.0063C13.8172 20.9864 15.4877 20.2787 16.7185 19.0365C17.949 17.7942 18.6412 16.1173 18.6446 14.3686V14.3155L18.6337 14.0469L18.3644 14.0531C17.9625 14.0632 17.5624 14.1071 17.1679 14.1844C17.7547 13.2327 18.0648 12.1365 18.0638 11.0186V10.9686L18.0519 10.7007L17.7841 10.707C17.253 10.7184 16.7252 10.7955 16.2129 10.9365C16.7999 10.0875 17.1132 9.07934 17.1111 8.04719V8.00351L17.0992 7.73563L16.8314 7.74109C15.628 7.76476 14.468 8.19464 13.5399 8.96086C13.4354 7.8606 12.9759 6.82418 12.2302 6.00828L12.0452 5.80603L11.8423 5.99032C11.0175 6.74119 10.4626 7.74251 10.2633 8.83985C9.3752 8.16797 8.29146 7.80537 7.17798 7.80749H6.90142V8.08391C6.90453 9.12667 7.22812 10.1433 7.82828 10.9959C7.30463 10.853 6.76418 10.7805 6.2214 10.7804H5.94485V11.0576C5.95105 12.1898 6.27594 13.2974 6.88204 14.2538C6.47186 14.1764 6.05547 14.1375 5.63804 14.1375H5.36304V14.4139C5.37389 16.0658 6.00041 17.6542 7.12009 18.8688C8.23976 20.0834 9.77195 20.837 11.4173 20.9821C11.4509 20.9821 11.4845 20.9883 11.5197 20.9891V21.1016C11.522 21.4521 11.551 21.8019 11.6063 22.148C11.7973 23.3485 12.2969 24.4788 13.0565 25.4278L13.4993 25.1029C12.581 23.9688 12.0769 22.5554 12.0702 21.0961V21.0555C12.0689 21.0391 12.0684 21.0227 12.0687 21.0063ZM18.0917 14.6115C18.0261 16.1666 17.3688 17.6378 16.2543 18.7243C15.1398 19.8108 13.6523 20.4304 12.0961 20.4565V20.4511C12.0999 20.4027 12.1046 20.3542 12.1108 20.3066C12.1193 20.2285 12.1289 20.1543 12.1413 20.0786C12.146 20.0419 12.1522 20.0052 12.1586 19.9693C12.1695 19.9021 12.1819 19.8357 12.1953 19.7701C12.1961 19.7613 12.1982 19.7526 12.2015 19.7443C12.2108 19.6952 12.2209 19.6483 12.232 19.6007C12.2377 19.5752 12.2439 19.5491 12.2506 19.5226C12.2568 19.4976 12.2654 19.4609 12.2734 19.4304C12.2811 19.4 12.2858 19.3804 12.2928 19.3523C12.3295 19.218 12.3708 19.0861 12.414 18.9549C12.4365 18.8877 12.4608 18.8221 12.4864 18.7558C12.499 18.7206 12.5122 18.6847 12.5272 18.6495C12.5709 18.5418 12.6146 18.4356 12.6652 18.3301C12.6942 18.2669 12.7239 18.2052 12.7567 18.1427C12.8074 18.0412 12.8629 17.9405 12.919 17.8405C12.9503 17.7851 12.9831 17.7304 13.0175 17.675C13.1041 17.5321 13.1987 17.3931 13.2964 17.2572C13.3861 17.1346 13.4799 17.0159 13.5766 16.8995C13.5916 16.8824 13.6055 16.8644 13.6202 16.8487C13.7071 16.7488 13.7944 16.6504 13.8867 16.5559L13.9242 16.5169C13.9506 16.4903 13.9764 16.4638 14.0023 16.4388C14.6164 15.8336 15.3463 15.3585 16.148 15.0418C16.3199 14.9738 16.4957 14.9129 16.6738 14.8606C17.1356 14.7241 17.6112 14.6392 18.0917 14.6076V14.6115ZM17.5083 11.2638C17.4574 12.3997 17.0537 13.4915 16.3535 14.3874C15.4701 14.6747 14.6533 15.1362 13.9513 15.7446C13.8973 14.9478 13.6988 14.1675 13.3657 13.4417C13.4807 13.2972 13.6047 13.1574 13.7345 13.0223L13.7702 12.9864C13.8609 12.8935 13.9555 12.8045 14.0514 12.7201C15.0098 11.8636 16.2261 11.3507 17.5083 11.2622V11.2638ZM13.2134 10.0572C13.301 9.95417 13.3876 9.85425 13.4814 9.7574L13.5132 9.72458C14.3225 8.90049 15.4021 8.39612 16.5533 8.30413C16.4882 9.45177 15.9896 10.5319 15.1586 11.3262C14.667 11.5627 14.2083 11.8619 13.7937 12.2164C13.7363 11.4673 13.5391 10.7355 13.2126 10.0588L13.2134 10.0572ZM12.299 11.8065C12.278 11.7831 12.2553 11.7596 12.2344 11.7354L12.1193 11.6089L12.0837 11.5699L12.0493 11.5324L11.8601 11.7065L11.8454 11.7206C11.8056 11.7573 11.7673 11.794 11.7259 11.8323C11.6846 11.8705 11.6618 11.8939 11.6313 11.9267C11.4453 12.1119 11.2705 12.3083 11.1082 12.5147C11.0464 12.5928 10.9857 12.671 10.9278 12.7561C10.8942 12.8021 10.8614 12.849 10.8301 12.8958L10.813 12.8771C10.7779 12.8342 10.7412 12.7943 10.7053 12.7537L10.6975 12.7467C10.6771 12.7232 10.6577 12.703 10.6357 12.6795L10.5786 12.6186C10.5373 12.5757 10.4959 12.5358 10.4538 12.4945C10.4592 12.4437 10.4646 12.3922 10.4719 12.3383C10.5556 11.6976 10.7523 11.0768 11.0526 10.5047C11.1005 10.4126 11.1519 10.322 11.209 10.2322C11.2659 10.1424 11.3127 10.0635 11.369 9.98074C11.5603 9.6978 11.7776 9.43324 12.018 9.19046C12.2269 9.4437 12.4122 9.71553 12.5716 10.0026C12.6231 10.0932 12.6706 10.1845 12.7154 10.2767C12.7598 10.3689 12.8089 10.4743 12.8495 10.575C13.0948 11.1625 13.2354 11.7883 13.2651 12.4242C13.269 12.5116 13.2705 12.5991 13.2705 12.6889V12.7209C13.23 12.7647 13.1886 12.8107 13.1496 12.8552C13.133 12.8732 13.116 12.8919 13.101 12.9107C13.0762 12.8623 13.048 12.8146 13.0229 12.7685C12.9715 12.6834 12.9183 12.5999 12.8668 12.5187C12.7006 12.2689 12.5181 12.0304 12.3202 11.8049C12.3202 11.794 12.3264 11.7831 12.3287 11.7721C12.3163 11.7795 12.3062 11.7901 12.299 11.8026V11.8065ZM12.0069 6.59161C12.6569 7.40053 13.0103 8.40744 13.009 9.44505V9.45205C12.9963 9.46534 12.9831 9.48017 12.9707 9.49578C12.9581 9.51142 12.9449 9.52391 12.9325 9.53954C12.7296 9.20475 12.4941 8.89087 12.2294 8.60245L12.0444 8.3986L11.8415 8.58449C11.53 8.86872 11.2488 9.18459 11.0028 9.52703C10.9247 9.43489 10.8381 9.34665 10.7497 9.25996C10.8593 8.25399 11.3018 7.3134 12.0069 6.58771V6.59161ZM7.46049 8.35567C8.5127 8.41974 9.50986 8.84701 10.2819 9.56451C10.4166 9.69025 10.5435 9.82375 10.6624 9.96433L10.6952 10.0026C10.3245 10.6341 10.0733 11.3284 9.95391 12.0509C9.63237 11.7994 9.28577 11.5812 8.92004 11.3996C8.05961 10.611 7.53674 9.52049 7.46049 8.35567ZM6.50391 11.3286C7.73343 11.388 8.90712 11.8589 9.83682 12.6655C9.85311 12.6811 9.87042 12.6957 9.88852 12.7092L9.97743 12.792C10.171 12.9718 10.3517 13.1652 10.5179 13.3707C10.5192 13.3738 10.521 13.3767 10.5233 13.3792C10.1447 14.0551 9.88903 14.7928 9.76807 15.5579C9.14827 15.0666 8.44524 14.6905 7.69259 14.4475C6.9831 13.5571 6.56775 12.4683 6.50391 11.3317V11.3286ZM11.6463 19.7069C11.6368 19.7506 11.6298 19.7943 11.622 19.8381C11.6174 19.8631 11.6135 19.888 11.6096 19.9162C11.6001 19.9685 11.5931 20.0192 11.5861 20.0723C11.5791 20.1254 11.5703 20.1918 11.5626 20.2512V20.2559C11.5556 20.3168 11.5494 20.3753 11.544 20.4363C11.5181 20.4363 11.4907 20.4323 11.4659 20.43C10.0028 20.3075 8.63392 19.6577 7.61402 18.6015C6.59411 17.5453 5.99266 16.1545 5.92132 14.688C6.41913 14.7109 6.91254 14.794 7.39018 14.9355C7.57861 14.9918 7.76289 15.0574 7.94407 15.1285C8.62487 15.4056 9.24984 15.8041 9.78849 16.3045L9.87275 16.3826C10.0149 16.5195 10.1496 16.6624 10.2765 16.8113C10.3406 16.8894 10.4023 16.9628 10.4623 17.0409C10.514 17.1065 10.5631 17.1713 10.6107 17.2408C10.6357 17.2751 10.66 17.3095 10.6825 17.3431L10.7513 17.4469C10.774 17.4821 10.795 17.518 10.8177 17.5524C10.8404 17.5867 10.8614 17.6226 10.8826 17.6585C10.9263 17.7304 10.9661 17.803 11.0051 17.8764C11.0255 17.9131 11.0449 17.9498 11.0638 17.9857C11.102 18.0599 11.1418 18.1357 11.1731 18.2107L11.2245 18.3239C11.2418 18.3621 11.2574 18.402 11.2729 18.4387C11.2886 18.4754 11.3049 18.5168 11.3191 18.5535C11.3331 18.5902 11.3494 18.6316 11.3628 18.6698C11.4065 18.7862 11.4455 18.9041 11.4814 19.0244C11.5174 19.1446 11.5525 19.2766 11.5822 19.4047C11.5892 19.439 11.597 19.4726 11.604 19.5069C11.6182 19.571 11.6306 19.6374 11.6422 19.703L11.6463 19.7069ZM11.94 18.6441C11.9358 18.6331 11.9327 18.6214 11.9281 18.6105C11.911 18.5589 11.8921 18.509 11.8735 18.459C11.8547 18.409 11.8265 18.3356 11.8017 18.2739C11.7766 18.2122 11.7557 18.1607 11.7306 18.1053C11.7306 18.1053 11.7267 18.0967 11.7244 18.0935C11.6986 18.0326 11.6704 17.9733 11.6463 17.9139C11.622 17.8546 11.5884 17.7968 11.5595 17.7398C11.5305 17.6828 11.4988 17.6234 11.4659 17.5656C11.4331 17.5078 11.4018 17.4501 11.3682 17.3907C11.3346 17.3314 11.3018 17.2806 11.2674 17.2252C11.2646 17.223 11.2628 17.22 11.262 17.2166L11.1651 17.0674C11.148 17.0448 11.1325 17.0214 11.1175 16.9987C11.1121 16.9927 11.1074 16.9862 11.1036 16.9792L11.0901 16.9604C11.0754 16.9378 11.0591 16.9167 11.0433 16.8949C11.0121 16.8511 10.9785 16.8042 10.9449 16.7605L10.8818 16.6824C10.7895 16.563 10.6921 16.4482 10.5921 16.3365C10.528 16.2639 10.4608 16.1936 10.3928 16.1233C10.353 16.0827 10.3147 16.0413 10.2695 16.0015C10.3434 15.2632 10.5525 14.5448 10.8864 13.8821C10.9325 13.7892 10.9816 13.6963 11.034 13.6065C11.0862 13.5167 11.1348 13.4339 11.1901 13.3496L11.2465 13.4276L11.1909 13.3496C11.2434 13.2715 11.2987 13.1856 11.355 13.1059C11.4111 13.0262 11.4791 12.9349 11.5455 12.8521C11.5595 12.8334 11.5729 12.8162 11.5892 12.7974C11.6438 12.7303 11.7009 12.6631 11.758 12.5968C11.8017 12.546 11.8485 12.4968 11.896 12.4476C11.896 12.4648 11.896 12.4819 11.8914 12.4984L11.8976 12.446C11.9379 12.4023 11.9792 12.3586 12.0219 12.3149C12.0687 12.3711 12.1131 12.4281 12.1568 12.4851C12.1607 12.4888 12.1643 12.4927 12.1679 12.4968C12.1912 12.5272 12.2155 12.5593 12.239 12.5913C12.3028 12.678 12.3646 12.7662 12.4233 12.8552C12.4817 12.9443 12.5349 13.0263 12.5848 13.1137C12.635 13.2012 12.6856 13.2879 12.7324 13.3777C12.7792 13.4675 12.827 13.5635 12.8707 13.6588C12.9144 13.7541 12.9604 13.8603 13.0012 13.9633C13.284 14.6772 13.429 15.4382 13.4282 16.2061V16.2522L13.3323 16.3552C13.3251 16.3646 13.3165 16.3724 13.3096 16.3818C13.2698 16.4255 13.2315 16.4692 13.1925 16.5169C13.1894 16.5195 13.1865 16.5224 13.1837 16.5255C13.1488 16.5692 13.1137 16.6121 13.0785 16.6535L13.0604 16.6762L13.0418 16.6996C13.0105 16.7394 12.9777 16.7777 12.948 16.8215C12.9182 16.8652 12.8903 16.8995 12.8606 16.9355C12.8417 16.9612 12.8231 16.987 12.805 17.0135C12.6115 17.287 12.438 17.5741 12.2858 17.8725C12.2654 17.9124 12.2452 17.9506 12.2263 17.9928C12.2077 18.035 12.1927 18.0607 12.1772 18.0951C12.1617 18.1295 12.1398 18.1732 12.1227 18.2177C12.0594 18.3606 12.0007 18.5019 11.95 18.6472L11.94 18.6441Z" fill="#E9DCBC"/>
</svg>
