<svg width="238" height="150" viewBox="0 0 238 150" fill="none" xmlns="http://www.w3.org/2000/svg">
<g clip-path="url(#clip0_166_3670)">
<path d="M48.9322 42.0696L49.2541 41.9512L49.0043 44.541H40.7651L40.8836 44.2764C41.1186 43.69 41.1925 42.3527 41.1925 41.6775V37.0919C41.1925 36.4167 41.1186 35.0572 40.8836 34.4782L40.7651 34.2136H48.6084L48.8582 36.8125L48.5196 36.6812C47.9183 36.4463 46.5527 36.3872 45.8478 36.3872H43.6442V38.2757H45.1133C45.7886 38.2757 47.1689 38.2314 47.7554 37.9964L48.0644 37.878V40.8747L47.7554 40.7563C47.1541 40.5214 45.8034 40.4621 45.1133 40.4621H43.6442V42.3452H46.2585C46.9613 42.3501 47.6633 42.3013 48.3586 42.1991C48.5544 42.1798 48.7471 42.1363 48.9322 42.0696Z" fill="#101512"/>
<path d="M55.7477 41.6295C55.7477 41.3798 55.5276 41.1449 55.102 40.9248C54.6468 40.675 54.0585 40.4401 53.4276 40.1608C52.2082 39.617 50.8723 38.7957 50.8723 37.166C50.8723 35.0222 52.7818 34.1121 54.8078 34.1121C55.6706 34.1036 56.5289 34.2373 57.3482 34.5079L57.4814 34.5523V37.0624L57.1577 36.8868C56.4302 36.5102 55.6267 36.3039 54.8078 36.2837C54.3971 36.2837 53.3276 36.4169 53.3276 36.9885C53.3276 37.2351 53.5478 37.4848 53.9881 37.7376C55.2963 38.4775 58.2178 39.088 58.2178 41.7905C58.2178 43.7734 56.1474 44.6391 54.3323 44.6391C53.2915 44.6228 52.2639 44.4035 51.3071 43.9936L51.2035 43.9343V41.1005L51.5569 41.3946C52.2619 41.981 53.3923 42.4508 54.3027 42.4508C54.6451 42.4614 54.9859 42.3984 55.3018 42.2658C55.4316 42.217 55.5437 42.1302 55.6232 42.0166C55.7028 41.9031 55.7462 41.7681 55.7477 41.6295Z" fill="#101512"/>
<path d="M61.8707 41.6719V36.3872C61.1215 36.3872 59.9762 36.4907 59.4341 36.6812L59.0955 36.8125L59.3453 34.2136H66.8496L67.1141 36.8125L66.7761 36.6812C66.2488 36.474 65.0736 36.3872 64.324 36.3872V41.6719C64.324 42.3471 64.3981 43.6845 64.6333 44.2709L64.7497 44.5353H61.4749L61.5784 44.2709C61.6422 44.0902 61.6911 43.9046 61.7246 43.716C61.826 43.0394 61.8744 42.356 61.8707 41.6719Z" fill="#101512"/>
<path d="M169.368 41.2354C168.895 41.5547 168.46 41.927 168.072 42.3452H169.511C170.202 42.3452 171.567 42.3028 172.171 42.0678L172.507 41.9494L172.245 44.5391H165.165V43.4551C165.165 41.8107 166.461 40.7674 167.632 39.9017C167.941 39.6816 168.235 39.4763 168.513 39.2561C169.101 38.8288 169.952 38.1463 169.952 37.3768C169.952 36.6369 169.437 36.2022 168.616 36.2022C167.706 36.2022 166.618 36.7312 165.957 37.362L165.587 37.7134V34.924L165.689 34.8648C166.59 34.3872 167.593 34.1334 168.612 34.1249C170.727 34.1249 172.402 35.2255 172.402 37.2806C172.402 38.705 171.417 39.6594 170.404 40.4807C170.058 40.747 169.704 40.982 169.368 41.2354Z" fill="#101512"/>
<path d="M182.598 39.3672C182.598 42.0548 181.409 44.639 178.44 44.639C175.473 44.639 174.27 42.0697 174.27 39.3672C174.27 36.709 175.49 34.112 178.44 34.112C179.104 34.0918 179.762 34.2435 180.35 34.5522C181.91 35.4623 182.598 37.3268 182.598 39.3672ZM176.724 39.3672C176.724 40.5122 176.929 42.4804 178.44 42.4804C179.921 42.4804 180.145 40.4844 180.145 39.3672C180.145 38.2499 179.969 36.2836 178.44 36.2836C178.275 36.2737 178.109 36.2972 177.952 36.3529C177.796 36.4085 177.653 36.495 177.53 36.6073C176.862 37.2529 176.726 38.4867 176.726 39.3672H176.724Z" fill="#101512"/>
<path d="M184.363 36.3131L185.332 34.2136H187.71V41.6719C187.71 42.3471 187.784 43.6845 188.019 44.2709L188.137 44.5353H184.863L184.979 44.2709C185.214 43.6993 185.258 42.3341 185.258 41.6719V36.5629L184.363 36.3131Z" fill="#101512"/>
<path d="M193.072 42.5542C194.084 42.5542 194.737 42.0253 194.737 41.1003C194.737 39.6205 193.224 39.4263 191.681 39.4263H191.255L193.738 36.3872H193.063C192.386 36.3872 191.005 36.4463 190.419 36.6812L190.081 36.8274L190.33 34.2136H196.499V36.1522L195 37.9576C196.454 38.531 197.204 39.5872 197.204 41.0559C197.204 43.2442 195.265 44.6389 192.974 44.6389C192.049 44.6389 190.728 44.3448 189.979 43.7141L189.905 43.6549V40.8358L190.288 41.2613C190.842 41.8355 191.542 42.2468 192.314 42.4506C192.561 42.5199 192.816 42.5547 193.072 42.5542Z" fill="#101512"/>
<path d="M144.564 31.3113V21.6351H144.549V16.4558C144.548 14.6393 143.978 12.8689 142.92 11.3922C141.862 9.91564 140.369 8.80661 138.649 8.22057L116.111 0.540283L93.6006 8.20576C91.873 8.79431 90.3732 9.9108 89.315 11.3975C88.2561 12.8842 87.6909 14.6659 87.7001 16.4909L87.7742 31.3113L87.7001 46.1318C87.6915 47.9569 88.2561 49.7387 89.315 51.2257C90.3738 52.7127 91.873 53.8296 93.6006 54.4187L116.103 62.0842L138.643 54.4058C140.363 53.8197 141.856 52.7108 142.914 51.2341C143.973 49.7574 144.542 47.987 144.544 46.1706V40.9912H144.559L144.564 31.3113Z" fill="#E9DCBC"/>
<path d="M143.004 31.3113V22.166V17.2678C143.002 15.5509 142.464 13.8774 141.465 12.4816C140.465 11.0858 139.053 10.0377 137.427 9.48389L116.123 2.22534L94.8456 9.47091C93.2123 10.0274 91.7952 11.083 90.7939 12.4882C89.7932 13.8936 89.2592 15.5777 89.2672 17.3029L89.3394 31.3113L89.2672 45.3196C89.2592 47.0448 89.7932 48.7289 90.7939 50.1342C91.7952 51.5395 93.2123 52.5949 94.8456 53.1515L116.123 60.3971L137.427 53.1386C139.053 52.5854 140.465 51.5376 141.465 50.1421C142.465 48.7466 143.003 47.0732 143.004 45.3565V40.4566H143.019L143.004 31.3113Z" fill="#095424"/>
<path d="M116.294 50.2992C120.437 50.2521 124.395 48.5757 127.311 45.6331C130.227 42.6905 131.867 38.7183 131.875 34.5761V34.4503L131.849 33.814L131.211 33.8288C130.259 33.8527 129.311 33.9567 128.376 34.1396C129.766 31.8854 130.501 29.2887 130.499 26.6406V26.5222L130.471 25.8877L129.836 25.9025C128.578 25.9295 127.327 26.1122 126.113 26.4463C127.504 24.4352 128.246 22.0471 128.242 19.6021V19.4986L128.213 18.8641L127.579 18.877C124.728 18.9331 121.979 19.9514 119.78 21.7664C119.533 19.1601 118.444 16.7051 116.677 14.7724L116.238 14.2933L115.758 14.7299C113.804 16.5085 112.489 18.8804 112.017 21.4797C109.912 19.8882 107.345 19.0293 104.706 19.0343H104.051V19.6891C104.058 22.1592 104.825 24.5673 106.247 26.587C105.006 26.2483 103.726 26.0766 102.44 26.0764H101.785V26.7331C101.799 29.4151 102.569 32.0387 104.005 34.3041C103.033 34.1208 102.047 34.0286 101.058 34.0286H100.406V34.6834C100.432 38.5963 101.916 42.3589 104.569 45.2361C107.222 48.1132 110.852 49.8981 114.751 50.2418C114.831 50.2418 114.91 50.2566 114.993 50.2585V50.5249C114.999 51.3552 115.068 52.1838 115.199 53.0036C115.651 55.8473 116.835 58.5247 118.635 60.7726L119.684 60.0031C117.508 57.3166 116.314 53.9686 116.298 50.5119V50.4157C116.295 50.377 116.294 50.3381 116.294 50.2992ZM130.565 35.1514C130.409 38.835 128.852 42.32 126.211 44.8936C123.571 47.4673 120.046 48.9351 116.359 48.997V48.9841C116.368 48.8694 116.379 48.7546 116.394 48.6418C116.414 48.4568 116.437 48.2811 116.466 48.1017C116.477 48.0147 116.492 47.9278 116.507 47.8428C116.533 47.6836 116.562 47.5264 116.594 47.371C116.596 47.3501 116.601 47.3296 116.609 47.3099C116.631 47.1934 116.655 47.0825 116.681 46.9696C116.695 46.9092 116.709 46.8475 116.725 46.7846C116.74 46.7254 116.76 46.6385 116.779 46.5664C116.798 46.4942 116.809 46.4479 116.825 46.3813C116.912 46.0632 117.01 45.7506 117.112 45.4398C117.166 45.2808 117.223 45.1254 117.284 44.9682C117.314 44.8849 117.345 44.7998 117.381 44.7166C117.484 44.4613 117.588 44.2098 117.708 43.96C117.776 43.8102 117.847 43.6641 117.924 43.5161C118.044 43.2756 118.176 43.037 118.309 42.8002C118.383 42.6689 118.461 42.5394 118.542 42.4081C118.747 42.0695 118.972 41.7403 119.203 41.4185C119.416 41.1281 119.638 40.8469 119.867 40.5713C119.902 40.5306 119.936 40.4879 119.97 40.4509C120.176 40.2142 120.383 39.9811 120.602 39.7573L120.691 39.6648C120.753 39.6019 120.814 39.539 120.876 39.4798C122.331 38.0464 124.06 36.9209 125.96 36.1706C126.367 36.0097 126.783 35.8654 127.205 35.7414C128.3 35.4181 129.427 35.2171 130.565 35.1422V35.1514ZM129.183 27.2214C129.062 29.9121 128.106 32.4983 126.447 34.6205C124.353 35.3012 122.418 36.3943 120.755 37.8354C120.627 35.9481 120.157 34.0997 119.367 32.3804C119.64 32.0382 119.934 31.7071 120.241 31.387L120.326 31.302C120.541 31.0818 120.765 30.871 120.992 30.6713C123.263 28.6424 126.145 27.4273 129.183 27.2178V27.2214ZM119.007 24.3635C119.214 24.1193 119.419 23.8826 119.642 23.6532L119.717 23.5755C121.634 21.6234 124.192 20.4286 126.92 20.2107C126.766 22.9292 125.584 25.4877 123.615 27.3694C122.451 27.9295 121.364 28.6383 120.381 29.4781C120.245 27.7036 119.778 25.9702 119.005 24.3672L119.007 24.3635ZM116.84 28.507C116.79 28.4515 116.736 28.396 116.687 28.3386L116.414 28.039L116.33 27.9465L116.248 27.8577L115.8 28.2703L115.765 28.3035C115.671 28.3905 115.58 28.4774 115.482 28.5681C115.384 28.6587 115.33 28.7142 115.258 28.7918C114.817 29.2305 114.403 29.6956 114.019 30.1847C113.872 30.3697 113.728 30.5547 113.591 30.7564C113.511 30.8655 113.434 30.9765 113.36 31.0875L113.319 31.043C113.236 30.9413 113.149 30.8469 113.064 30.7507L113.045 30.7341C112.997 30.6786 112.951 30.6305 112.899 30.5751L112.764 30.4308C112.666 30.329 112.568 30.2347 112.468 30.1366C112.481 30.0164 112.494 29.8943 112.511 29.7667C112.709 28.249 113.175 26.7785 113.887 25.4234C114 25.2051 114.122 24.9905 114.257 24.7778C114.392 24.5651 114.503 24.3783 114.636 24.1823C115.09 23.512 115.605 22.8853 116.174 22.3103C116.669 22.9101 117.108 23.554 117.486 24.234C117.608 24.4486 117.72 24.665 117.826 24.8833C117.932 25.1016 118.048 25.3513 118.144 25.5899C118.725 26.9816 119.059 28.4639 119.129 29.9702C119.138 30.1774 119.142 30.3845 119.142 30.5973V30.6731C119.046 30.7767 118.948 30.8858 118.855 30.9913C118.816 31.0338 118.776 31.0782 118.74 31.1226C118.681 31.0079 118.615 30.895 118.555 30.7859C118.433 30.5843 118.307 30.3864 118.185 30.194C117.792 29.6023 117.359 29.0374 116.89 28.5033C116.89 28.4774 116.905 28.4515 116.91 28.4256C116.881 28.4432 116.857 28.4681 116.84 28.4978V28.507ZM116.148 16.1542C117.688 18.0703 118.525 20.4555 118.522 22.9133V22.9299C118.492 22.9614 118.461 22.9965 118.431 23.0335C118.401 23.0705 118.37 23.1001 118.341 23.1372C117.86 22.3441 117.302 21.6006 116.675 20.9174L116.237 20.4345L115.756 20.8748C115.018 21.5481 114.352 22.2964 113.769 23.1075C113.584 22.8893 113.379 22.6802 113.169 22.4749C113.429 20.092 114.477 17.8639 116.148 16.1449V16.1542ZM105.376 20.3328C107.869 20.4846 110.231 21.4967 112.061 23.1963C112.38 23.4942 112.68 23.8104 112.962 24.1434L113.04 24.234C112.162 25.7299 111.566 27.3746 111.284 29.086C110.522 28.4903 109.7 27.9735 108.834 27.5432C106.795 25.6751 105.556 23.092 105.376 20.3328ZM103.109 27.3749C106.022 27.5157 108.803 28.6311 111.006 30.5418C111.045 30.5787 111.086 30.6133 111.129 30.6454L111.339 30.8414C111.798 31.2674 112.226 31.7255 112.62 32.2122C112.623 32.2196 112.627 32.2264 112.633 32.2325C111.735 33.8335 111.13 35.5808 110.843 37.3933C109.375 36.2295 107.709 35.3386 105.926 34.7629C104.245 32.6537 103.26 30.0747 103.109 27.3823V27.3749ZM115.294 47.2212C115.271 47.3247 115.254 47.4283 115.236 47.5319C115.225 47.5911 115.216 47.6503 115.207 47.7169C115.184 47.8409 115.167 47.9611 115.151 48.0869C115.134 48.2127 115.113 48.3699 115.095 48.5105V48.5216C115.079 48.6659 115.064 48.8046 115.051 48.9489C114.99 48.9489 114.925 48.9397 114.866 48.9341C111.399 48.644 108.156 47.1048 105.739 44.6028C103.323 42.1009 101.898 38.8065 101.729 35.3326C102.908 35.3868 104.077 35.5837 105.209 35.919C105.656 36.0522 106.092 36.2076 106.521 36.376C108.135 37.0325 109.615 37.9764 110.892 39.1617L111.091 39.3467C111.428 39.671 111.747 40.0095 112.048 40.3622C112.2 40.5471 112.346 40.7211 112.488 40.9061C112.611 41.0615 112.727 41.2149 112.84 41.3795C112.899 41.461 112.957 41.5423 113.01 41.6219L113.173 41.8679C113.227 41.9511 113.276 42.0362 113.33 42.1177C113.384 42.199 113.434 42.2841 113.484 42.3692C113.587 42.5394 113.682 42.7114 113.774 42.8853C113.823 42.9722 113.868 43.0592 113.913 43.1442C114.004 43.32 114.098 43.4994 114.172 43.6771L114.294 43.9452C114.335 44.0358 114.372 44.1302 114.409 44.2172C114.446 44.3041 114.485 44.4021 114.518 44.489C114.551 44.5759 114.59 44.674 114.622 44.7647C114.725 45.0403 114.818 45.3196 114.903 45.6045C114.988 45.8893 115.071 46.202 115.142 46.5054C115.158 46.5867 115.177 46.6662 115.193 46.7476C115.227 46.8993 115.256 47.0566 115.284 47.212L115.294 47.2212ZM115.989 44.7037C115.979 44.6778 115.972 44.65 115.961 44.6241C115.921 44.502 115.876 44.3836 115.832 44.2652C115.787 44.1468 115.72 43.9729 115.662 43.8268C115.602 43.6807 115.553 43.5586 115.493 43.4273C115.493 43.4273 115.484 43.407 115.478 43.3996C115.417 43.2553 115.35 43.1146 115.294 42.9741C115.236 42.8335 115.156 42.6966 115.088 42.5616C115.019 42.4265 114.944 42.286 114.866 42.1491C114.788 42.0122 114.714 41.8753 114.635 41.7348C114.555 41.5942 114.477 41.4739 114.396 41.3426C114.389 41.3375 114.385 41.3304 114.383 41.3223L114.153 40.969C114.113 40.9153 114.076 40.8598 114.041 40.8062C114.028 40.792 114.017 40.7765 114.007 40.7599L113.976 40.7155C113.941 40.6619 113.902 40.612 113.865 40.5602C113.791 40.4566 113.711 40.3455 113.631 40.2419L113.482 40.057C113.263 39.774 113.033 39.5021 112.796 39.2376C112.644 39.0656 112.484 38.8991 112.323 38.7326C112.229 38.6364 112.138 38.5384 112.031 38.444C112.206 36.6951 112.702 34.9933 113.493 33.4237C113.602 33.2036 113.718 32.9835 113.843 32.7708C113.966 32.5581 114.082 32.362 114.213 32.1622L114.346 32.3472L114.214 32.1622C114.339 31.9772 114.47 31.7737 114.603 31.585C114.736 31.3963 114.897 31.18 115.055 30.9839C115.088 30.9395 115.12 30.8988 115.158 30.8543C115.287 30.6953 115.423 30.5362 115.558 30.379C115.662 30.2587 115.772 30.1422 115.885 30.0256C115.885 30.0664 115.885 30.107 115.874 30.1459L115.889 30.022C115.984 29.9184 116.082 29.8148 116.183 29.7113C116.294 29.8444 116.4 29.9794 116.503 30.1144C116.512 30.1232 116.521 30.1325 116.529 30.1422C116.584 30.2143 116.642 30.2903 116.698 30.3661C116.849 30.5714 116.995 30.7804 117.134 30.9913C117.273 31.2021 117.399 31.3964 117.517 31.6036C117.636 31.8107 117.756 32.0161 117.867 32.2287C117.978 32.4415 118.091 32.669 118.194 32.8947C118.298 33.1204 118.407 33.3719 118.504 33.6161C119.174 35.3071 119.517 37.1097 119.515 38.9286V39.0378L119.288 39.2819C119.271 39.3042 119.251 39.3226 119.234 39.3448C119.14 39.4484 119.049 39.552 118.957 39.6648C118.95 39.6711 118.943 39.678 118.936 39.6852C118.853 39.7888 118.77 39.8905 118.687 39.9885L118.644 40.0422L118.6 40.0977C118.526 40.192 118.448 40.2827 118.378 40.3863C118.307 40.4899 118.241 40.5713 118.171 40.6564C118.126 40.7174 118.082 40.7784 118.039 40.8413C117.58 41.4891 117.169 42.1692 116.809 42.876C116.76 42.9704 116.712 43.0611 116.668 43.1609C116.624 43.2608 116.588 43.3219 116.551 43.4033C116.515 43.4847 116.463 43.5882 116.422 43.6936C116.272 44.0322 116.133 44.367 116.013 44.7111L115.989 44.7037Z" fill="#E9DCBC"/>
<mask id="mask0_166_3670" style="mask-type:luminance" maskUnits="userSpaceOnUse" x="0" y="72" width="238" height="78">
<path d="M237.408 72.4923H0.560059V149.714H237.408V72.4923Z" fill="white"/>
</mask>
<g mask="url(#mask0_166_3670)">
<path d="M63.8396 103.204L64.1966 103.996H52.94L41.5962 84.134V95.237C41.5962 97.2556 41.7747 101.38 42.4925 103.168L42.8059 103.961H32.8066L33.1636 103.168C33.8815 101.375 34.1076 97.2954 34.1076 95.237V81.2472C34.1076 79.1852 33.8815 75.0617 33.1636 73.2691L32.8066 72.4762H44.1068L55.4983 92.3387V81.2631C55.4983 79.2011 55.3199 75.077 54.6019 73.285L54.241 72.4921H64.1966L63.8396 73.285C63.1219 75.0335 62.9872 79.2011 62.9872 81.2631V95.2529C62.9663 96.6011 63.0263 97.9486 63.1654 99.2901C63.316 100.872 63.4826 102.323 63.8396 103.204Z" fill="#101512"/>
<path d="M90.6606 87.9611C93.1714 89.5749 94.2027 92.0417 94.2027 94.7778C94.2027 100.872 89.764 104.013 83.4379 104.013H69.5835L69.9399 103.219C70.6583 101.427 70.8842 97.3468 70.8842 95.289V81.2992C70.8842 79.2372 70.6583 75.1131 69.9399 73.3211L69.5835 72.5276H83.2591C89.6728 72.5276 93.5719 75.4425 93.5719 81.4976C93.5756 83.9245 92.7666 86.3037 90.6606 87.9611ZM78.3647 84.9115H81.9344C84.449 84.9115 86.0633 84.1939 86.0633 82.0449C86.0633 79.8953 84.449 79.13 81.9344 79.13H78.3647V84.9115ZM78.3647 91.5935V97.3315H82.5811C85.092 97.3315 86.7063 96.6611 86.7063 94.4643C86.7063 92.2676 85.092 91.5935 82.5811 91.5935H78.3647Z" fill="#101512"/>
<path d="M134.342 87.9611C136.853 89.5749 137.884 92.0417 137.884 94.7778C137.884 100.872 133.446 104.013 127.123 104.013H113.265L113.622 103.219C114.339 101.427 114.566 97.3468 114.566 95.289V81.2992C114.566 79.2372 114.339 75.1131 113.622 73.3211L113.265 72.5276H126.941C133.355 72.5276 137.254 75.4425 137.254 81.4976C137.257 83.9245 136.452 86.3037 134.342 87.9611ZM122.047 84.9115H125.636C128.147 84.9115 129.761 84.1939 129.761 82.0449C129.761 79.8953 128.147 79.13 125.636 79.13H122.047V84.9115ZM122.047 91.5935V97.3315H126.262C128.773 97.3315 130.387 96.6611 130.387 94.4643C130.387 92.2676 128.773 91.5935 126.262 91.5935H122.047Z" fill="#101512"/>
<path d="M152.163 104.013H141.49L142.164 103.069C143.508 101.233 144.766 97.3787 145.484 95.0907L149.653 81.1009C150.236 79.1736 151.358 74.9589 151.132 73.1705L151.045 72.4958H163.824L163.733 73.1265C163.733 75.8589 164.451 78.4163 165.213 81.1052L169.429 95.095C170.147 97.383 171.313 101.194 172.705 103.073L173.423 104.017H162.714L162.849 103.343C162.827 101.271 162.56 99.2093 162.055 97.2005H152.861C152.5 98.9969 151.874 101.907 152.1 103.343L152.163 104.013ZM160.235 90.562C159.338 87.1083 158.485 83.6589 157.458 80.2046C156.427 83.6589 155.578 87.1083 154.634 90.562H160.235Z" fill="#101512"/>
<path d="M201.886 82.6713C201.886 86.7519 199.958 90.2925 195.698 91.9064C196.729 93.4928 197.895 95.4476 199.268 97.4227C200.855 99.7064 202.441 101.784 203.888 102.974L205.142 104.005H192.846L192.803 103.422C192.803 102.121 191.863 100.06 190.649 97.8703C189.531 95.9436 188.229 94.0162 187.476 92.8028H186.682V95.2695C186.682 97.2874 186.861 101.412 187.579 103.2L187.892 103.993H177.893L178.25 103.2C178.968 101.408 179.194 97.3272 179.194 95.2695V81.2797C179.194 79.2177 178.968 75.0936 178.25 73.3015L177.893 72.5081H190.586C193.993 72.5081 196.817 73.4956 198.792 75.2442C200.767 76.9928 201.886 79.5783 201.886 82.6713ZM190.629 79.1301H186.671V86.125H190.637C192.969 86.125 194.405 84.7768 194.405 82.6713C194.405 80.5658 192.961 79.1301 190.637 79.1301H190.629Z" fill="#101512"/>
<path d="M11.2335 149.087H0.560059L1.23036 148.143C2.57495 146.307 3.8323 142.453 4.55021 140.165L8.71889 126.175C9.30196 124.248 10.4244 120.032 10.1983 118.244L10.1111 117.57H22.8908L22.8035 118.201C22.8035 120.933 23.5214 123.49 24.2829 126.179L28.4992 140.169C29.2171 142.456 30.3832 146.268 31.7715 148.147L32.4894 149.091H21.7802L21.915 148.417C21.8929 146.345 21.6266 144.283 21.1218 142.274H11.9276C11.5707 144.07 10.9401 146.982 11.1662 148.417L11.2335 149.087ZM19.2893 135.632C18.3929 132.179 17.5401 128.729 16.5128 125.275C15.4815 128.729 14.6288 132.179 13.6848 135.632H19.2893Z" fill="#101512"/>
<path d="M50.9212 149.713C39.6646 149.713 35.1826 142.453 35.1826 133.305C35.1826 124.518 40.6086 116.939 51.2822 116.939C53.2707 116.945 55.2482 117.233 57.1564 117.792C57.5613 117.927 57.9873 117.987 58.4137 117.97C58.7917 117.995 59.1709 117.95 59.5322 117.836L60.4286 117.479V128.186L59.2665 126.928C57.4697 124.914 54.1102 123.613 51.2822 123.613C45.3604 123.613 42.9845 128.276 42.9845 133.297C42.9845 138.812 45.3643 143.024 51.5518 143.024C54.6892 143.024 58.6358 141.636 60.7896 139.617L61.9558 138.543V147.239L61.6424 147.373C60.8475 147.78 60.0227 148.125 59.1753 148.404C56.5059 149.255 53.7229 149.697 50.9212 149.713Z" fill="#101512"/>
<path d="M77.1152 149.087H66.4417L67.1159 148.143C68.4601 146.307 69.7137 142.453 70.4315 140.165L74.6044 126.175C75.1874 124.248 76.3099 120.032 76.0839 118.244L75.9927 117.57H88.776L88.7007 118.185C88.7007 120.917 89.419 123.474 90.1802 126.163L94.3966 140.153C95.1144 142.441 96.2804 146.252 97.673 148.131L98.3864 149.075H87.6773L87.8121 148.401C87.79 146.33 87.5242 144.267 87.019 142.259H77.825C77.4643 144.055 76.8372 146.966 77.0632 148.401L77.1152 149.087ZM85.1867 135.636C84.2901 132.182 83.4377 128.732 82.4101 125.279C81.3788 128.732 80.5263 132.182 79.5863 135.636H85.1867Z" fill="#101512"/>
<path d="M130.843 133.304C130.843 142.227 125.957 149.087 115.283 149.087H102.861L103.218 148.294C103.936 146.545 104.07 142.346 104.07 140.363V126.373C104.07 124.391 103.936 120.187 103.218 118.395L102.861 117.602H115.275C117.649 117.551 120.009 117.963 122.225 118.815C128.107 121.199 130.843 126.536 130.843 133.304ZM115.275 142.406C121.372 142.406 123.034 138.507 123.034 133.304C123.034 128.102 121.372 124.204 115.275 124.204H111.551V142.406H115.275Z" fill="#101512"/>
<path d="M160.714 141.553L161.702 141.196L160.937 149.087H135.777L136.139 148.294C136.856 146.502 137.079 142.422 137.079 140.363V126.373C137.079 124.311 136.856 120.187 136.139 118.395L135.777 117.602H159.727L160.488 125.533L159.457 125.136C157.621 124.419 153.448 124.24 151.294 124.24H144.551V130.022H149.037C151.1 130.022 155.316 129.887 157.109 129.169L158.053 128.812V137.96L157.109 137.6C155.273 136.882 151.159 136.703 149.037 136.703H144.551V142.441H152.56C154.706 142.455 156.85 142.305 158.973 141.993C159.57 141.922 160.155 141.774 160.714 141.553Z" fill="#101512"/>
<path d="M167.037 148.234C167.89 146.442 168.294 142.318 168.429 140.303L169.282 126.314C169.326 125.374 169.369 124.474 169.369 123.443C169.369 122.055 169.326 119.589 168.877 118.332L168.608 117.57H180.324L180.372 118.153C180.372 119.902 181.804 124.43 182.478 126.135L185.707 134.832L188.935 126.135C189.654 124.208 191.046 120.037 191.046 118.153V117.57H202.794L202.525 118.332C202.076 119.454 201.985 122.011 201.985 123.312C201.985 124.343 202.033 125.295 202.076 126.314L202.929 140.303C203.063 142.286 203.512 146.489 204.317 148.234L204.714 149.087H194.715L195.028 148.294C195.52 147.219 195.52 144.618 195.52 143.365C195.52 142.334 195.476 141.433 195.432 140.402L194.893 128.792L190.768 140.585C190.05 142.512 188.658 146.727 188.658 148.516V149.099H182.74V148.516C182.74 146.767 181.395 142.465 180.678 140.585L176.505 128.792L175.922 140.402C175.878 141.433 175.835 142.334 175.835 143.365C175.835 144.665 175.969 147.176 176.327 148.294L176.639 149.087H166.64L167.037 148.234Z" fill="#101512"/>
<path d="M226.913 148.278L227.227 149.071H217.212L217.572 148.278C218.366 146.486 218.512 142.362 218.512 140.347V133.13C218.469 132.995 218.425 133.039 218.378 132.904L214.431 126.627C212.864 124.208 210.62 120.576 208.482 118.557L207.403 117.57H218.509L218.6 118.066C218.957 120.128 220.932 124.209 222.368 126.492C223.8 124.209 225.91 120.147 226.132 118.066L226.223 117.57H237.389L236.314 118.557C234.16 120.576 231.875 124.161 230.364 126.627L226.374 132.904C226.323 133.049 226.246 133.183 226.148 133.301C226.104 133.436 226.061 133.392 226.013 133.523V140.339C226.001 142.426 226.152 144.51 226.465 146.573C226.564 147.153 226.714 147.724 226.913 148.278Z" fill="#101512"/>
</g>
</g>
<defs>
<clipPath id="clip0_166_3670">
<rect width="237" height="150" fill="white" transform="translate(0.5)"/>
</clipPath>
</defs>
</svg>
