<svg width="80" height="80" viewBox="0 0 80 80" fill="none" xmlns="http://www.w3.org/2000/svg">
<g clip-path="url(#clip0_209_1927)">
<mask id="mask0_209_1927" style="mask-type:luminance" maskUnits="userSpaceOnUse" x="0" y="0" width="80" height="80">
<path d="M80 0H0V80H80V0Z" fill="white"/>
</mask>
<g mask="url(#mask0_209_1927)">
<path d="M39.9979 0C17.9063 0 -0.00268555 17.909 -0.00268555 40.0005C-0.00268555 62.0918 17.9063 80.0009 39.9979 80.0009C62.0893 80.0009 79.9972 62.0918 79.9972 40.0005C79.9972 17.909 62.0923 0 39.9979 0ZM39.9979 66.3691C25.4339 66.3691 13.6292 54.5633 13.6292 40.0005C13.6292 25.4376 25.437 13.6318 39.9979 13.6318C54.5587 13.6318 66.3694 25.4345 66.3694 40.0005C66.3694 54.5664 54.5636 66.3691 39.9979 66.3691Z" fill="#095424"/>
<path d="M40.0006 78.1006C61.043 78.1006 78.1012 61.0424 78.1012 40C78.1012 18.9575 61.043 1.89928 40.0006 1.89928C18.9581 1.89928 1.8999 18.9575 1.8999 40C1.8999 61.0424 18.9581 78.1006 40.0006 78.1006Z" stroke="#E9DCBC" stroke-width="1.35561" stroke-miterlimit="10"/>
<path d="M40.0008 68.436C55.7056 68.436 68.4368 55.7046 68.4368 40C68.4368 24.2953 55.7056 11.564 40.0008 11.564C24.2961 11.564 11.5649 24.2953 11.5649 40C11.5649 55.7046 24.2961 68.436 40.0008 68.436Z" stroke="#E9DCBC" stroke-width="1.35561" stroke-miterlimit="10"/>
<path d="M7.04369 36.75C6.93953 37.8192 6.88623 38.9032 6.88623 40C6.88623 49.7473 11.0978 58.5111 17.8005 64.571M64.2798 62.5188C69.7628 56.61 73.1151 48.6966 73.1151 40C73.1151 38.8767 73.0592 37.7668 72.9501 36.6725" stroke="#E9DCBC" stroke-opacity="0.2" stroke-width="1.35561" stroke-miterlimit="10"/>
<path d="M61.0631 39.5461L61.0693 32.4739H61.0572V28.6863C61.0559 27.3583 60.6393 26.0638 59.8658 24.9846C59.0921 23.9051 58.0003 23.0946 56.7431 22.6668L40.2734 17.0549L23.8268 22.6578C22.5638 23.0878 21.4681 23.904 20.6943 24.9907C19.9205 26.0776 19.5079 27.38 19.5147 28.7141L19.5696 39.5461L19.5147 50.3781C19.5081 51.7125 19.9212 53.0153 20.6955 54.1022C21.4699 55.1889 22.5663 56.0049 23.8298 56.4344L40.2765 62.0373L56.7431 56.4255C57.9999 55.9972 59.091 55.1867 59.8642 54.1076C60.6375 53.0284 61.0539 51.7344 61.0552 50.4068V46.6192H61.0673L61.0631 39.5461Z" fill="#E9DCBC"/>
<path d="M59.9249 39.5459L59.9309 32.8616H59.9188V29.2811C59.9179 28.0265 59.5249 26.8037 58.7946 25.7835C58.0643 24.7634 57.0333 23.997 55.846 23.5917L40.2785 18.2868L24.7368 23.5836C23.5431 23.9899 22.5073 24.761 21.7757 25.7881C21.0441 26.8151 20.6538 28.0463 20.66 29.3072L20.7108 39.5459L20.66 49.7848C20.6537 51.0455 21.0436 52.2764 21.7748 53.3035C22.506 54.3305 23.5414 55.1018 24.7348 55.5084L40.2765 60.8051L55.846 55.5003C57.0338 55.0953 58.0652 54.3292 58.7957 53.309C59.5265 52.2887 59.9199 51.0657 59.921 49.8106V46.2304H59.9328L59.9249 39.5459Z" fill="#095424"/>
<path d="M40.4064 53.417C43.4346 53.3826 46.3275 52.1565 48.4584 50.0044C50.5892 47.8525 51.7868 44.9477 51.7914 41.9194V41.8275L51.7726 41.3631L51.3061 41.374C50.6105 41.3911 49.9177 41.4668 49.2347 41.6005C50.2508 39.9525 50.7878 38.0542 50.7858 36.1182V36.0333L50.7659 35.5678L50.3014 35.5799C49.3815 35.5996 48.4678 35.7335 47.5812 35.9785C48.5964 34.5098 49.1391 32.7663 49.1372 30.9808V30.9059L49.1161 30.4406L48.6528 30.4504C46.5693 30.4914 44.5609 31.2357 42.9541 32.5627C42.7729 30.6576 41.9768 28.8631 40.6865 27.4501L40.3665 27.1003L40.0145 27.4203C38.5864 28.7198 37.6255 30.4533 37.2805 32.3533C35.743 31.1899 33.8668 30.5622 31.9387 30.5662H31.4602V31.0444C31.4655 32.8498 32.0253 34.6098 33.0642 36.0862C32.1577 35.8383 31.222 35.7129 30.2821 35.7133H29.8037V36.1929C29.8149 38.153 30.3768 40.0708 31.4254 41.7269C30.7152 41.5934 29.9941 41.5266 29.2715 41.5277H28.7959V42.0059C28.8128 44.8767 29.9063 47.6366 31.86 49.7401C33.7943 51.8323 36.4384 53.1294 39.277 53.3782C39.3357 53.3782 39.3936 53.3881 39.4545 53.3903V53.5895C39.4587 54.1962 39.5091 54.8016 39.6049 55.4006C39.9361 57.4775 40.8012 59.4326 42.1158 61.0742L42.8823 60.5111C41.6577 58.992 40.8516 57.179 40.5438 55.2522C40.4562 54.6968 40.4104 54.1357 40.4073 53.5735V53.5047C40.4053 53.4698 40.4064 53.444 40.4064 53.417ZM50.8347 42.3459C50.6083 47.9099 46.05 52.3834 40.4542 52.4651C40.4533 52.4618 40.4533 52.4585 40.4542 52.4553C40.4601 52.3724 40.4682 52.2878 40.4792 52.206C40.4941 52.0745 40.511 51.9428 40.5309 51.8074C40.5399 51.7445 40.5509 51.6818 40.5629 51.618C40.5809 51.5034 40.6028 51.3876 40.6256 51.2741C40.6271 51.2588 40.6304 51.2436 40.6357 51.2292C40.6526 51.1443 40.6694 51.0626 40.6885 50.98C40.6984 50.935 40.7093 50.8932 40.7203 50.8504C40.7312 50.8075 40.7464 50.7437 40.7613 50.692C40.7762 50.64 40.7821 50.6043 40.795 50.5594C40.8568 50.3281 40.9287 50.0989 41.0043 49.8725C41.0434 49.7559 41.0852 49.6423 41.1299 49.5277C41.1521 49.4659 41.1749 49.405 41.2007 49.3434C41.2755 49.1568 41.3513 48.9734 41.4401 48.791C41.4889 48.6814 41.5398 48.5738 41.5974 48.4662C41.6853 48.2898 41.782 48.1162 41.8786 47.9428C41.9334 47.8431 41.9893 47.7515 42.0481 47.6557C42.1995 47.4085 42.3621 47.1682 42.5324 46.9331C42.687 46.7207 42.8485 46.5155 43.0168 46.3141C43.0429 46.2843 43.0677 46.2534 43.0927 46.2253C43.2432 46.052 43.3916 45.8825 43.5532 45.7179L43.618 45.6513C43.6647 45.6053 43.7088 45.5595 43.7566 45.5156C44.8204 44.4684 46.0847 43.6463 47.4736 43.0985C47.7719 42.9808 48.0752 42.8765 48.3836 42.7856C49.1819 42.5493 50.004 42.402 50.8347 42.3459ZM49.8249 36.5497C49.7366 38.5173 49.0372 40.4084 47.8243 41.9601C46.2953 42.4579 44.8812 43.2566 43.6658 44.3095C43.5722 42.9302 43.2286 41.5792 42.6521 40.3224C42.8514 40.0724 43.0657 39.8302 43.2899 39.5967L43.3517 39.533C43.5093 39.3725 43.6728 39.2191 43.8383 39.0725C44.575 38.4149 45.4046 37.8696 46.3003 37.4538C47.4105 36.9405 48.6048 36.6341 49.8249 36.5497ZM42.39 34.4614C42.5406 34.2821 42.6889 34.1096 42.8535 33.9411L42.9083 33.8854C44.3095 32.459 46.1783 31.586 48.1712 31.4262C48.0584 33.4131 47.1955 35.2831 45.757 36.6584C44.9057 37.0672 44.1112 37.5853 43.3936 38.1993C43.295 36.9024 42.9546 35.6353 42.39 34.4634V34.4614ZM40.8051 37.4896C40.7703 37.4488 40.7304 37.408 40.6944 37.3662L40.4952 37.1476L40.4334 37.0799L40.3735 37.0142L40.0465 37.3131L40.0207 37.3372C39.9518 37.401 39.8821 37.4648 39.8133 37.5365C39.7585 37.5884 39.7037 37.6432 39.6498 37.7C39.3278 38.0206 39.0256 38.3603 38.7448 38.7176C38.637 38.8553 38.5314 38.9938 38.4318 39.1354C38.3729 39.216 38.3172 39.2969 38.2622 39.3776L38.2335 39.3456C38.1726 39.2699 38.1099 39.2011 38.047 39.1314L38.0332 39.1194C37.9981 39.0795 37.9632 39.0435 37.9264 39.0028L37.8267 38.898C37.7559 38.8224 37.6842 38.7536 37.6115 38.6828C37.6204 38.594 37.6303 38.5054 37.6432 38.4167C37.7877 37.3072 38.1278 36.2323 38.648 35.2419C38.7297 35.0814 38.8196 34.925 38.9132 34.7696C39.007 34.6139 39.0935 34.4785 39.1902 34.3349C39.5209 33.8444 39.8971 33.3863 40.3137 32.9664C40.6754 33.4047 40.9962 33.8751 41.2726 34.3717C41.3609 34.528 41.444 34.6865 41.5218 34.8471C41.5994 35.0067 41.6831 35.1891 41.755 35.3635C42.1778 36.3812 42.4207 37.4643 42.4726 38.5651C42.4807 38.7167 42.4836 38.8642 42.4836 39.0236V39.0786C42.4128 39.1542 42.3411 39.234 42.2734 39.3118C42.2444 39.3427 42.2155 39.3745 42.1897 39.4065C42.1458 39.3236 42.0969 39.241 42.047 39.1604C41.9584 39.0148 41.8666 38.8693 41.771 38.7286C41.4819 38.2959 41.1639 37.8834 40.8191 37.4937C40.824 37.4738 40.8301 37.4547 40.8349 37.4348C40.8218 37.4514 40.8115 37.4698 40.804 37.4896H40.8051ZM40.2968 28.461C41.4228 29.8608 42.0351 31.6042 42.0321 33.4008V33.4128C42.0101 33.4367 41.9874 33.4626 41.9663 33.4887C41.9455 33.5145 41.9214 33.5365 41.8995 33.5643C41.5492 32.9863 41.1429 32.4441 40.6865 31.9457L40.3665 31.5937L40.0145 31.9148C39.4762 32.4062 38.9903 32.9519 38.5642 33.5435C38.4248 33.3846 38.2789 33.2307 38.1267 33.0819C38.315 31.3429 39.0789 29.7164 40.2968 28.461ZM32.4222 31.527C34.2436 31.6377 35.97 32.3777 37.3064 33.6202C37.5396 33.8374 37.7596 34.0684 37.9652 34.3119L38.022 34.3788C37.3804 35.4718 36.9456 36.6738 36.7391 37.9242C36.1804 37.4891 35.5795 37.1115 34.9452 36.797C33.4585 35.4302 32.557 33.5422 32.4281 31.527H32.4222ZM30.7665 36.6733C32.0321 36.7365 33.2724 37.0497 34.4158 37.5952C35.1858 37.9623 35.9025 38.4318 36.5469 38.9907C36.5754 39.0177 36.6054 39.0429 36.6366 39.0665L36.7911 39.2101C37.1262 39.5196 37.4385 39.8527 37.7261 40.2069L37.7351 40.2218C37.08 41.392 36.6377 42.669 36.4283 43.9937C35.3566 43.1437 34.1412 42.4927 32.84 42.0719C31.6069 40.5307 30.8844 38.6437 30.7727 36.6733H30.7665ZM39.6687 51.1803C39.6529 51.255 39.6408 51.3309 39.6268 51.4067C39.62 51.4505 39.6119 51.4933 39.6049 51.5371C39.5891 51.627 39.576 51.7155 39.5641 51.8074C39.5521 51.899 39.5372 52.0136 39.5242 52.1173V52.1243C39.5113 52.2299 39.5012 52.3316 39.4922 52.4362C39.4464 52.4362 39.3997 52.4303 39.3548 52.4263C36.8231 52.2122 34.4553 51.086 32.6914 49.2574C30.925 47.4282 29.8835 45.0194 29.7609 42.4796C30.6227 42.5195 31.4764 42.6637 32.3036 42.9092C32.6295 43.0089 32.9484 43.1194 33.2625 43.2421C34.4402 43.7225 35.5209 44.413 36.4522 45.2794C36.502 45.3243 36.552 45.3712 36.5986 45.417C36.8437 45.6522 37.0767 45.8996 37.2965 46.1587C37.4072 46.2891 37.5137 46.4208 37.6174 46.5574C37.707 46.672 37.7927 46.7845 37.8745 46.9052C37.9174 46.964 37.9593 47.0227 37.9981 47.0817L38.1178 47.262C38.1577 47.3228 38.1936 47.3837 38.2335 47.4433C38.2734 47.5031 38.3082 47.566 38.3451 47.6279C38.4209 47.7523 38.4895 47.8779 38.5574 48.0046C38.5932 48.0684 38.626 48.1313 38.6569 48.194C38.7229 48.3226 38.7867 48.4533 38.8463 48.5837C38.8763 48.6486 38.9053 48.7134 38.9351 48.7831C38.9651 48.8528 38.9918 48.9157 39.0188 48.9824C39.0458 49.0492 39.0747 49.1161 39.0997 49.1818C39.1244 49.2476 39.1514 49.3153 39.1753 49.3813C39.25 49.5805 39.318 49.7859 39.3798 49.9941C39.4416 50.2025 39.5032 50.4318 39.554 50.653C39.5661 50.7119 39.581 50.7706 39.592 50.8294C39.6158 50.9412 39.6378 51.0558 39.6588 51.1704L39.6687 51.1803ZM40.1772 49.3403C40.1701 49.3214 40.1651 49.3004 40.1561 49.2816C40.1272 49.1928 40.0943 49.1051 40.0634 49.0183C40.0215 48.9127 39.9808 48.8059 39.9378 48.6994C39.8951 48.5927 39.858 48.5 39.8153 48.4064C39.8153 48.4002 39.8083 48.3923 39.8043 48.3864C39.7594 48.2817 39.7116 48.1791 39.6627 48.0754C39.6139 47.9717 39.563 47.876 39.5113 47.7765C39.4594 47.6767 39.4116 47.577 39.3498 47.4773C39.288 47.3776 39.2382 47.278 39.1803 47.1783C39.1225 47.0786 39.0657 46.987 39.0059 46.8912C39.0017 46.887 38.9986 46.8818 38.9969 46.8763C38.9401 46.7886 38.8853 46.7038 38.8286 46.6181L38.7468 46.4984C38.738 46.4879 38.7301 46.477 38.7229 46.4656L38.6988 46.4316C38.6729 46.3939 38.6451 46.3568 38.6192 46.3191C38.5642 46.2433 38.5055 46.1626 38.4487 46.0868C38.4119 46.039 38.3729 45.9871 38.338 45.9452C38.1796 45.7399 38.0101 45.5387 37.8396 45.3473C37.7289 45.2226 37.6134 45.1001 37.4949 44.9793C37.426 44.9087 37.3541 44.8379 37.2814 44.7671C37.41 43.4893 37.7719 42.2462 38.349 41.099C38.4299 40.9385 38.5145 40.777 38.6052 40.6214C38.696 40.466 38.7797 40.3224 38.8733 40.1769L38.973 40.3145L38.8733 40.176C38.9631 40.0325 39.0587 39.892 39.1564 39.7532C39.2542 39.6147 39.3708 39.4543 39.4863 39.3138C39.5102 39.2818 39.5332 39.2509 39.5611 39.22C39.6568 39.1025 39.7546 38.9865 39.8541 38.8721C39.9299 38.7834 40.0106 38.6988 40.0934 38.6131C40.0934 38.6429 40.0853 38.6729 40.0844 38.7018L40.0954 38.6111C40.1651 38.5353 40.237 38.4594 40.3106 38.3847C40.3915 38.4844 40.4691 38.5841 40.5449 38.6777C40.552 38.6847 40.5568 38.6928 40.5638 38.6988L40.6865 38.8623C40.7974 39.0131 40.9037 39.1656 41.0054 39.3197C41.1071 39.4738 41.2007 39.623 41.2864 39.7673C41.3743 39.9178 41.46 40.0662 41.5407 40.2247C41.6215 40.3834 41.7042 40.5458 41.78 40.7102C41.8556 40.8748 41.9354 41.06 42.0062 41.2386C42.4958 42.4743 42.7468 43.7918 42.7457 45.1209V45.2007L42.5794 45.3791C42.5673 45.3951 42.5535 45.4089 42.5406 45.4249C42.4717 45.5007 42.404 45.5766 42.3411 45.6583L42.3271 45.6732C42.2653 45.7488 42.2057 45.8247 42.1447 45.8955L42.1138 45.9354L42.0809 45.9753C42.0261 46.045 41.9703 46.1147 41.9185 46.1854C41.8666 46.2562 41.8188 46.318 41.7669 46.3849C41.734 46.4298 41.7011 46.4745 41.6674 46.5203C41.3329 46.994 41.0331 47.4909 40.7703 48.0077C40.7343 48.0774 40.7003 48.1471 40.6705 48.217C40.6405 48.2867 40.6138 48.3345 40.5857 48.3934C40.5579 48.4522 40.5211 48.5348 40.491 48.6056C40.3814 48.8539 40.2808 49.104 40.1921 49.3504L40.1772 49.3403Z" fill="#E9DCBC"/>
<path d="M14.0045 23.4661L14.1251 23.4759L13.3835 24.8366L10.2317 24.9065L11.5783 25.637C11.8235 25.7696 12.3349 26.0188 12.599 26.0498L12.7176 26.0647L12.0607 27.2758L11.987 27.1761C11.8165 26.9707 11.3371 26.6777 11.0899 26.5401L9.39539 25.621C9.14519 25.4856 8.63085 25.2423 8.36672 25.2114L8.24512 25.2015L8.98769 23.833L12.1425 23.7571L10.8008 23.0295C10.5507 22.894 10.0393 22.6448 9.77415 22.6139L9.65356 22.6049L10.3074 21.3988L10.3812 21.4984C10.5457 21.6978 11.042 21.9908 11.2922 22.1265L12.9868 23.0455C13.1479 23.1362 13.3143 23.2175 13.4851 23.2888C13.6498 23.3701 13.8244 23.4299 14.0045 23.4661Z" fill="#E9DCBC"/>
<path d="M14.9332 18.7483C15.1087 18.6871 15.2973 18.6733 15.4798 18.7083C15.6624 18.7433 15.8324 18.8259 15.9728 18.9477C16.6337 19.467 16.5968 20.2156 16.0586 20.9004L14.8784 22.3985L14.8216 22.2909C14.688 22.0607 14.2644 21.6928 14.0411 21.5134L12.525 20.3223C12.3007 20.1468 11.8352 19.8239 11.5791 19.7451L11.4614 19.7152L12.6257 18.233C13.1709 17.5353 13.8218 17.3638 14.4757 17.8782C14.6144 17.9776 14.728 18.108 14.8074 18.2591C14.8869 18.4102 14.9299 18.5777 14.9332 18.7483ZM13.5567 19.8199L13.8617 19.4311C14.076 19.159 14.1358 18.9228 13.9025 18.7404C13.6693 18.558 13.449 18.6666 13.2347 18.9397L12.9297 19.3285L13.5567 19.8199ZM14.2813 20.389L14.9033 20.8774L15.2621 20.421C15.4754 20.1488 15.5402 19.9166 15.302 19.7292C15.0638 19.5418 14.8534 19.6594 14.6392 19.9285L14.2813 20.389Z" fill="#E9DCBC"/>
<path d="M22.8892 11.9493C23.0749 11.9466 23.2581 11.9926 23.4205 12.0829C23.5827 12.1732 23.7186 12.3045 23.8142 12.4637C24.2777 13.1614 24.0046 13.8641 23.2778 14.3436L21.6831 15.3962L21.6631 15.2766C21.6093 15.0154 21.3252 14.529 21.1648 14.2918L20.1022 12.6829C19.9457 12.4457 19.6038 11.9852 19.3875 11.8357L19.2878 11.7709L20.8597 10.7323C21.5974 10.2449 22.2672 10.2837 22.7277 10.9795C22.8283 11.1174 22.8951 11.2769 22.9232 11.4453C22.9512 11.6137 22.9396 11.7863 22.8892 11.9493ZM21.2445 12.5314L21.6572 12.2593C21.9452 12.0689 22.0767 11.8606 21.9134 11.6154C21.7499 11.3702 21.5057 11.4031 21.2156 11.5935L20.8029 11.8666L21.2445 12.5314ZM21.7519 13.3L22.1874 13.9608L22.6718 13.6399C22.9609 13.4495 23.0955 13.2492 22.9291 12.997C22.7625 12.7448 22.5304 12.7896 22.2363 12.98L21.7519 13.3Z" fill="#E9DCBC"/>
<path d="M26.7786 12.3709L25.437 12.975L25.469 12.8185C25.5336 12.5115 25.4738 11.9553 25.435 11.6274L25.1689 9.6338C25.1339 9.35869 25.0363 8.76564 24.9068 8.55332L24.8579 8.47356L26.4647 7.75191L26.4886 7.83562C26.6431 8.17951 26.8774 8.4606 27.1255 8.75564L28.4452 10.2747C28.6646 10.5209 29.0265 10.9346 29.3074 11.0931L29.451 11.1708L28.1033 11.7789L28.0825 11.6872C27.9626 11.4278 27.812 11.1838 27.6338 10.9605L26.4785 11.4789C26.5344 11.7251 26.6201 12.1267 26.7297 12.2942L26.7786 12.3709ZM27.0339 10.2239C26.7257 9.84112 26.4237 9.4544 26.0998 9.07862C26.1646 9.57103 26.2523 10.0535 26.329 10.5409L27.0339 10.2239Z" fill="#E9DCBC"/>
<path d="M33.0518 7.13291C33.1926 7.67715 33.0518 8.2164 32.5427 8.57723C32.734 8.75165 32.9572 8.97594 33.2105 9.19126C33.4547 9.41802 33.7258 9.61388 34.0178 9.77438L34.2172 9.86904L32.5765 10.2907L32.5506 10.2139C32.5057 10.0405 32.3093 9.79728 32.073 9.54611C31.8569 9.32682 31.6175 9.11349 31.4751 8.97793L31.3675 9.00585L31.4521 9.3358C31.5209 9.60493 31.6864 10.1492 31.844 10.3645L31.9137 10.4641L30.5789 10.807L30.5988 10.6864C30.6328 10.4223 30.5232 9.87003 30.4524 9.59492L29.9728 7.72699C29.902 7.45188 29.7306 6.90966 29.5742 6.69436L29.4985 6.59468L31.193 6.16005C31.6476 6.04342 32.0592 6.07834 32.382 6.24382C32.551 6.33539 32.6981 6.46216 32.8136 6.61556C32.9293 6.76894 33.0104 6.94538 33.0518 7.13291ZM31.4251 7.04517L30.8989 7.18076L31.1382 8.11476L31.6653 7.97916C31.9763 7.89942 32.1219 7.67016 32.0491 7.38906C31.9763 7.10799 31.7403 6.96544 31.4251 7.04517Z" fill="#E9DCBC"/>
<path d="M42.0461 9.43051L40.5818 9.29796L40.6815 9.17734C40.8889 8.94111 41.1102 8.42775 41.2367 8.12274L41.9832 6.25482C42.0829 5.99766 42.2942 5.43246 42.2824 5.18427V5.09057L44.0356 5.25006L44.0157 5.3348C43.9819 5.71058 44.0485 6.07038 44.1154 6.44917L44.5191 8.42177C44.5888 8.74473 44.7015 9.28202 44.8689 9.55814L44.9557 9.69666L43.4844 9.56209L43.5113 9.47141C43.5343 9.18698 43.5229 8.90083 43.4776 8.61914L42.2155 8.50354C42.1439 8.74576 42.0161 9.13745 42.0341 9.3378L42.0461 9.43051ZM43.322 7.6852C43.2422 7.20077 43.1685 6.7163 43.0697 6.22887C42.8853 6.69039 42.7249 7.1529 42.5524 7.61541L43.322 7.6852Z" fill="#E9DCBC"/>
<path d="M47.9718 10.518C46.4706 10.1272 46.1247 9.00287 46.4417 7.78282C46.7468 6.61061 47.7375 5.78924 49.1569 6.15805C49.4218 6.22834 49.6754 6.33536 49.9106 6.47601C49.9599 6.50773 50.0147 6.53039 50.0719 6.54284C50.1215 6.55943 50.1734 6.56651 50.2256 6.56377L50.3582 6.54779L49.9862 7.97716L49.8747 7.76885C49.7052 7.43792 49.3015 7.14783 48.9248 7.04916C48.1353 6.84381 47.6568 7.38411 47.4823 8.05293C47.291 8.78954 47.4615 9.43347 48.2867 9.64778C48.7054 9.75643 49.2835 9.70757 49.6373 9.5132L49.8297 9.41352L49.5308 10.5738L49.4839 10.5807C49.3638 10.6069 49.2417 10.6242 49.1192 10.6326C48.733 10.6529 48.3461 10.6143 47.9718 10.518Z" fill="#E9DCBC"/>
<path d="M51.925 11.7788L50.5933 11.1538L50.7318 11.0761C51.0069 10.9256 51.3895 10.5179 51.6129 10.2737L52.9556 8.76958C53.141 8.56226 53.5276 8.10176 53.6045 7.86553L53.6333 7.77578L55.2282 8.52335L55.1804 8.59713C55.0198 8.93804 54.9602 9.29486 54.8973 9.67963L54.6053 11.6732C54.5613 12.0001 54.4837 12.5444 54.5464 12.8603L54.5812 13.0198L53.2436 12.3929L53.2995 12.3171C53.4178 12.0568 53.5048 11.7835 53.5585 11.5027L52.4113 10.9655C52.2619 11.1648 52.0127 11.4958 51.9568 11.6871L51.925 11.7788ZM53.7192 10.5717C53.8088 10.0883 53.9044 9.60787 53.9782 9.11645C53.6473 9.48725 53.3393 9.86803 53.0193 10.2438L53.7192 10.5717Z" fill="#E9DCBC"/>
<path d="M60.0414 13.9599C59.3505 14.9776 58.2621 15.3823 57.045 14.558L55.6287 13.5971L55.7284 13.5323C55.9456 13.3888 56.2864 12.9183 56.4401 12.693L57.5226 11.0982C57.6749 10.8739 57.9859 10.3825 58.0429 10.1223L58.0648 10.0028L59.4812 10.9636C59.7551 11.1418 59.9921 11.3713 60.1788 11.6394C60.6663 12.3681 60.5656 13.1884 60.0414 13.9599ZM57.5623 13.7945C58.2601 14.266 58.7484 13.95 59.1513 13.3559C59.5539 12.7618 59.6666 12.1897 58.9718 11.7182L58.5472 11.4301L57.1416 13.5064L57.5623 13.7945Z" fill="#E9DCBC"/>
<path d="M63 18.1702L63.1326 18.228L62.3074 18.9447L59.7935 16.5524L59.9061 16.5066C60.1483 16.395 60.5571 16.0082 60.7535 15.8018L62.081 14.4064C62.2805 14.2 62.6452 13.7664 62.7438 13.5193L62.7848 13.4046L65.1771 15.6763L64.5003 16.5425L64.4354 16.4039C64.3199 16.1577 63.9201 15.744 63.7049 15.5397L63.032 14.9018L62.4837 15.4799L62.9312 15.9055C63.1377 16.1049 63.5723 16.4876 63.8195 16.5863L63.9471 16.6391L63.0798 17.5532L63.0191 17.4286C62.9034 17.1824 62.5086 16.7727 62.2974 16.5723L61.8498 16.1477L61.3045 16.7209L62.1021 17.4784C62.3149 17.6833 62.5433 17.8716 62.7848 18.0416C62.8506 18.0938 62.9229 18.137 63 18.1702Z" fill="#E9DCBC"/>
<path d="M63.3859 19.8748C63.654 19.8249 64.1474 19.5369 64.3828 19.3893L66.0134 18.3577C66.1219 18.2859 66.2267 18.2191 66.3413 18.1354C66.4967 18.0228 66.7679 17.8184 66.8726 17.6669L66.9353 17.5762L67.8813 18.8819L67.8195 18.9348C67.6202 19.0763 67.2345 19.6016 67.0988 19.815L66.3882 20.8775L67.6202 20.5356C67.8933 20.4599 68.4715 20.2785 68.6817 20.126L68.7466 20.0791L69.7013 21.3878L69.5948 21.4187C69.4333 21.4596 69.1413 21.656 68.9967 21.7616C68.8812 21.8444 68.7804 21.9251 68.6688 22.0138L67.1736 23.2388C66.9642 23.4133 66.5296 23.8041 66.3992 24.0362L66.3374 24.1499L65.5291 23.0335L65.6446 23.0036C65.805 22.9716 66.0952 22.7615 66.2357 22.6606C66.3503 22.5769 66.447 22.4993 66.5585 22.4114L67.8116 21.4148L66.1618 21.9071C65.8887 21.9829 65.3057 22.1684 65.1054 22.3128L65.0405 22.3597L64.5621 21.6989L64.6269 21.652C64.8262 21.5104 65.1939 21.0131 65.3465 20.7808L66.3264 19.3624L64.9827 20.2356C64.8641 20.3133 64.7604 20.3811 64.6449 20.4649C64.4579 20.5962 64.2868 20.7483 64.1344 20.9184L64.0698 21.018L63.2612 19.9017L63.3859 19.8748Z" fill="#E9DCBC"/>
<path d="M68.019 27.3574L67.9363 27.4442L67.3452 26.1992H67.4669C67.738 26.1942 68.2592 25.9669 68.5104 25.8474L69.4075 25.4198C69.4215 25.4067 69.4125 25.4038 69.4274 25.3898L69.9747 24.5276C70.184 24.1896 70.5029 23.6953 70.6265 23.3085L70.6864 23.1163L71.3443 24.4997L71.2876 24.5405C71.0522 24.7071 70.6605 25.1934 70.461 25.5075C70.831 25.5513 71.4629 25.5722 71.7329 25.4775L71.7998 25.4595L72.4606 26.8491L72.2743 26.7743C71.8956 26.6257 71.3134 26.553 70.9167 26.5091L69.901 26.3807C69.8798 26.3846 69.8583 26.3846 69.8373 26.3807C69.8182 26.3807 69.8213 26.3746 69.8013 26.3807L68.9531 26.7842C68.6927 26.9059 68.4424 27.0479 68.2044 27.209C68.1384 27.2528 68.0764 27.3026 68.019 27.3574Z" fill="#E9DCBC"/>
<path d="M28.378 72.8651L28.5226 72.871L28.0161 73.8349L24.8176 72.5293L24.9042 72.4456C25.0887 72.254 25.329 71.7477 25.4366 71.4847L26.1623 69.7063C26.2699 69.4433 26.4553 68.9089 26.4612 68.6417V68.5212L29.5063 69.7633L29.1913 70.8127L29.0806 70.7071C28.8814 70.5208 28.363 70.2814 28.09 70.1699L27.2347 69.8209L26.9358 70.5567L27.5058 70.7888C27.7691 70.8964 28.3113 71.0978 28.5763 71.0998H28.7148L28.2355 72.2661L28.1358 72.1714C27.9365 71.9849 27.4232 71.7477 27.156 71.639L26.5849 71.4058L26.2859 72.1354L27.3005 72.5501C27.5716 72.663 27.8508 72.7553 28.1358 72.8263C28.2147 72.8495 28.296 72.8625 28.378 72.8651Z" fill="#E9DCBC"/>
<path d="M32.0732 73.7184C32.0979 73.6186 32.0322 73.499 31.8816 73.3655C31.7312 73.2318 31.5068 73.0665 31.2775 72.8851C30.837 72.5401 30.3804 72.0697 30.5431 71.4069C30.7603 70.5346 31.6295 70.3582 32.4547 70.5646C32.8081 70.6479 33.1447 70.7895 33.4516 70.9832L33.5015 71.015L33.2462 72.0368L33.1327 71.9321C32.8742 71.7048 32.5674 71.5395 32.2356 71.4488C32.0681 71.4069 31.6186 71.3491 31.5607 71.5842C31.5349 71.684 31.5995 71.8095 31.7532 71.956C32.2106 72.3877 33.3369 72.9359 33.0619 74.0342C32.8624 74.8417 31.9305 74.9832 31.1899 74.7989C30.7679 74.6863 30.3721 74.4921 30.0247 74.2277L29.9888 74.1938L30.2768 73.0405L30.3905 73.1961C30.6435 73.5334 30.997 73.7819 31.4003 73.9058C31.5388 73.9439 31.6839 73.9518 31.8259 73.9286C31.8833 73.9224 31.9377 73.8992 31.982 73.8617C32.026 73.824 32.0578 73.7743 32.0732 73.7184Z" fill="#E9DCBC"/>
<path d="M35.435 74.3513L35.6923 72.1484C35.3802 72.1124 34.8948 72.0995 34.6615 72.1484L34.5151 72.1874L34.7453 71.1167L37.8712 71.4856L37.8552 72.5819L37.7206 72.5102C37.5104 72.3987 37.023 72.3049 36.7131 72.2689L36.4568 74.471C36.424 74.752 36.3891 75.3131 36.4568 75.5673L36.4928 75.6839L35.1291 75.5246L35.1849 75.4198C35.22 75.3473 35.2494 75.2719 35.2726 75.1945C35.3485 74.9181 35.4028 74.6361 35.435 74.3513Z" fill="#E9DCBC"/>
<path d="M43.5056 74.2854C43.3199 74.4375 43.1527 74.6108 43.0072 74.8018L43.6051 74.745C43.8933 74.718 44.4614 74.6453 44.7016 74.5236L44.8382 74.4609L44.8303 75.5502L41.8749 75.8304L41.8319 75.3769C41.767 74.6902 42.2655 74.2036 42.7211 73.7959C42.8417 73.6914 42.9563 73.5967 43.0639 73.4911C43.2921 73.2916 43.6211 72.9747 43.5902 72.6496C43.5593 72.3248 43.3291 72.1793 42.9861 72.2122C42.6054 72.2481 42.1727 72.5111 41.9216 72.8013L41.783 72.9626L41.6724 71.7986L41.7133 71.7696C42.0697 71.5329 42.4781 71.3856 42.9035 71.3409C43.7866 71.2572 44.5283 71.6511 44.61 72.5092C44.6668 73.1073 44.2929 73.5419 43.9032 73.9246C43.7747 74.0552 43.6371 74.1679 43.5056 74.2854Z" fill="#E9DCBC"/>
<path d="M49.637 72.3269C49.9022 73.4234 49.6719 74.5936 48.4629 74.8855C47.2537 75.1777 46.5091 74.2486 46.2431 73.1472C45.9818 72.0638 46.222 70.8836 47.4253 70.5925C47.694 70.5193 47.9774 70.5164 48.2475 70.5846C48.9683 70.8029 49.4367 71.4946 49.637 72.3269ZM47.2447 72.905C47.3574 73.3726 47.6355 74.1541 48.2516 74.0016C48.8675 73.849 48.75 73.0197 48.6393 72.5642C48.5287 72.1085 48.2645 71.3241 47.6425 71.4747C47.5741 71.4872 47.5088 71.513 47.4507 71.551C47.3924 71.5891 47.3425 71.6384 47.3037 71.6961C47.0882 72.0299 47.1562 72.5463 47.2427 72.905H47.2447Z" fill="#E9DCBC"/>
<path d="M50.5515 70.6503L50.6252 69.6835L51.5602 69.3357L52.6565 72.268C52.7562 72.5333 52.9796 73.0477 53.1549 73.2438L53.2397 73.3306L51.9529 73.81L51.96 73.6885C51.9687 73.4293 51.7864 72.8861 51.6897 72.626L50.9421 70.6174L50.5515 70.6503Z" fill="#E9DCBC"/>
<path d="M55.588 71.3629C55.9667 71.1715 56.1083 70.8515 55.9339 70.5048C55.6537 69.9496 55.0517 70.1638 54.4746 70.4559L54.315 70.5357L54.669 68.9289L54.4158 69.0565C54.1636 69.184 53.6581 69.4672 53.4828 69.6665L53.3831 69.785L52.9844 68.7595L55.2919 67.5981L55.6577 68.3238L55.4385 69.2827C56.0914 69.222 56.5719 69.476 56.8489 70.0263C57.2625 70.8445 56.8011 71.7337 55.9428 72.1664C55.597 72.3417 55.0457 72.4814 54.6471 72.3867L54.608 72.3788L54.0759 71.3232L54.2992 71.4109C54.6151 71.52 54.9548 71.5413 55.282 71.4727C55.3883 71.4499 55.4913 71.4131 55.588 71.3629Z" fill="#E9DCBC"/>
<path d="M7.13789 34.3608C7.13789 33.694 6.87305 33.0545 6.40165 32.5828C5.93024 32.1113 5.29083 31.8461 4.62402 31.8459C5.29074 31.8459 5.93015 31.5811 6.40158 31.1097C6.87303 30.6382 7.13789 29.9987 7.13789 29.3322C7.13789 29.9987 7.40274 30.6382 7.87417 31.1097C8.34562 31.5811 8.98503 31.8459 9.65175 31.8459C8.98492 31.8461 8.34554 32.1113 7.87411 32.5828C7.4027 33.0545 7.13789 33.694 7.13789 34.3608Z" fill="#E9DCBC"/>
<path d="M72.5262 34.5341C72.5262 33.8676 72.2614 33.2281 71.79 32.7566C71.3185 32.2852 70.679 32.0204 70.0125 32.0204C70.3425 32.0204 70.6693 31.9553 70.9744 31.8291C71.2793 31.7028 71.5566 31.5176 71.79 31.2842C72.0234 31.0505 72.2086 30.7735 72.3349 30.4686C72.4611 30.1635 72.5262 29.8367 72.5262 29.5064C72.5262 29.8367 72.5913 30.1635 72.7175 30.4686C72.844 30.7735 73.029 31.0505 73.2624 31.2842C73.4958 31.5176 73.7731 31.7028 74.078 31.8291C74.3831 31.9553 74.7099 32.0204 75.0402 32.0204C74.3734 32.0204 73.7339 32.2852 73.2624 32.7566C72.791 33.2281 72.5262 33.8676 72.5262 34.5341Z" fill="#E9DCBC"/>
<path d="M20.9305 70.1089C20.9599 69.4431 20.7238 68.7928 20.2738 68.3009C19.8239 67.8091 19.1971 67.5163 18.5312 67.4865C19.1971 67.5158 19.8475 67.2798 20.3392 66.8298C20.831 66.3798 21.124 65.753 21.1537 65.0871C21.1243 65.7532 21.3605 66.4035 21.8104 66.8951C22.2602 67.387 22.887 67.68 23.5529 67.7098C22.887 67.6802 22.2367 67.9165 21.7449 68.3665C21.2532 68.8162 20.9602 69.4431 20.9305 70.1089Z" fill="#E9DCBC"/>
<path d="M62.238 69.0067C61.9281 68.4167 61.3963 67.9739 60.7599 67.776C60.1234 67.5779 59.4345 67.6408 58.8442 67.9505C59.4343 67.6403 59.877 67.1086 60.0751 66.4723C60.2731 65.8358 60.2104 65.1467 59.9005 64.5567C60.2106 65.1467 60.7423 65.5895 61.3788 65.7874C62.0151 65.9855 62.7042 65.9228 63.2944 65.6129C62.7044 65.9231 62.2617 66.4548 62.0635 67.0911C61.8654 67.7276 61.9283 68.4167 62.238 69.0067Z" fill="#E9DCBC"/>
</g>
</g>
<defs>
<clipPath id="clip0_209_1927">
<rect width="80" height="80" fill="white"/>
</clipPath>
</defs>
</svg>
