<svg width="171" height="321" viewBox="0 0 171 321" fill="none" xmlns="http://www.w3.org/2000/svg">
<g opacity="0.5" clip-path="url(#clip0_166_3697)">
<path d="M167.434 58.5149C166.426 93.1773 163.564 139.233 155.708 163.751C144.099 199.8 136.29 221.961 142.974 276.151C143.771 282.691 144.78 289.693 146.022 297.226C147.008 303.142 142.762 308.919 135.634 310.929C118.339 315.404 100.511 317.557 82.6322 317.331C66.8619 317.454 51.1281 315.826 35.7281 312.478C28.0593 310.699 23.2987 304.713 24.3305 298.612C25.7845 289.855 26.9336 281.835 27.8013 274.441C34.0865 221.568 26.3476 199.523 14.8327 163.867C7.09355 139.787 4.23242 95.0264 3.10673 60.5714C2.63769 44.9963 2.56738 31.5471 2.56738 23.0663C2.56738 17.5896 6.99972 12.6443 13.6366 10.9343C36.214 5.50275 59.3926 2.87876 82.6322 3.12358C111.736 3.12358 138.166 6.75159 157.678 12.6211C163.916 14.5161 167.973 19.2765 167.95 24.5453C167.903 32.587 167.809 44.6497 167.434 58.5149Z" fill="#052B12" stroke="#095424" stroke-width="4.80058" stroke-miterlimit="10"/>
<mask id="mask0_166_3697" style="mask-type:luminance" maskUnits="userSpaceOnUse" x="18" y="17" width="134" height="288">
<path d="M141.183 163.805L141.182 163.805C140.925 164.716 140.67 165.617 140.418 166.51C136.107 181.756 132.511 194.476 130.558 209.054C128.489 224.493 128.265 241.996 130.952 266.808C131.596 272.784 132.411 279.18 133.408 286.084C133.71 288.666 133.084 291.272 131.64 293.434C130.195 295.598 128.026 297.176 125.522 297.886L125.51 297.889L125.499 297.893C114.319 301.502 99.4835 303.7 83.186 303.7H83.1803C70.5398 303.808 57.9354 302.33 45.663 299.299C39.7963 297.745 36.2175 292.559 36.9654 287.234C38.1342 279.223 39.0539 271.906 39.7503 265.125C42.2802 240.923 41.9904 223.749 39.9051 208.536C37.9301 194.128 34.3457 181.497 30.053 166.37C29.8163 165.535 29.5774 164.694 29.3365 163.844C23.1434 141.945 20.8458 101.041 19.9923 69.5308C19.6253 55.334 19.5596 43.0499 19.5596 35.2981C19.6344 32.8822 20.4919 30.5558 22.0033 28.6693C23.5168 26.7803 25.6037 25.435 27.9491 24.8363L27.9611 24.8332L27.9728 24.8297C42.9526 20.4025 62.1641 17.7185 83.1469 17.7185C106.449 17.7185 127.631 21.0184 143.149 26.3561L143.158 26.3595L143.169 26.3626C145.38 27.0454 147.322 28.4067 148.718 30.2538C150.113 32.0993 150.892 34.3364 150.946 36.649C150.986 44.0947 150.907 55.1076 150.605 67.7865C149.804 99.5193 147.507 141.5 141.183 163.805Z" fill="white" stroke="white" stroke-width="1.28344"/>
</mask>
<g mask="url(#mask0_166_3697)">
<path d="M37.9951 218.936C46.3535 218.936 46.3535 224.958 54.7252 224.958C63.0967 224.958 63.0836 218.936 71.4555 218.936C79.8267 218.936 79.8139 224.958 88.1851 224.958C96.557 224.958 96.5435 218.936 104.915 218.936C113.287 218.936 113.287 224.958 121.659 224.958C130.03 224.958 130.03 218.936 138.402 218.936" stroke="#E9DCBC" stroke-width="2.56688" stroke-miterlimit="10"/>
<path d="M37.9951 227.557C46.3535 227.557 46.3535 233.58 54.7252 233.58C63.0967 233.58 63.0836 227.557 71.4555 227.557C79.8267 227.557 79.8139 233.58 88.1851 233.58C96.557 233.58 96.5435 227.557 104.915 227.557C113.287 227.557 113.287 233.58 121.659 233.58C130.03 233.58 130.03 227.557 138.402 227.557" stroke="#E9DCBC" stroke-width="2.56688" stroke-miterlimit="10"/>
<path d="M37.9951 236.177C46.3535 236.177 46.3535 242.2 54.7252 242.2C63.0967 242.2 63.0836 236.177 71.4555 236.177C79.8267 236.177 79.8139 242.2 88.1851 242.2C96.557 242.2 96.5435 236.177 104.915 236.177C113.287 236.177 113.287 242.2 121.659 242.2C130.03 242.2 130.03 236.177 138.402 236.177" stroke="#E9DCBC" stroke-width="2.56688" stroke-miterlimit="10"/>
<path d="M37.9951 244.799C46.3535 244.799 46.3535 250.821 54.7252 250.821C63.0967 250.821 63.0836 244.799 71.4555 244.799C79.8267 244.799 79.8139 250.821 88.1851 250.821C96.557 250.821 96.5435 244.799 104.915 244.799C113.287 244.799 113.287 250.821 121.659 250.821C130.03 250.821 130.03 244.799 138.402 244.799" stroke="#E9DCBC" stroke-width="2.56688" stroke-miterlimit="10"/>
<path d="M37.9951 253.419C46.3535 253.419 46.3535 259.441 54.7252 259.441C63.0967 259.441 63.0836 253.419 71.4555 253.419C79.8267 253.419 79.8139 259.441 88.1851 259.441C96.557 259.441 96.5435 253.419 104.915 253.419C113.287 253.419 113.287 259.441 121.659 259.441C130.03 259.441 130.03 253.419 138.402 253.419" stroke="#E9DCBC" stroke-width="2.56688" stroke-miterlimit="10"/>
<path d="M37.9951 262.001C46.3535 262.001 46.3535 268.025 54.7252 268.025C63.0967 268.025 63.0836 262.001 71.4555 262.001C79.8267 262.001 79.8139 268.025 88.1851 268.025C96.557 268.025 96.5435 262.001 104.915 262.001C113.287 262.001 113.287 268.025 121.659 268.025C130.03 268.025 130.03 262.001 138.402 262.001" stroke="#E9DCBC" stroke-width="2.56688" stroke-miterlimit="10"/>
<path d="M37.9951 270.66C46.3535 270.66 46.3535 276.683 54.7252 276.683C63.0967 276.683 63.0836 270.66 71.4555 270.66C79.8267 270.66 79.8139 276.683 88.1851 276.683C96.557 276.683 96.5435 270.66 104.915 270.66C113.287 270.66 113.287 276.683 121.659 276.683C130.03 276.683 130.03 270.66 138.402 270.66" stroke="#E9DCBC" stroke-width="2.56688" stroke-miterlimit="10"/>
<path d="M37.9951 279.282C46.3535 279.282 46.3535 285.305 54.7252 285.305C63.0967 285.305 63.0836 279.282 71.4555 279.282C79.8267 279.282 79.8139 285.305 88.1851 285.305C96.557 285.305 96.5435 279.282 104.915 279.282C113.287 279.282 113.287 285.305 121.659 285.305C130.03 285.305 130.03 279.282 138.402 279.282" stroke="#E9DCBC" stroke-width="2.56688" stroke-miterlimit="10"/>
<path d="M37.9951 287.901C46.3535 287.901 46.3535 293.924 54.7252 293.924C63.0967 293.924 63.0836 287.901 71.4555 287.901C79.8267 287.901 79.8139 293.924 88.1851 293.924C96.557 293.924 96.5435 287.901 104.915 287.901C113.287 287.901 113.287 293.924 121.659 293.924C130.03 293.924 130.03 287.901 138.402 287.901" stroke="#E9DCBC" stroke-width="2.56688" stroke-miterlimit="10"/>
<path d="M37.9951 296.524C46.3535 296.524 46.3535 302.546 54.7252 302.546C63.0967 302.546 63.0836 296.524 71.4555 296.524C79.8267 296.524 79.8139 302.546 88.1851 302.546C96.557 302.546 96.5435 296.524 104.915 296.524C113.287 296.524 113.287 302.546 121.659 302.546C130.03 302.546 130.03 296.524 138.402 296.524" stroke="#E9DCBC" stroke-width="2.56688" stroke-miterlimit="10"/>
<mask id="mask1_166_3697" style="mask-type:luminance" maskUnits="userSpaceOnUse" x="7" y="-48" width="156" height="247">
<path d="M162.834 99.8069V97.6151C162.692 78.3363 155.375 59.8018 142.308 45.625C129.243 31.4481 111.365 22.6457 92.1613 20.9339L89.944 20.7764C89.944 20.186 89.944 19.5955 89.944 19.005C89.944 18.8082 89.944 18.6114 89.944 18.5064C89.8894 5.53894 86.7432 -7.22868 80.7668 -18.7368C74.7903 -30.245 66.155 -40.1621 55.5783 -47.665L53.059 -44.1354C61.4413 -38.1432 68.5513 -30.5474 73.9771 -21.7881C79.403 -13.0287 83.0373 -3.27982 84.6693 6.8939C85.2844 10.7741 85.6002 14.6958 85.6137 18.6245C85.6137 18.7557 85.6137 18.8868 85.6137 19.018C85.6137 19.5691 85.6137 20.1072 85.6137 20.6452H85.1936C64.6569 20.7042 44.9799 28.8973 30.4703 43.4314C15.9607 57.9653 7.80056 77.6559 7.77637 98.1927V98.7567L7.88131 100.87H9.99383C15.5517 100.753 21.083 100.067 26.5009 98.8227C18.7759 110.393 14.6653 123.999 14.6915 137.912V138.436L14.7964 140.562H16.9221C24.1792 140.403 31.3748 139.192 38.2841 136.967C30.3008 147.315 25.9765 160.02 25.9891 173.09C25.9891 173.247 25.9891 173.392 25.9891 173.549L26.081 175.662H28.1935C42.9196 175.374 57.0633 169.857 68.0964 160.1C68.8973 173.652 74.3262 186.52 83.4751 196.551L84.9445 198.138L86.5453 196.682C96.5953 187.541 103.185 175.213 105.204 161.779C115.772 170.292 128.939 174.923 142.509 174.9H144.687V172.722C144.631 159.494 140.156 146.665 131.972 136.271C139.031 138.547 146.403 139.703 153.82 139.696H155.998V137.347C155.904 123.285 151.599 109.574 143.637 97.9827C149.237 99.2328 154.957 99.8622 160.695 99.8594L162.834 99.8069ZM140.239 170.361C127.463 169.88 115.257 164.951 105.729 156.426L104.955 155.717C104.404 155.219 103.866 154.681 103.328 154.142C102.79 153.604 102.278 153.067 101.766 152.503C101.255 151.938 100.756 151.374 100.283 150.797C100.137 150.644 100.001 150.482 99.8769 150.311C99.74 150.153 99.6129 149.987 99.4966 149.813C104.331 141.735 107.487 132.765 108.773 123.439C112.969 126.904 117.554 129.872 122.433 132.282C127.764 137.143 132.082 143.009 135.138 149.544C138.194 156.079 139.927 163.153 140.239 170.361ZM85.1283 24.962H85.3383C85.332 25.0187 85.332 25.076 85.3383 25.1326C85.3383 25.7887 85.2199 26.4448 85.1546 27.1271C85.161 27.2451 85.161 27.3634 85.1546 27.4814C85.1546 28.0456 85.0233 28.6229 84.9573 29.1871L84.8395 30.04L84.6033 31.5359C84.6033 31.9033 84.4855 32.2838 84.4195 32.6643C84.3542 33.0449 84.2095 33.8191 84.0917 34.3964V34.5931C83.9994 35.0524 83.9079 35.5116 83.7894 35.9053C83.6064 36.7319 83.4091 37.5717 83.1991 38.3852C83.0941 38.8314 82.9763 39.2687 82.845 39.6974C82.1177 42.3945 81.2422 45.0491 80.2204 47.6491C79.5513 49.3155 78.8297 50.9556 78.0684 52.5696L77.3993 53.8817C77.2027 54.3016 76.9927 54.6952 76.7699 55.1019C76.3498 55.9024 75.917 56.7029 75.4573 57.4902C74.9982 58.2774 74.5391 59.0777 74.0538 59.8519C73.0959 61.3871 72.0983 62.8962 71.0226 64.3526C69.719 66.1459 68.3324 67.8954 66.8628 69.6012C65.9574 70.6509 65.0128 71.6873 64.0418 72.6849C64.001 72.7473 63.9525 72.8048 63.8975 72.8552L63.5038 73.2625C62.4016 74.3771 61.2732 75.4663 60.1185 76.4901C54.0812 81.9599 47.2113 86.4335 39.7668 89.7428C38.0873 90.4907 36.3683 91.186 34.6363 91.8026C33.3504 92.2751 32.0381 92.7122 30.6998 93.1145C24.6829 94.9373 18.4647 96.0123 12.1852 96.3167C12.6966 77.2699 20.6019 59.1703 34.2272 45.8514C47.8524 32.5326 66.1272 25.0405 85.1808 24.962H85.1283ZM90.5868 55.7974C90.9544 56.5716 91.3347 57.3195 91.715 58.0674C92.1088 58.8153 92.5154 59.5502 92.9227 60.285C92.9227 60.285 92.9227 60.3768 93.0014 60.4162C93.3945 61.1116 93.8018 61.7283 94.2084 62.4762L95.5203 64.4838C95.5203 64.4838 95.5203 64.5888 95.6253 64.6282C96.0844 65.3367 96.5569 66.0452 97.0557 66.7406L97.6333 67.5673L98.2102 68.3808C98.2762 68.3808 98.3152 68.5121 98.3812 68.5908C98.4464 68.6695 98.499 68.7221 98.5515 68.8008C99.0503 69.4831 99.5753 70.113 100.113 70.8215V70.9133L100.192 71.0051C100.611 71.539 101.049 72.0633 101.504 72.5799L101.793 72.934L102.554 73.8003L103.367 74.6794C103.945 75.3088 104.535 75.9913 105.125 76.5426C105.716 77.0932 106.332 77.7495 106.95 78.3399C106.039 87.9874 103.211 97.3561 98.6302 105.895C98.2499 106.617 97.8561 107.325 97.4361 108.02C97.016 108.716 96.6492 109.333 96.2419 110.041C95.3763 111.354 94.4574 112.784 93.4867 114.109C93.0142 114.792 92.5154 115.461 91.991 116.117C91.4787 116.799 90.9409 117.429 90.3896 118.138C89.839 118.846 89.3927 119.318 88.8676 119.882C88.3426 120.447 87.9757 120.88 87.5557 121.378L86.3487 122.625C85.9287 123.058 85.4959 123.491 85.0361 123.937L84.1045 122.835C82.845 121.313 81.6551 119.747 80.5355 118.138C80.0629 117.468 79.6038 116.825 79.1447 116.091C78.6857 115.356 78.2919 114.778 77.8328 114.056C76.9664 112.626 76.1526 111.157 75.4047 109.674C75.0117 108.939 74.6569 108.204 74.3028 107.456C73.9488 106.708 73.6075 105.934 73.2797 105.173C69.3563 96.0555 67.3382 86.232 67.3485 76.3064V75.3222L68.8967 73.6428C68.8967 73.6428 68.8968 73.6428 68.9624 73.564C69.3954 73.0787 69.8153 72.5927 70.2746 72.0946L70.4583 71.8845L70.9306 71.3332L71.4029 70.769C71.5604 70.5591 71.7307 70.3623 71.8882 70.1655C72.0458 69.9687 72.033 69.9685 72.1117 69.8898L73.3059 68.3547L73.4237 68.1841C74.1453 67.2394 74.8407 66.2683 75.5098 65.2842C75.7723 64.9168 76.0348 64.5363 76.2839 64.1557C76.6124 63.6703 76.9402 63.1716 77.2552 62.6599C77.5703 62.1482 78.0691 61.3477 78.4494 60.7048C78.8297 60.0619 79.2235 59.3926 79.591 58.7103C79.9586 58.0281 80.3254 57.3983 80.6802 56.7029C81.0343 56.0074 81.3755 55.3906 81.7034 54.6427C82.0312 53.8948 82.2412 53.5273 82.491 52.9631C82.6222 52.7007 82.74 52.4383 82.845 52.1759C83.0941 51.6117 83.3438 51.0476 83.5666 50.4834C84.1442 49.1712 84.682 47.7409 85.1674 46.35C85.2858 46.0089 85.4036 45.6808 85.5086 45.3265C85.6137 44.9723 85.6534 44.933 85.7187 44.723L85.9549 44.0013C86.1912 44.8148 86.4403 45.6283 86.7156 46.4287C87.2279 48.0426 87.8182 49.6304 88.4611 51.2049C89.1039 52.7795 89.9043 54.2753 90.6393 55.7974H90.5868ZM100.257 115.185L100.638 115.644C101.622 116.746 102.619 117.809 103.656 118.859C104.01 119.227 104.378 119.581 104.745 119.935C104.745 120.447 104.653 120.945 104.588 121.457C103.568 130.086 100.857 138.428 96.6094 146.007C96.2157 146.703 95.8091 147.398 95.389 148.081C94.9697 148.763 94.5624 149.393 94.0771 150.049C93.9983 149.944 93.9196 149.852 93.8543 149.747L94.0643 150.049C91.4454 154.024 88.405 157.707 84.9971 161.031C82.0212 157.556 79.4172 153.778 77.229 149.76C76.8352 149.051 76.4549 148.33 76.1008 147.608C75.746 146.887 75.3792 146.112 75.0244 145.365C71.4781 137.512 69.4993 129.044 69.1985 120.434C69.1985 119.672 69.1985 118.912 69.1985 118.15V117.271L70.0383 116.379L70.8518 115.487L70.9829 115.329C71.4554 114.792 71.928 114.254 72.3743 113.702L72.4921 113.571L73.2534 114.883C73.6209 115.539 74.014 116.196 74.4206 116.865C74.8279 117.534 75.2472 118.177 75.7333 118.846C77.8881 122.146 80.3013 125.27 82.95 128.188C83.0678 128.333 83.1991 128.464 83.3176 128.595L84.6295 130.078L84.7473 130.209L86.2962 128.792C86.3899 128.715 86.4772 128.632 86.5581 128.543C86.8731 128.267 87.1754 127.978 87.4769 127.69L88.4085 126.798C90.8955 124.335 93.2107 121.704 95.3365 118.925C95.8353 118.294 96.3207 117.613 96.7804 116.996C97.2395 116.379 97.7121 115.683 98.1577 115.067L98.9978 113.755C99.5093 114.266 99.9031 114.726 100.31 115.185H100.257ZM63.1495 79.5213C63.5581 89.8116 66.0209 99.9161 70.3926 109.241C69.3954 110.553 68.3588 111.76 67.2566 112.955C66.6923 113.571 66.1282 114.188 65.5377 114.804L65.1702 115.185C64.0156 116.352 62.8346 117.481 61.6012 118.557C49.773 129.048 34.7319 135.211 18.9429 136.035C19.3198 121.819 24.2865 108.106 33.101 96.946C44.2782 93.3863 54.5488 87.4411 63.202 79.5213H63.1495ZM47.2723 133.24C53.2907 130.354 58.8917 126.669 63.9236 122.283C64.2779 122.126 64.6322 121.982 64.9996 121.851C65.5051 131.395 67.9518 140.735 72.1905 149.3C71.0403 150.756 69.8137 152.148 68.5161 153.473L67.9257 154.103C57.8899 164.231 44.4729 170.304 30.2406 171.161C30.7246 156.765 36.863 143.141 47.3249 133.24H47.2723ZM72.2033 155.888C72.4793 155.612 72.7411 155.324 72.9909 155.035C73.2399 154.746 73.2789 154.707 73.4365 154.55C73.594 154.392 73.9225 153.998 74.1453 153.709C74.2297 153.636 74.3049 153.553 74.3688 153.46C76.9005 157.829 79.8919 161.916 83.2913 165.65L84.7608 167.251L86.3615 165.768C90.3037 162.147 93.8245 158.093 96.8592 153.683L97.0167 153.867C97.4758 154.405 97.9349 154.93 98.4074 155.455C99.0765 156.177 99.7194 156.885 100.441 157.554C100.651 157.773 100.861 157.983 101.071 158.184C99.8315 170.937 94.1516 182.849 85.0233 191.841C76.6784 181.924 72.1132 169.373 72.138 156.413L72.2033 155.888ZM124.768 128.635C119.559 126.114 114.705 122.915 110.335 119.122C109.98 118.833 109.613 118.518 109.272 118.203L108.498 117.494C107.842 116.878 107.185 116.247 106.556 115.618C105.584 114.634 104.653 113.637 103.747 112.613C103.171 111.944 102.606 111.301 102.055 110.592L101.478 109.858C106.406 101.232 109.615 91.7309 110.925 81.8826C118.582 88.2769 127.411 93.1166 136.919 96.1329C145.86 107.232 150.974 120.925 151.497 135.169C142.26 134.868 133.188 132.643 124.861 128.635H124.768ZM135.082 90.937C133.377 90.3069 131.696 89.6243 130.043 88.8637C123.483 85.8723 117.407 81.9188 112.014 77.133C111.555 76.7392 111.109 76.3191 110.702 75.9126C109.981 75.2435 109.258 74.6006 108.55 73.8393L108.274 73.5505L108.013 73.2752L107.435 72.6849L106.884 72.0946C106.254 71.4248 105.65 70.7821 105.06 70.0473C104.207 69.0763 103.393 68.066 102.607 67.0557L101.7 65.8616C101.395 65.4592 101.106 65.0524 100.835 64.6413C100.249 63.8277 99.6846 63.001 99.1418 62.1613C98.6175 61.374 98.1186 60.5736 97.6461 59.7732L96.8067 58.3299C96.5569 57.8969 96.3207 57.4508 96.0844 57.0177C95.8481 56.5848 95.6125 56.1386 95.389 55.7056C94.9605 54.8921 94.5539 54.0654 94.1686 53.2256C93.2895 51.3493 92.4891 49.4467 91.7675 47.4916C91.4525 46.6518 91.1644 45.812 90.8884 44.9723C90.8096 44.7492 90.7444 44.5261 90.6784 44.303C90.6131 44.08 90.4556 43.5946 90.3506 43.2403C89.5232 40.4973 88.8662 37.7058 88.3823 34.8819C88.5001 34.1996 88.6313 33.5698 88.7498 32.8612C88.7498 32.5856 88.8414 32.3232 88.8811 32.0608C88.9989 31.3785 89.0911 30.7486 89.1827 30.0269C89.2742 29.3052 89.3799 28.3999 89.4714 27.5732C89.563 26.7465 89.629 26.038 89.6815 25.2638V25.1195L91.7285 25.2901C109.512 26.7799 126.128 34.7508 138.419 47.6881C150.711 60.6254 157.821 77.6275 158.399 95.4638C151.913 95.2743 145.48 94.2285 139.268 92.3539C137.916 91.9076 136.486 91.4223 135.174 90.937H135.082Z" fill="white"/>
</mask>
<g mask="url(#mask1_166_3697)">
<path d="M162.834 99.8069V97.6151C162.692 78.3363 155.374 59.8017 142.308 45.625C129.243 31.4481 111.365 22.6457 92.1611 20.9339L89.9438 20.7764C89.9438 20.186 89.9438 19.5955 89.9438 19.005C89.9438 18.8082 89.9438 18.6114 89.9438 18.5064C89.8891 5.53894 86.743 -7.22868 80.7665 -18.7368C74.79 -30.245 66.1547 -40.1621 55.578 -47.665L53.0588 -44.1354C61.441 -38.1432 68.551 -30.5474 73.9769 -21.7881C79.4028 -13.0287 83.0371 -3.27982 84.669 6.8939C85.2842 10.7741 85.5999 14.6958 85.6134 18.6245C85.6134 18.7557 85.6134 18.8868 85.6134 19.018C85.6134 19.5691 85.6134 20.1072 85.6134 20.6452H85.1934C64.6566 20.7042 44.9796 28.8973 30.47 43.4314C15.9604 57.9653 7.80032 77.6559 7.77612 98.1927V98.7567L7.88106 100.87H9.99359C15.5514 100.753 21.0828 100.067 26.5007 98.8227C18.7757 110.393 14.6651 123.999 14.6913 137.912V138.436L14.7961 140.562H16.9219C24.1789 140.403 31.3745 139.192 38.2839 136.967C30.3005 147.315 25.9763 160.02 25.9889 173.09C25.9889 173.247 25.9889 173.392 25.9889 173.549L26.0807 175.662H28.1932C42.9194 175.374 57.0631 169.857 68.0961 160.1C68.8971 173.652 74.326 186.52 83.4748 196.551L84.9443 198.138L86.545 196.682C96.595 187.541 103.185 175.213 105.204 161.779C115.772 170.292 128.939 174.923 142.509 174.9H144.687V172.722C144.63 159.494 140.155 146.664 131.972 136.271C139.031 138.547 146.403 139.703 153.82 139.696H155.998V137.347C155.904 123.285 151.599 109.574 143.637 97.9826C149.237 99.2328 154.957 99.8622 160.695 99.8594L162.834 99.8069ZM140.238 170.361C127.463 169.88 115.257 164.951 105.729 156.426L104.955 155.717C104.404 155.219 103.866 154.681 103.328 154.142C102.789 153.604 102.278 153.067 101.766 152.503C101.255 151.938 100.756 151.374 100.283 150.797C100.137 150.644 100.001 150.482 99.8766 150.311C99.7397 150.153 99.6127 149.987 99.4963 149.813C104.331 141.735 107.487 132.765 108.773 123.439C112.969 126.904 117.554 129.872 122.432 132.282C127.764 137.143 132.081 143.009 135.137 149.544C138.193 156.079 139.927 163.153 140.238 170.361ZM85.1281 24.962H85.3381C85.3317 25.0187 85.3317 25.076 85.3381 25.1326C85.3381 25.7887 85.2196 26.4448 85.1543 27.1271C85.1607 27.2451 85.1607 27.3634 85.1543 27.4814C85.1543 28.0456 85.0231 28.6229 84.9571 29.1871L84.8393 30.04L84.603 31.5359C84.603 31.9033 84.4852 32.2838 84.4192 32.6643C84.354 33.0448 84.2092 33.8191 84.0914 34.3964V34.5931C83.9992 35.0524 83.9077 35.5116 83.7892 35.9053C83.6061 36.7319 83.4089 37.5717 83.1988 38.3852C83.0938 38.8314 82.976 39.2687 82.8448 39.6974C82.1175 42.3945 81.2419 45.0491 80.2202 47.6491C79.5511 49.3155 78.8295 50.9556 78.0681 52.5696L77.399 53.8817C77.2025 54.3016 76.9925 54.6952 76.7697 55.1019C76.3496 55.9024 75.9168 56.7028 75.457 57.4901C74.9979 58.2774 74.5388 59.0777 74.0535 59.8519C73.0956 61.3871 72.098 62.8962 71.0224 64.3526C69.7188 66.1459 68.3322 67.8954 66.8626 69.6012C65.9572 70.6509 65.0126 71.6873 64.0416 72.6849C64.0007 72.7473 63.9522 72.8048 63.8973 72.8552L63.5035 73.2625C62.4013 74.3771 61.2729 75.4663 60.1182 76.4901C54.081 81.9599 47.2111 86.4336 39.7666 89.7428C38.087 90.4907 36.368 91.186 34.636 91.8026C33.3501 92.2751 32.0379 92.7122 30.6996 93.1145C24.6827 94.9373 18.4645 96.0123 12.1849 96.3166C12.6963 77.2699 20.6017 59.1703 34.2269 45.8514C47.8521 32.5326 66.1269 25.0405 85.1806 24.962H85.1281ZM90.5866 55.7974C90.9541 56.5716 91.3345 57.3195 91.7148 58.0674C92.1086 58.8153 92.5151 59.5502 92.9224 60.285C92.9224 60.285 92.9224 60.3768 93.0012 60.4162C93.3943 61.1116 93.8015 61.7283 94.2081 62.4762L95.5201 64.4838C95.5201 64.4838 95.5201 64.5888 95.6251 64.6281C96.0841 65.3367 96.5567 66.0452 97.0555 66.7406L97.6331 67.5673L98.2099 68.3808C98.2759 68.3808 98.3149 68.5121 98.3809 68.5908C98.4462 68.6695 98.4987 68.7221 98.5512 68.8008C99.05 69.4831 99.5751 70.113 100.113 70.8215V70.9133L100.192 71.0051C100.611 71.539 101.049 72.0633 101.504 72.5799L101.792 72.934L102.554 73.8003L103.367 74.6794C103.944 75.3088 104.535 75.9913 105.125 76.5426C105.715 77.0932 106.332 77.7496 106.949 78.3399C106.039 87.9874 103.211 97.3561 98.63 105.895C98.2497 106.617 97.8559 107.325 97.4358 108.02C97.0158 108.716 96.6489 109.333 96.2417 110.041C95.376 111.354 94.4572 112.784 93.4865 114.109C93.0139 114.792 92.5151 115.461 91.9908 116.117C91.4785 116.799 90.9407 117.429 90.3893 118.138C89.8387 118.846 89.3924 119.318 88.8674 119.882C88.3423 120.446 87.9755 120.88 87.5554 121.378L86.3485 122.625C85.9284 123.058 85.4956 123.491 85.0358 123.937L84.1042 122.835C82.8448 121.313 81.6549 119.747 80.5352 118.138C80.0627 117.468 79.6036 116.825 79.1445 116.091C78.6854 115.356 78.2916 114.778 77.8326 114.056C76.9662 112.626 76.1524 111.157 75.4045 109.674C75.0114 108.939 74.6566 108.204 74.3026 107.456C73.9485 106.708 73.6072 105.934 73.2794 105.173C69.3561 96.0555 67.338 86.232 67.3483 76.3064V75.3222L68.8965 73.6428C68.8965 73.6428 68.8966 73.6428 68.9622 73.564C69.3952 73.0787 69.8151 72.5927 70.2744 72.0946L70.4581 71.8845L70.9304 71.3332L71.4027 70.769C71.5602 70.5591 71.7305 70.3623 71.888 70.1655C72.0455 69.9687 72.0327 69.9685 72.1115 69.8898L73.3057 68.3547L73.4234 68.1841C74.1451 67.2394 74.8404 66.2683 75.5095 65.2842C75.772 64.9168 76.0346 64.5363 76.2836 64.1557C76.6121 63.6703 76.9399 63.1716 77.255 62.6599C77.57 62.1482 78.0688 61.3477 78.4491 60.7048C78.8295 60.0619 79.2233 59.3926 79.5908 58.7103C79.9583 58.0281 80.3252 57.3983 80.68 56.7029C81.034 56.0074 81.3753 55.3906 81.7031 54.6427C82.0309 53.8948 82.2409 53.5273 82.4907 52.9631C82.622 52.7007 82.7398 52.4383 82.8448 52.1759C83.0938 51.6117 83.3436 51.0476 83.5664 50.4834C84.1439 49.1712 84.6818 47.7409 85.1671 46.35C85.2856 46.0089 85.4034 45.6808 85.5084 45.3265C85.6134 44.9723 85.6531 44.933 85.7184 44.723L85.9547 44.0013C86.191 44.8148 86.44 45.6283 86.7153 46.4287C87.2276 48.0426 87.818 49.6304 88.4608 51.2049C89.1037 52.7795 89.904 54.2753 90.6391 55.7974H90.5866ZM100.257 115.185L100.638 115.644C101.622 116.746 102.619 117.809 103.656 118.859C104.01 119.227 104.377 119.581 104.745 119.935C104.745 120.447 104.653 120.945 104.587 121.457C103.568 130.086 100.857 138.428 96.6092 146.007C96.2154 146.703 95.8088 147.398 95.3888 148.081C94.9694 148.763 94.5622 149.393 94.0768 150.049C93.9981 149.944 93.9193 149.852 93.854 149.747L94.0641 150.049C91.4451 154.024 88.4048 157.707 84.9968 161.031C82.021 157.556 79.417 153.778 77.2287 149.76C76.8349 149.051 76.4546 148.33 76.1006 147.608C75.7458 146.887 75.379 146.112 75.0242 145.365C71.4779 137.512 69.499 129.044 69.1983 120.434C69.1983 119.672 69.1983 118.912 69.1983 118.15V117.271L70.0381 116.379L70.8516 115.487L70.9826 115.329C71.4552 114.792 71.9277 114.254 72.374 113.702L72.4918 113.571L73.2532 114.883C73.6207 115.539 74.0138 116.196 74.4204 116.865C74.8276 117.534 75.247 118.177 75.733 118.846C77.8879 122.146 80.3011 125.27 82.9498 128.188C83.0676 128.333 83.1988 128.464 83.3173 128.595L84.6293 130.078L84.7471 130.209L86.296 128.792C86.3897 128.715 86.4769 128.632 86.5578 128.543C86.8728 128.267 87.1751 127.978 87.4767 127.69L88.4083 126.798C90.8952 124.335 93.2105 121.704 95.3363 118.925C95.8351 118.294 96.3204 117.613 96.7802 116.996C97.2393 116.379 97.7118 115.683 98.1574 115.067L98.9975 113.755C99.5091 114.266 99.9029 114.726 100.309 115.185H100.257ZM63.1493 79.5213C63.5579 89.8116 66.0206 99.9161 70.3923 109.241C69.3952 110.553 68.3585 111.76 67.2563 112.955C66.6921 113.571 66.1279 114.188 65.5374 114.804L65.17 115.185C64.0153 116.352 62.8344 117.481 61.601 118.557C49.7727 129.048 34.7317 135.211 18.9426 136.035C19.3195 121.819 24.2862 108.106 33.1007 96.946C44.278 93.3863 54.5485 87.4411 63.2018 79.5213H63.1493ZM47.2721 133.24C53.2905 130.354 58.8915 126.669 63.9234 122.283C64.2776 122.126 64.632 121.982 64.9994 121.851C65.5049 131.395 67.9516 140.735 72.1903 149.3C71.0401 150.756 69.8134 152.149 68.5159 153.473L67.9255 154.103C57.8896 164.231 44.4727 170.304 30.2403 171.161C30.7244 156.765 36.8627 143.141 47.3247 133.24H47.2721ZM72.203 155.888C72.4791 155.612 72.7409 155.324 72.9906 155.035C73.2397 154.746 73.2787 154.707 73.4362 154.55C73.5937 154.392 73.9223 153.998 74.1451 153.709C74.2295 153.636 74.3047 153.553 74.3686 153.46C76.9002 157.829 79.8917 161.916 83.2911 165.65L84.7605 167.251L86.3613 165.768C90.3035 162.147 93.8242 158.093 96.859 153.683L97.0165 153.867C97.4756 154.405 97.9346 154.93 98.4072 155.455C99.0763 156.177 99.7191 156.885 100.441 157.554C100.651 157.773 100.861 157.983 101.071 158.184C99.8312 170.937 94.1513 182.849 85.0231 191.841C76.6781 181.924 72.1129 169.373 72.1378 156.413L72.203 155.888ZM124.768 128.635C119.559 126.114 114.705 122.915 110.335 119.122C109.98 118.833 109.613 118.518 109.272 118.203L108.498 117.494C107.841 116.878 107.185 116.247 106.556 115.618C105.584 114.634 104.653 113.637 103.747 112.613C103.17 111.944 102.606 111.301 102.055 110.592L101.477 109.858C106.406 101.232 109.614 91.7309 110.925 81.8826C118.582 88.2769 127.41 93.1166 136.919 96.1329C145.86 107.232 150.974 120.925 151.497 135.169C142.26 134.868 133.188 132.643 124.86 128.635H124.768ZM135.082 90.937C133.376 90.3069 131.696 89.6243 130.043 88.8637C123.483 85.8723 117.407 81.9188 112.014 77.133C111.555 76.7392 111.109 76.3191 110.702 75.9126C109.981 75.2435 109.258 74.6006 108.55 73.8393L108.274 73.5505L108.012 73.2752L107.435 72.6849L106.883 72.0946C106.253 71.4248 105.65 70.7821 105.06 70.0473C104.207 69.0763 103.393 68.066 102.606 67.0557L101.7 65.8616C101.394 65.4592 101.106 65.0524 100.835 64.6413C100.248 63.8277 99.6844 63.001 99.1416 62.1613C98.6172 61.374 98.1184 60.5737 97.6458 59.7732L96.8065 58.3299C96.5567 57.8969 96.3204 57.4508 96.0841 57.0177C95.8479 56.5848 95.6123 56.1386 95.3888 55.7056C94.9602 54.8921 94.5537 54.0654 94.1684 53.2256C93.2892 51.3493 92.4889 49.4467 91.7673 47.4916C91.4522 46.6518 91.1642 45.812 90.8881 44.9723C90.8094 44.7492 90.7441 44.5261 90.6781 44.303C90.6129 44.08 90.4553 43.5946 90.3503 43.2403C89.523 40.4973 88.866 37.7058 88.382 34.8819C88.4998 34.1996 88.6311 33.5698 88.7496 32.8612C88.7496 32.5856 88.8411 32.3233 88.8809 32.0608C88.9986 31.3785 89.0909 30.7486 89.1824 30.0269C89.2739 29.3052 89.3797 28.3999 89.4712 27.5732C89.5627 26.7465 89.6287 26.038 89.6812 25.2638V25.1195L91.7283 25.2901C109.512 26.7799 126.128 34.7508 138.419 47.6881C150.71 60.6254 157.821 77.6275 158.399 95.4638C151.912 95.2743 145.48 94.2285 139.268 92.3539C137.916 91.9076 136.486 91.4223 135.174 90.937H135.082Z" stroke="#E9DCBC" stroke-width="6.05516"/>
</g>
<path d="M86.0471 113.649H86.2962L86.0471 113.636V113.649Z" fill="#F0E6CB"/>
<mask id="mask2_166_3697" style="mask-type:luminance" maskUnits="userSpaceOnUse" x="86" y="113" width="1" height="1">
<path d="M86.0471 113.649H86.2962L86.0471 113.636V113.649Z" fill="white"/>
</mask>
<g mask="url(#mask2_166_3697)">
<path d="M86.0471 113.649H84.7351V114.962H86.0471V113.649ZM86.2961 113.649V114.962L86.3656 112.339L86.2961 113.649ZM86.0471 113.636L86.1159 112.326L84.7351 112.253V113.636H86.0471ZM86.0471 114.962H86.2961V112.337H86.0471V114.962ZM86.3656 112.339L86.1159 112.326L85.9782 114.947L86.2273 114.96L86.3656 112.339ZM84.7351 113.636V113.649H87.359V113.636H84.7351Z" fill="#F0E6CB"/>
</g>
</g>
<path d="M151.262 67.8046C150.461 99.5195 148.165 141.586 141.814 163.985C132.511 196.946 126.239 217.192 131.606 266.738C132.249 272.709 133.062 279.099 134.059 286.001C134.382 288.74 133.718 291.505 132.186 293.8C130.654 296.094 128.355 297.767 125.701 298.519C114.443 302.153 99.5365 304.358 83.1865 304.358C70.4894 304.466 57.8288 302.981 45.5015 299.936C39.3475 298.309 35.516 292.837 36.3164 287.142C37.4842 279.138 38.4027 271.83 39.0982 265.059C44.15 216.733 37.9303 196.578 28.7058 164.024C22.4862 142.033 20.1899 101.041 19.337 69.5497C18.9696 55.3392 18.9041 43.0444 18.9041 35.2897C18.981 32.7279 19.8893 30.2607 21.4918 28.2606C23.0943 26.2605 25.3041 24.836 27.7874 24.2022C42.8379 19.754 62.1134 17.064 83.1475 17.064C106.504 17.064 127.761 20.3706 143.362 25.7372C145.706 26.4606 147.763 27.903 149.242 29.8598C150.721 31.8167 151.547 34.1891 151.603 36.6412C151.642 44.0942 151.563 55.1162 151.262 67.8046Z" stroke="#E9DCBC" stroke-width="5.13376" stroke-miterlimit="10"/>
</g>
<defs>
<clipPath id="clip0_166_3697">
<rect width="171" height="320" fill="white" transform="translate(0 0.104248)"/>
</clipPath>
</defs>
</svg>
