<svg width="162" height="180" viewBox="0 0 162 180" fill="none" xmlns="http://www.w3.org/2000/svg">
<path d="M152.966 122.548L154.064 120.724C163.605 104.608 166.957 85.4218 163.465 66.9063C159.974 48.3912 149.889 31.8744 135.177 20.5764L133.458 19.3053C133.754 18.814 134.05 18.3226 134.346 17.8312C134.444 17.6674 134.543 17.5036 134.595 17.4163C141.047 6.59698 144.891 -5.64546 145.81 -18.295C146.73 -30.9446 144.696 -43.6371 139.88 -55.3188L136.069 -53.6768C139.863 -44.3806 141.823 -34.404 141.834 -24.325C141.846 -14.246 139.909 -4.2647 136.136 5.04067C134.691 8.58593 132.982 12.0118 131.025 15.2881C130.96 15.3973 130.894 15.5064 130.828 15.6156C130.552 16.0742 130.283 16.522 130.013 16.9698L129.673 16.7538C112.993 6.24407 92.9364 2.94544 73.8927 7.58032C54.8491 12.2151 38.3702 24.4057 28.0636 41.4835L27.781 41.9529L26.8077 43.7652L28.5204 44.8514C33.085 47.6115 37.9127 49.8849 42.9287 51.6349C30.87 57.2917 20.722 66.5009 13.7743 78.092L13.5117 78.5284L12.5319 80.3513L14.2553 81.4442C20.2185 85.0431 26.6589 87.7348 33.3751 89.4355C21.7191 93.9427 11.8492 102.292 5.31281 113.175C5.23391 113.306 5.1614 113.426 5.0825 113.557L4.09888 115.362L5.81158 116.449C17.8949 123.78 32.125 126.461 45.9575 124.014C39.8181 135.704 37.7742 149.203 40.1667 162.255L40.563 164.331L42.59 163.943C55.317 161.502 66.8343 154.632 75.2009 144.49C79.5044 157.008 87.8596 167.631 98.8727 174.589L100.639 175.709L101.73 173.897C108.31 162.86 111.108 149.882 109.68 137.026C114.262 142.549 119.661 147.301 125.677 151.109L127.443 152.229L128.62 150.274C135.587 138.523 138.965 124.9 138.316 111.16C142.23 115.08 146.552 118.545 151.206 121.492L152.966 122.548ZM99.3058 169.644C89.1894 162.676 81.7623 152.298 78.3081 140.305L78.0352 139.318C77.8381 138.619 77.6715 137.895 77.5052 137.17C77.338 136.446 77.1926 135.735 77.0604 135.003C76.9282 134.271 76.8067 133.544 76.7125 132.821C76.6704 132.619 76.6414 132.414 76.6264 132.208C76.5942 132.006 76.5748 131.802 76.5675 131.598C84.5337 127.361 91.5849 121.519 97.2994 114.419C98.9656 119.46 101.196 124.287 103.944 128.801C105.832 135.587 106.393 142.689 105.598 149.698C104.802 156.708 102.664 163.486 99.3058 169.644ZM127.457 20.3126L127.628 20.4206C127.594 20.4644 127.565 20.5121 127.542 20.5625C127.214 21.1085 126.789 21.5936 126.394 22.1278C126.34 22.2293 126.281 22.3277 126.217 22.4226C125.934 22.8921 125.538 23.305 125.202 23.7406L124.68 24.3899L123.739 25.5132C123.555 25.8189 123.269 26.075 123.025 26.3578C122.781 26.6409 122.276 27.2108 121.891 27.6307L121.793 27.7943C121.488 28.1291 121.184 28.4642 120.89 28.7309C120.328 29.3247 119.747 29.9221 119.169 30.4911C118.861 30.8084 118.546 31.1118 118.225 31.401C116.285 33.2715 114.245 35.0305 112.114 36.6688C110.737 37.7115 109.33 38.7054 107.905 39.6571L106.705 40.405C106.335 40.6534 105.968 40.8729 105.584 41.0968C104.842 41.547 104.09 41.9906 103.323 42.4094C102.557 42.8285 101.783 43.2585 101.002 43.6532C99.4566 44.4383 97.8919 45.1811 96.2903 45.8401C94.3352 46.6622 92.3347 47.4052 90.2888 48.0691C89.029 48.4772 87.744 48.854 86.457 49.1849C86.3926 49.2159 86.3245 49.2388 86.2547 49.2524L85.7315 49.3889C84.2796 49.7498 82.8192 50.076 81.3702 50.3344C73.7357 51.7822 65.9251 51.973 58.232 50.8993C56.4957 50.6581 54.7538 50.353 53.0407 49.9756C51.7615 49.7077 50.4787 49.3967 49.1921 49.0434C43.401 47.4668 37.8212 45.1643 32.5777 42.189C42.5329 26.6017 58.0083 15.6042 75.7263 11.5258C93.4443 7.44747 112.013 10.6085 127.5 20.3396L127.457 20.3126ZM116.437 48.7795C116.347 49.6127 116.281 50.4306 116.215 51.2485C116.159 52.0734 116.121 52.894 116.083 53.7149C116.083 53.7149 116.037 53.7913 116.081 53.8645C116.051 54.6453 116.073 55.3679 116.028 56.1993L116.086 58.5446C116.086 58.5446 116.033 58.6319 116.099 58.7187C116.116 59.5443 116.144 60.3769 116.2 61.2121L116.254 62.197L116.315 63.1705C116.368 63.2044 116.334 63.3337 116.348 63.4332C116.361 63.5323 116.378 63.603 116.381 63.6955C116.443 64.5198 116.554 65.3139 116.635 66.18L116.589 66.2564L116.607 66.3733C116.679 67.0332 116.771 67.6946 116.881 68.3583L116.938 68.8014L117.122 69.9138L117.34 71.0635C117.493 71.8842 117.63 72.7557 117.833 73.518C118.035 74.2797 118.207 75.1429 118.411 75.9515C112.841 83.5119 105.855 89.8542 97.8637 94.6052C97.1939 95.0101 96.52 95.3969 95.8311 95.7596C95.1419 96.1229 94.5356 96.4474 93.8507 96.8273C92.4914 97.4746 91.0303 98.1919 89.5795 98.7958C88.8544 99.1209 88.1149 99.4212 87.361 99.6978C86.6041 100.002 85.8525 100.25 85.0505 100.556C84.2494 100.862 83.6508 101.026 82.9426 101.226C82.2343 101.425 81.7198 101.597 81.1297 101.796L79.5268 102.213C78.9691 102.357 78.4014 102.495 77.805 102.63L77.602 101.233C77.3433 99.3194 77.163 97.4045 77.0614 95.4897C77.0137 94.6893 76.9635 93.9183 76.9592 93.0712C76.9552 92.2234 76.9253 91.5403 76.9145 90.7038C76.9287 89.068 77.0049 87.4268 77.141 85.8088C77.1906 84.995 77.2711 84.2009 77.3587 83.3965C77.4463 82.5921 77.5573 81.7724 77.6729 80.9703C79.0591 71.3658 82.3437 62.1533 87.3239 53.8987L87.8168 53.0798L89.9133 52.4781C89.9133 52.4781 89.9133 52.4782 90.006 52.4464C90.6001 52.2651 91.184 52.0765 91.8059 51.8982L92.06 51.8179L92.7191 51.6019L93.3846 51.3752C93.6175 51.2815 93.8541 51.2053 94.0804 51.1225C94.3067 51.0397 94.2964 51.033 94.3997 51.008L96.1368 50.3445L96.3177 50.2631C97.376 49.8479 98.4262 49.3973 99.4616 48.9224C99.8585 48.7516 100.262 48.5699 100.654 48.3813C101.164 48.1462 101.679 47.8998 102.191 47.6359C102.703 47.372 103.508 46.9624 104.139 46.6229C104.769 46.2834 105.424 45.9289 106.063 45.5501C106.703 45.1713 107.316 44.8359 107.952 44.4395C108.587 44.0429 109.173 43.705 109.813 43.2512C110.454 42.7973 110.808 42.5995 111.293 42.2584C111.531 42.1075 111.758 41.9497 111.975 41.7853C112.459 41.4438 112.944 41.1028 113.407 40.7479C114.533 39.9529 115.685 39.0391 116.776 38.1312C117.043 37.9082 117.302 37.6958 117.565 37.4549C117.828 37.2141 117.879 37.2018 118.038 37.0607L118.591 36.5815C118.375 37.38 118.169 38.185 117.991 38.9927C117.598 40.5991 117.282 42.2239 117.014 43.8647C116.747 45.5056 116.646 47.1619 116.48 48.8065L116.437 48.7795ZM94.5294 103.173L94.6083 103.75C94.8542 105.173 95.1301 106.57 95.4445 107.977C95.5474 108.465 95.6681 108.949 95.7887 109.432C95.5324 109.858 95.2078 110.226 94.8986 110.618C89.7498 117.274 83.3732 122.822 76.1329 126.947C75.4653 127.323 74.7874 127.692 74.105 128.044C73.4234 128.396 72.7776 128.711 72.0554 129.008C72.0442 128.88 72.0265 128.763 72.0262 128.642L72.0451 129.001C67.9304 130.963 63.6209 132.464 59.1928 133.478C58.521 129.056 58.3021 124.574 58.5407 120.105C58.5765 119.313 58.6296 118.517 58.704 117.734C58.7778 116.951 58.8682 116.119 58.9552 115.314C60.0134 106.956 62.6509 98.8914 66.72 91.5716C67.1013 90.938 67.4823 90.3051 67.8637 89.6715L68.304 88.9399L69.4317 88.6295L70.5383 88.305L70.7234 88.2413C71.376 88.0367 72.0285 87.832 72.6665 87.6027L72.8277 87.5541L72.7878 89.0372C72.757 89.7724 72.747 90.5207 72.7414 91.2865C72.7365 92.0527 72.7544 92.8032 72.8133 93.6099C72.9074 97.4641 73.2989 101.305 73.9845 105.095C74.0075 105.276 74.0485 105.452 74.0789 105.622L74.3997 107.531L74.4294 107.701L76.395 107.318C76.5093 107.302 76.6216 107.278 76.732 107.245C77.1256 107.177 77.5154 107.093 77.9041 107.008L79.1065 106.744C82.3564 105.973 85.551 104.975 88.667 103.754C89.387 103.486 90.122 103.169 90.8036 102.892C91.485 102.614 92.2164 102.278 92.8865 101.994L94.2248 101.335C94.3833 102.023 94.4726 102.608 94.5719 103.2L94.5294 103.173ZM82.3092 54.4152C77.486 63.1887 74.4212 72.8636 73.2947 82.871C71.8287 83.4507 70.3837 83.9221 68.892 84.3491C68.1257 84.5722 67.3594 84.7952 66.5719 85.0047L66.0831 85.1329C64.5623 85.5105 63.0394 85.8427 61.5006 86.1037C46.656 88.7529 31.3745 86.1483 18.1612 78.7161C25.5878 67.0794 36.4831 58.2218 49.2196 53.4664C60.0645 56.2508 71.3692 56.5839 82.3518 54.4422L82.3092 54.4152ZM42.5288 90.9556C48.8536 91.6485 55.2406 91.4614 61.5169 90.3989C61.883 90.4499 62.2424 90.5123 62.606 90.5919C58.2352 98.794 55.5402 107.825 54.6861 117.132C53.0247 117.752 51.3325 118.28 49.617 118.715L48.8227 118.936C35.6132 122.205 21.6936 120.36 9.72561 113.756C17.329 102.025 29.1302 93.843 42.5714 90.9826L42.5288 90.9556ZM51.3969 122.62C51.7585 122.533 52.1154 122.428 52.4626 122.316C52.8091 122.203 52.8603 122.191 53.0669 122.141C53.2735 122.091 53.7372 121.932 54.0624 121.806C54.1675 121.789 54.2704 121.758 54.3684 121.714C54.2326 126.651 54.6107 131.59 55.4962 136.445L55.8857 138.533L57.9263 138.122C62.9365 137.135 67.8213 135.572 72.4906 133.463L72.5262 133.696C72.629 134.38 72.7382 135.053 72.8583 135.733C73.0393 136.677 73.2058 137.597 73.4553 138.526C73.5161 138.815 73.5812 139.098 73.6509 139.373C66.2577 149.349 55.6859 156.342 43.7815 159.131C41.9831 146.588 44.5688 133.796 51.0809 123.024L51.3969 122.62ZM107.665 126.967C104.704 122.191 102.371 117.033 100.728 111.63C100.585 111.207 100.445 110.756 100.326 110.319L100.054 109.331C99.8306 108.48 99.6141 107.618 99.4191 106.771C99.1245 105.453 98.8685 104.144 98.6474 102.827C98.5149 101.973 98.379 101.148 98.2876 100.275L98.1872 99.3669C106.504 94.722 113.864 88.4654 119.86 80.9437C122.864 90.2015 127.598 98.7683 133.796 106.167C135.485 120.001 132.772 134.025 126.061 146.147C118.723 141.147 112.483 134.631 107.739 127.014L107.665 126.967ZM134.91 100.899C133.842 99.4974 132.822 98.0655 131.863 96.5825C128.043 90.7205 125.097 84.3063 123.122 77.5512C122.947 76.9874 122.796 76.4084 122.67 75.861C122.42 74.9332 122.156 74.0269 121.963 73.0293L121.884 72.647L121.81 72.2833L121.637 71.4951L121.486 70.7204C121.311 69.8391 121.144 68.9941 121.033 68.0792C120.828 66.8326 120.674 65.5735 120.542 64.3282L120.406 62.8686C120.36 62.3765 120.329 61.8895 120.316 61.408C120.248 60.4296 120.205 59.4517 120.185 58.4738C120.154 57.549 120.151 56.6265 120.169 55.7175L120.211 54.0848C120.226 53.5961 120.258 53.1033 120.283 52.6215C120.308 52.1397 120.341 51.6473 120.376 51.1721C120.436 50.2748 120.521 49.3778 120.629 48.4808C120.856 46.4674 121.16 44.4726 121.555 42.4746C121.72 41.6138 121.907 40.7668 122.104 39.9261C122.152 39.6999 122.211 39.4807 122.269 39.2612C122.328 39.042 122.443 38.5571 122.536 38.2082C123.239 35.5002 124.104 32.8394 125.127 30.2406C125.564 29.7334 125.986 29.2768 126.437 28.748C126.575 28.5187 126.78 28.3474 126.944 28.1494C127.381 27.6422 127.772 27.1654 128.207 26.6119C128.643 26.0584 129.182 25.3594 129.671 24.7185C130.159 24.0776 130.567 23.5219 130.998 22.9047L131.07 22.7846L132.644 23.979C146.315 34.3619 155.794 49.5381 159.279 66.6238C162.763 83.7094 160.011 101.514 151.546 116.654C146.382 113.161 141.69 108.984 137.593 104.23C136.721 103.163 135.804 102.024 134.984 100.946L134.91 100.899Z" stroke="#F0E6CB" stroke-opacity="0.1" stroke-width="5.89965"/>
</svg>
