<svg width="122" height="169" viewBox="0 0 122 169" fill="none" xmlns="http://www.w3.org/2000/svg">
<path d="M107.391 165.562H109.674C129.748 165.414 149.048 157.795 163.81 144.189C178.573 130.584 187.738 111.969 189.521 91.9722L189.685 89.6633C190.3 89.6633 190.915 89.6633 191.529 89.6633C191.734 89.6633 191.939 89.6633 192.049 89.6633C205.551 89.6064 218.846 86.3305 230.83 80.1073C242.813 73.8841 253.139 64.8924 260.952 53.8791L257.277 51.2559C251.037 59.9842 243.128 67.3876 234.007 73.0374C224.886 78.6873 214.734 82.4716 204.141 84.1709C200.1 84.8114 196.017 85.1402 191.926 85.1542C191.789 85.1542 191.653 85.1542 191.516 85.1542C190.942 85.1542 190.382 85.1542 189.821 85.1542V84.7169C189.76 63.3325 181.229 42.8433 166.095 27.7348C150.961 12.6264 130.457 4.12944 109.072 4.10425H108.485L106.285 4.21352V6.41324C106.407 12.2005 107.12 17.9601 108.416 23.6017C96.3681 15.5578 82.2003 11.2775 67.7133 11.3048L67.1673 11.3048L64.9538 11.414V13.6275C65.1193 21.1841 66.3805 28.6767 68.6974 35.8712C57.9216 27.5583 44.6921 23.0556 31.0829 23.0688C30.9189 23.0688 30.7681 23.0688 30.6041 23.0688L28.4046 23.1644V25.3641C28.7046 40.698 34.449 55.4255 44.6094 66.9139C30.497 67.7479 17.0983 73.4009 6.65274 82.9274L4.99998 84.4575L6.51606 86.1243C16.0351 96.5891 28.8716 103.451 42.8606 105.553C33.9961 116.557 29.1737 130.268 29.1974 144.398V146.666H31.4656C45.2396 146.607 58.5991 141.947 69.4215 133.426C67.0513 140.776 65.8485 148.453 65.8552 156.176V158.444H68.3014C82.9436 158.346 97.2207 153.863 109.291 145.573C107.989 151.404 107.334 157.36 107.337 163.335L107.391 165.562ZM33.9244 142.034C34.4253 128.731 39.558 116.021 48.435 106.1L49.1724 105.294C49.6918 104.72 50.2518 104.16 50.8126 103.6C51.3726 103.039 51.9326 102.506 52.52 101.974C53.1074 101.441 53.6955 100.922 54.2962 100.43C54.455 100.277 54.6242 100.135 54.8023 100.006C54.9663 99.8636 55.1399 99.7313 55.3209 99.6102C63.7325 104.645 73.0728 107.93 82.784 109.27C79.1755 113.639 76.085 118.413 73.5752 123.493C68.5142 129.044 62.4056 133.54 55.6009 136.722C48.7963 139.904 41.4294 141.709 33.9244 142.034ZM185.326 84.6489V84.8676C185.267 84.8609 185.208 84.8609 185.149 84.8676C184.466 84.8676 183.782 84.7442 183.072 84.6762C182.949 84.6829 182.826 84.6829 182.703 84.6762C182.116 84.6762 181.514 84.5395 180.927 84.4708L180.039 84.3482L178.481 84.1021C178.099 84.1021 177.702 83.9795 177.306 83.9108C176.91 83.8428 176.104 83.6921 175.503 83.5694H175.298C174.819 83.4734 174.341 83.3781 173.931 83.2547C173.071 83.0641 172.196 82.8587 171.349 82.64C170.884 82.5307 170.429 82.408 169.983 82.2713C167.174 81.514 164.41 80.6023 161.703 79.5384C159.967 78.8417 158.26 78.0903 156.579 77.2975L155.213 76.6008C154.775 76.3962 154.366 76.1775 153.942 75.9455C153.109 75.5081 152.275 75.0574 151.455 74.5786C150.635 74.1006 149.802 73.6226 148.996 73.1172C147.397 72.1198 145.826 71.081 144.309 69.9609C142.442 68.6036 140.62 67.1597 138.844 65.6295C137.751 64.6867 136.672 63.7031 135.633 62.692C135.568 62.6495 135.508 62.599 135.456 62.5418L135.032 62.1318C133.871 60.9841 132.737 59.8091 131.671 58.6068C125.975 52.3203 121.317 45.1669 117.871 37.4151C117.092 35.6662 116.368 33.8763 115.726 32.0728C115.234 30.7338 114.779 29.3674 114.36 27.9738C112.462 21.7086 111.343 15.2338 111.026 8.69504C130.859 9.22752 149.706 17.4592 163.575 31.6468C177.443 45.8344 185.245 64.8635 185.326 84.7036V84.6489ZM153.218 90.3327C152.412 90.7154 151.633 91.1114 150.854 91.5074C150.075 91.9175 149.31 92.3408 148.545 92.7649C148.545 92.7649 148.449 92.7649 148.408 92.8469C147.684 93.2562 147.042 93.6803 146.263 94.1037L144.173 95.4698C144.173 95.4698 144.064 95.4698 144.023 95.5791C143.285 96.0572 142.547 96.5492 141.823 97.0686L140.962 97.67L140.115 98.2707C140.115 98.3394 139.978 98.38 139.896 98.4487C139.814 98.5167 139.76 98.5714 139.678 98.6261C138.967 99.1455 138.311 99.6922 137.574 100.252H137.478L137.382 100.334C136.826 100.771 136.28 101.227 135.743 101.7L135.374 102.001L134.472 102.794L133.556 103.64C132.901 104.242 132.19 104.857 131.616 105.471C131.043 106.086 130.359 106.728 129.745 107.371C119.699 106.423 109.943 103.478 101.052 98.7081C100.3 98.3121 99.5628 97.902 98.8387 97.4646C98.1139 97.0272 97.4719 96.6452 96.7345 96.2212C95.3677 95.3198 93.879 94.363 92.4988 93.3523C91.7881 92.8602 91.0914 92.3408 90.4079 91.7948C89.6979 91.2614 89.0419 90.7014 88.3038 90.1273C87.5664 89.554 87.0743 89.0892 86.487 88.5425C85.8996 87.9958 85.4482 87.6138 84.9295 87.1764L83.6314 85.9197C83.18 85.4823 82.7293 85.0316 82.2646 84.5528L83.4127 83.5827C84.9975 82.2713 86.6281 81.0323 88.3038 79.8664C89.0012 79.3744 89.6706 78.8963 90.4353 78.4183C91.2007 77.9403 91.8021 77.5303 92.5535 77.0522C94.043 76.1501 95.5731 75.3027 97.1165 74.524C97.8819 74.1146 98.6474 73.7452 99.4261 73.3766C100.205 73.0079 101.011 72.6525 101.804 72.3112C111.298 68.2259 121.527 66.1245 131.862 66.1352H132.887L134.636 67.7473C134.636 67.7473 134.636 67.7474 134.718 67.8158C135.223 68.2666 135.729 68.7038 136.248 69.1821L136.467 69.3734L137.041 69.8652L137.628 70.357C137.847 70.521 138.052 70.6983 138.257 70.8623C138.462 71.0263 138.462 71.013 138.544 71.095L140.142 72.3385L140.32 72.4611C141.304 73.2125 142.315 73.9366 143.339 74.6333C143.722 74.9067 144.118 75.18 144.515 75.4394C145.02 75.7814 145.539 76.1228 146.072 76.4508C146.605 76.7789 147.438 77.2983 148.108 77.6943C148.777 78.0903 149.474 78.5003 150.185 78.883C150.895 79.2658 151.551 79.6477 152.275 80.0172C152.999 80.3858 153.641 80.7412 154.42 81.0825C155.199 81.4239 155.582 81.6426 156.169 81.9026C156.442 82.0393 156.716 82.162 156.989 82.2713C157.577 82.5306 158.164 82.7907 158.751 83.0227C160.118 83.6241 161.607 84.1842 163.055 84.6895C163.411 84.8129 163.752 84.9355 164.121 85.0449C164.49 85.1542 164.531 85.1956 164.75 85.2636L165.501 85.5096C164.654 85.7556 163.807 86.015 162.973 86.3016C161.293 86.8351 159.64 87.4498 158 88.1192C156.36 88.7885 154.803 89.6219 153.218 90.3874V90.3327ZM91.378 100.402L90.9 100.799C89.7526 101.824 88.6458 102.862 87.5524 103.941C87.1697 104.31 86.801 104.693 86.4323 105.075C85.8996 105.075 85.3802 104.979 84.8475 104.911C75.8626 103.85 67.1762 101.027 59.2833 96.6039C58.5592 96.1938 57.8352 95.7705 57.1244 95.3331C56.4144 94.8964 55.7583 94.4724 55.0749 93.967C55.1842 93.885 55.2803 93.803 55.3896 93.735L55.0749 93.9537C50.9352 91.2267 47.1007 88.0608 43.6393 84.5122C47.2581 81.4135 51.1916 78.702 55.3756 76.4235C56.1137 76.0134 56.8651 75.6174 57.6165 75.2488C58.3679 74.8793 59.1739 74.4974 59.9526 74.1279C68.1293 70.4353 76.9472 68.3748 85.9129 68.0616C86.7057 68.0616 87.4977 68.0616 88.2905 68.0616H89.2059L90.1346 68.936L91.064 69.7831L91.228 69.9196C91.7881 70.4116 92.3481 70.9037 92.9222 71.3684L93.0589 71.4911L91.6928 72.2838C91.0093 72.6665 90.3259 73.0759 89.6292 73.4992C88.9325 73.9233 88.2631 74.3599 87.5664 74.866C84.1301 77.1099 80.877 79.6226 77.8382 82.3807C77.6875 82.5033 77.5516 82.64 77.4149 82.7634L75.8707 84.1295L75.7341 84.2521L77.2095 85.865C77.2893 85.9625 77.3757 86.0534 77.4688 86.1376C77.7562 86.4657 78.0569 86.7804 78.3569 87.0944L79.2863 88.0645C81.8508 90.6541 84.5897 93.0649 87.4844 95.2784C88.1405 95.7978 88.8505 96.3032 89.4925 96.7819C90.1353 97.26 90.8594 97.752 91.5014 98.216L92.8675 99.0908C92.3348 99.6235 91.8568 100.034 91.378 100.457V100.402ZM128.515 61.7629C117.799 62.1884 107.278 64.7528 97.568 69.3049C96.2011 68.2666 94.9444 67.1872 93.7009 66.0395C93.0589 65.4519 92.4168 64.8645 91.7748 64.2496L91.378 63.867C90.1626 62.6647 88.9872 61.435 87.8671 60.1507C76.9428 47.8342 70.5253 32.1724 69.6675 15.7317C84.4707 16.1241 98.7493 21.2958 110.37 30.4741C114.077 42.1127 120.268 52.8072 128.515 61.8176V61.7629ZM72.5778 45.2304C75.5826 51.4972 79.4201 57.3294 83.9868 62.569C84.1508 62.9379 84.3008 63.3068 84.4375 63.6894C74.4995 64.2157 64.7735 66.7634 55.8544 71.1771C54.339 69.9794 52.8887 68.7021 51.5093 67.351L50.8532 66.7362C40.3072 56.2862 33.9835 42.3154 33.091 27.4957C48.0811 27.9997 62.2681 34.3914 72.5778 45.2851V45.2304ZM48.9951 71.1904C49.2817 71.4778 49.5824 71.7504 49.8831 72.0105C50.1838 72.2698 50.2245 72.3104 50.3885 72.4744C50.5525 72.6385 50.9626 72.9805 51.2633 73.2125C51.3394 73.3005 51.4265 73.3788 51.5226 73.4453C46.9736 76.0814 42.718 79.1963 38.8295 82.7361L37.1627 84.2662L38.7069 85.933C42.4779 90.0379 46.6988 93.704 51.2906 96.864L51.0992 97.028C50.5392 97.506 49.9925 97.984 49.4457 98.4761C48.6944 99.1728 47.957 99.8422 47.2596 100.594C47.032 100.812 46.8133 101.031 46.6042 101.25C33.3245 99.9589 20.9203 94.0446 11.5578 84.5395C21.8837 75.8502 34.9529 71.0965 48.4483 71.1224L48.9951 71.1904ZM77.3735 125.925C79.9978 120.501 83.3292 115.446 87.279 110.896C87.5797 110.526 87.9077 110.144 88.2358 109.789L88.9739 108.983C89.6159 108.3 90.272 107.616 90.9273 106.961C91.9521 105.949 92.9901 104.979 94.0563 104.037C94.753 103.436 95.4224 102.848 96.1605 102.274L96.9252 101.673C105.908 106.805 115.801 110.146 126.056 111.511C119.397 119.483 114.358 128.676 111.217 138.578C99.6596 147.888 85.4009 153.212 70.5696 153.757C70.8829 144.139 73.1999 134.692 77.3735 126.021V125.925ZM116.628 136.665C117.284 134.889 117.994 133.139 118.786 131.418C121.901 124.587 126.018 118.26 131.001 112.645C131.412 112.167 131.849 111.702 132.272 111.279C132.969 110.527 133.638 109.775 134.431 109.038L134.732 108.75L135.018 108.478L135.633 107.876L136.248 107.302C136.945 106.646 137.615 106.018 138.38 105.403C139.391 104.515 140.443 103.668 141.495 102.848L142.738 101.905C143.157 101.587 143.581 101.286 144.009 101.004C144.856 100.393 145.717 99.806 146.591 99.2408C147.411 98.6948 148.244 98.1754 149.078 97.6833L150.581 96.8093C151.032 96.5492 151.496 96.3032 151.947 96.0571C152.398 95.8111 152.863 95.5658 153.314 95.3331C154.161 94.8868 155.021 94.4635 155.896 94.0623C157.85 93.1469 159.831 92.3135 161.867 91.5621C162.741 91.2341 163.616 90.9341 164.49 90.6467C164.722 90.5647 164.955 90.4967 165.187 90.428C165.419 90.36 165.925 90.196 166.294 90.0867C169.15 89.2252 172.056 88.541 174.997 88.0371C175.707 88.1598 176.363 88.2965 177.101 88.4199C177.388 88.4199 177.661 88.5152 177.935 88.5565C178.645 88.6792 179.301 88.7752 180.052 88.8706C180.804 88.9659 181.747 89.0759 182.607 89.1713C183.468 89.2666 184.206 89.3353 185.012 89.39H185.162L184.985 91.5215C183.434 110.039 175.134 127.341 161.662 140.139C148.191 152.938 130.487 160.342 111.914 160.944C112.111 154.19 113.2 147.492 115.152 141.023C115.617 139.616 116.122 138.126 116.628 136.76V136.665Z" stroke="#F0E6CB" stroke-opacity="0.1" stroke-width="6.44617"/>
</svg>
