<svg width="165" height="177" viewBox="0 0 165 177" fill="none" xmlns="http://www.w3.org/2000/svg">
<path d="M38.4113 145.241L39.7662 146.789C51.7823 160.316 68.2761 168.765 86.0319 170.487C103.787 172.21 121.531 167.084 135.805 156.107L137.428 154.811C137.793 155.228 138.158 155.646 138.523 156.063C138.645 156.202 138.766 156.341 138.831 156.415C146.885 165.54 156.943 172.561 168.171 176.898C179.398 181.234 191.471 182.76 203.388 181.348L202.939 177.256C193.467 178.342 183.878 177.489 174.729 174.745C165.58 172.001 157.052 167.421 149.64 161.27C146.818 158.92 144.176 156.35 141.738 153.584C141.657 153.491 141.576 153.398 141.495 153.306C141.154 152.916 140.821 152.536 140.489 152.156L140.778 151.89C154.874 138.817 163.349 120.543 164.349 101.07C165.348 81.5975 158.79 62.5112 146.111 47.9899L145.762 47.5915L144.384 46.1656L142.93 47.5061C139.178 51.1155 135.795 55.1095 132.836 59.4265C130.999 46.352 125.416 34.1331 116.798 24.3227L116.473 23.9524L115.087 22.5174L113.624 23.8663C108.729 28.5835 104.526 34.0049 101.147 39.9609C100.243 27.5855 95.3641 15.8675 87.2756 6.64393C87.1782 6.53267 87.0888 6.43043 86.9914 6.31917L85.6224 4.88544L84.1686 6.22594C74.213 15.7738 67.8906 28.6453 66.3305 42.5384C57.4008 33.4737 45.7101 27.8298 33.2129 26.5496L31.2204 26.361L31.019 28.4051C29.7546 41.2394 32.8411 54.1281 39.7568 64.8987C27.2217 65.5915 15.2979 70.6754 5.97379 79.3023L4.4748 80.6845L5.82144 82.2231C14.0381 91.5304 25.0492 97.753 37.1057 99.9016C30.8412 102.773 25.054 106.635 19.9541 111.346L18.4551 112.728L19.9074 114.387C28.6654 124.26 40.1041 131.213 52.7491 134.348C48.1228 137.019 43.7973 140.204 39.8504 143.847L38.4113 145.241ZM10.3427 81.068C19.4313 73.3013 30.8783 69.0375 42.705 69.0133L43.6755 69.0222C44.3632 69.0247 45.0659 69.0633 45.7689 69.1024C46.472 69.1406 47.1565 69.1959 47.8573 69.2697C48.558 69.3435 49.2504 69.4259 49.9322 69.5335C50.1271 69.5485 50.3213 69.5768 50.5125 69.6188C50.7041 69.6432 50.8946 69.6804 51.0821 69.7293C52.7491 78.5031 56.1231 86.8411 61.0034 94.2448C55.9734 94.4598 50.9839 95.2724 46.1365 96.6657C39.4629 96.6158 32.8651 95.2118 26.7222 92.5352C20.5793 89.8585 15.0128 85.9613 10.3427 81.068ZM138.154 148.799L138.009 148.932C137.979 148.888 137.943 148.848 137.904 148.812C137.498 148.348 137.174 147.81 136.797 147.287C136.72 147.207 136.647 147.124 136.578 147.036C136.23 146.638 135.963 146.147 135.66 145.706L135.213 145.029L134.451 143.823C134.224 143.563 134.07 143.22 133.88 142.909C133.69 142.599 133.311 141.96 133.035 141.477L132.913 141.338C132.693 140.956 132.472 140.573 132.31 140.22C131.925 139.52 131.542 138.801 131.183 138.094C130.98 137.712 130.79 137.328 130.616 136.942C129.449 134.576 128.41 132.145 127.506 129.66C126.936 128.058 126.419 126.442 125.945 124.819L125.594 123.468C125.47 123.046 125.371 122.635 125.273 122.206C125.067 121.374 124.87 120.534 124.7 119.686C124.529 118.839 124.35 117.982 124.205 117.128C123.916 115.435 123.669 113.737 123.509 112.025C123.297 109.931 123.17 107.816 123.127 105.678C123.101 104.362 123.11 103.031 123.162 101.71C123.151 101.64 123.149 101.569 123.156 101.498L123.175 100.961C123.244 99.474 123.347 97.9887 123.509 96.5328C124.282 88.8384 126.244 81.3192 129.321 74.2578C130.014 72.6638 130.767 71.0819 131.578 69.5474C132.171 68.3976 132.804 67.2562 133.476 66.1228C136.489 61.0173 140.104 56.3123 144.237 52.1126C155.66 65.8906 161.409 83.6914 160.267 101.745C159.125 119.798 151.181 136.687 138.118 148.832L138.154 148.799ZM115.335 130.483C114.603 130.169 113.879 129.882 113.155 129.595C112.422 129.317 111.688 129.056 110.953 128.795C110.953 128.795 110.896 128.73 110.818 128.752C110.117 128.51 109.456 128.333 108.714 128.063L106.57 127.477C106.57 127.477 106.505 127.403 106.408 127.442C105.654 127.233 104.891 127.032 104.118 126.858L103.21 126.64L102.31 126.432C102.264 126.474 102.156 126.406 102.062 126.392C101.969 126.378 101.9 126.374 101.815 126.352C101.05 126.186 100.299 126.074 99.4913 125.915L99.4345 125.85L99.3236 125.836C98.705 125.725 98.0796 125.632 97.4472 125.556L97.0296 125.489L95.9701 125.36L94.8671 125.255C94.0806 125.177 93.2524 125.07 92.5053 125.055C91.7587 125.04 90.9286 124.968 90.1389 124.943C84.8011 117.551 80.9555 109.139 78.8286 100.2C78.6442 99.4492 78.4775 98.6991 78.3367 97.9414C78.1954 97.1832 78.0666 96.5149 77.9091 95.7563C77.6933 94.2799 77.4418 92.6869 77.2903 91.1348C77.1935 90.3528 77.1232 89.5637 77.0782 88.7674C77.0092 87.9607 76.9898 87.1744 76.931 86.3239C76.8721 85.4743 76.8871 84.8573 76.8997 84.1257C76.9123 83.3941 76.8967 82.8551 76.8778 82.2368L76.9377 80.5903C76.9588 80.0176 76.989 79.4372 77.0295 78.8302L78.3522 79.0179C80.1598 79.2937 81.9467 79.6448 83.7121 80.071C84.4513 80.2442 85.1646 80.407 85.9345 80.6344C86.7049 80.8623 87.3329 81.0204 88.095 81.2387C89.5754 81.6994 91.0439 82.2209 92.4749 82.7933C93.1998 83.0631 93.8984 83.3572 94.6043 83.6607C95.3103 83.9643 96.0238 84.2945 96.72 84.6243C105.056 88.5748 112.518 94.233 118.647 101.25L119.256 101.946L119.229 104.114C119.229 104.114 119.228 104.114 119.232 104.212C119.234 104.829 119.246 105.439 119.237 106.082L119.241 106.347L119.257 107.036L119.281 107.734C119.302 107.983 119.306 108.23 119.32 108.469C119.333 108.708 119.342 108.7 119.336 108.805L119.464 110.647L119.488 110.842C119.575 111.968 119.697 113.095 119.845 114.215C119.892 114.641 119.946 115.076 120.01 115.503C120.084 116.054 120.167 116.614 120.266 117.176C120.366 117.737 120.518 118.619 120.653 119.314C120.789 120.01 120.932 120.733 121.101 121.448C121.27 122.163 121.406 122.84 121.592 123.557C121.779 124.273 121.925 124.925 122.162 125.661C122.399 126.397 122.481 126.79 122.658 127.347C122.73 127.616 122.811 127.876 122.901 128.128C123.079 128.685 123.256 129.241 123.451 129.781C123.865 131.075 124.379 132.426 124.905 133.717C125.034 134.033 125.156 134.339 125.303 134.656C125.449 134.973 125.446 135.026 125.531 135.216L125.815 135.875C125.149 135.451 124.475 135.034 123.791 134.644C122.44 133.829 121.053 133.082 119.637 132.377C118.221 131.673 116.746 131.125 115.299 130.516L115.335 130.483ZM71.9659 94.6707L71.4199 94.5882C70.0614 94.4344 68.7183 94.3162 67.3558 94.2323C66.8849 94.1973 66.4131 94.1805 65.9413 94.1636C65.625 93.8023 65.3801 93.3914 65.1088 92.9887C60.4761 86.2469 57.1846 78.6342 55.4213 70.5851C55.2625 69.844 55.1124 69.0949 54.9795 68.3462C54.8465 67.5985 54.7372 66.895 54.6655 66.1235C54.7846 66.1477 54.8958 66.1629 55.0056 66.1956L54.6743 66.1154C54.0187 61.6455 53.8344 57.1151 54.1245 52.6046C58.3208 53.1711 62.448 54.1869 66.4379 55.6365C67.1471 55.8873 67.8549 56.1557 68.5447 56.4407C69.2349 56.7253 69.9659 57.0393 70.6723 57.3424C77.9672 60.6386 84.5641 65.3645 90.094 71.2553C90.5647 71.7931 91.0349 72.3304 91.5056 72.8681L92.0491 73.4891L92.0226 74.652L92.0146 75.7986L92.0217 75.993C92.0291 76.6728 92.0364 77.3525 92.0701 78.0251L92.0702 78.1926L90.7352 77.749C90.0765 77.5187 89.4003 77.3045 88.7069 77.0899C88.013 76.8757 87.327 76.6878 86.5789 76.5236C83.0559 75.56 79.4639 74.8846 75.8371 74.504C75.6666 74.4765 75.4955 74.4676 75.3328 74.45L73.5133 74.2351L73.3511 74.2171L73.1611 76.2008C73.1441 76.3144 73.1353 76.4284 73.1349 76.5429C73.0888 76.9377 73.0593 77.3335 73.0299 77.7283L72.9406 78.95C72.7518 82.2676 72.7846 85.5946 73.0404 88.9071C73.0866 89.6687 73.1742 90.4583 73.239 91.1855C73.3047 91.9129 73.4094 92.7039 73.4839 93.4222L73.7169 94.8819C73.0486 94.8452 72.4937 94.7708 71.9297 94.704L71.9659 94.6707ZM119.549 96.3151C112.906 89.3059 104.965 83.7314 96.192 79.9191C96.0667 78.3591 96.0339 76.8488 96.0541 75.306C96.0612 74.5124 96.0683 73.7189 96.0934 72.9087L96.1107 72.4064C96.1837 70.8493 96.2985 69.3025 96.4823 67.7601C98.136 52.8442 104.676 38.9468 115.032 28.346C123.562 38.6267 128.621 51.464 129.455 64.9401C123.964 74.547 120.572 85.2635 119.513 96.3484L119.549 96.3151ZM97.2653 48.2965C94.9077 54.1537 93.3318 60.3109 92.5804 66.6016C92.434 66.9377 92.2792 67.2643 92.1075 67.5901C85.8595 61.1696 78.4015 56.1247 70.1893 52.7642C70.0812 51.0064 70.0642 49.2442 70.1381 47.4852L70.1549 46.6655C70.7998 33.1436 76.2783 20.3403 85.5423 10.7039C94.1088 21.1793 98.3076 34.6979 97.2291 48.3299L97.2653 48.2965ZM66.1082 48.1194C66.0884 48.489 66.0868 48.8591 66.0934 49.2216C66.1006 49.5836 66.0979 49.6359 66.0868 49.8471C66.0758 50.0583 66.0932 50.5449 66.1184 50.8903C66.1055 50.9955 66.1055 51.1023 66.1186 51.208C61.6757 49.7287 57.0906 48.7402 52.4427 48.2596L50.4419 48.0614L50.2572 50.1246C49.7832 55.1841 49.8664 60.2814 50.5042 65.3219L50.2822 65.292C49.6338 65.2034 48.9933 65.1239 48.3435 65.0528C47.437 64.9677 46.5569 64.8755 45.6462 64.8603C45.3666 64.8392 45.0922 64.8241 44.8236 64.8155C37.7924 55.0209 34.3366 43.0025 35.0596 30.8593C46.9326 32.5685 57.8333 38.5369 65.8285 47.7071L66.1082 48.1194ZM46.7842 100.724C51.9271 99.199 57.2452 98.3787 62.5974 98.2849C63.0201 98.2638 63.4673 98.2536 63.8969 98.2595L64.8678 98.269C65.7006 98.288 66.5418 98.3166 67.3639 98.3618C68.6408 98.4405 69.8982 98.5535 71.1542 98.7022C71.9648 98.8087 72.7508 98.9044 73.5679 99.0557L74.4194 99.2079C76.3609 108.429 80.0264 117.175 85.213 124.963C75.991 125.305 66.9235 127.489 58.5156 131.392C45.5012 129.226 33.5168 122.798 24.3516 113.07C30.8939 107.421 38.5125 103.236 46.7207 100.783L46.7842 100.724ZM62.9919 133.896C64.5552 133.259 66.1334 132.675 67.7413 132.163C74.1046 130.114 80.7303 129.05 87.3997 129.009C87.9591 128.996 88.5259 129.009 89.057 129.039C89.9672 129.053 90.8617 129.049 91.8197 129.137L92.1881 129.166L92.5385 129.195L93.3009 129.245L94.0452 129.312C94.8929 129.386 95.7052 129.457 96.5657 129.601C97.7529 129.746 98.9375 129.943 100.104 130.157L101.465 130.426C101.925 130.516 102.375 130.62 102.815 130.739C103.722 130.941 104.621 131.167 105.514 131.416C106.361 131.639 107.199 131.888 108.019 132.154L109.489 132.641C109.929 132.788 110.367 132.953 110.797 133.109C111.228 133.265 111.666 133.431 112.087 133.595C112.885 133.897 113.676 134.223 114.46 134.572C116.225 135.339 117.952 136.175 119.657 137.098C120.393 137.492 121.111 137.902 121.82 138.32C122.012 138.428 122.195 138.544 122.378 138.66C122.561 138.776 122.969 139.019 123.26 139.202C125.526 140.615 127.703 142.17 129.782 143.857C130.123 144.414 130.422 144.942 130.779 145.518C130.949 145.712 131.048 145.956 131.183 146.166C131.524 146.723 131.85 147.226 132.233 147.794C132.616 148.362 133.103 149.069 133.551 149.711C133.999 150.353 134.392 150.895 134.834 151.475L134.923 151.577L133.409 152.756C120.251 162.988 103.889 167.901 87.4326 166.562C70.9763 165.224 55.5724 157.726 44.1479 145.495C48.7287 141.512 53.8019 138.169 59.2356 135.552C60.4417 135.009 61.726 134.444 62.9289 133.955L62.9919 133.896Z" stroke="#F0E6CB" stroke-opacity="0.1" stroke-width="5.72667"/>
</svg>
