<svg width="17" height="16" viewBox="0 0 17 16" fill="none" xmlns="http://www.w3.org/2000/svg">
<path d="M17 0V2.61355C16.1812 2.78353 15.4918 3.18725 14.9316 3.8247C14.4144 4.46215 14.0266 5.26959 13.7681 6.24701C13.5526 7.18194 13.4449 8.22311 13.4449 9.37052H16.4183V16H10.0836V10.0717C10.0836 7.60691 10.4284 5.69456 11.1179 4.33466C11.8504 2.93227 12.7554 1.91235 13.8327 1.2749C14.91 0.594955 15.9658 0.169987 17 0ZM6.98099 0V2.61355C6.16223 2.78353 5.47275 3.18725 4.91255 3.8247C4.39544 4.46215 4.0076 5.26959 3.74905 6.24701C3.53359 7.18194 3.42586 8.22311 3.42586 9.37052H6.3346V16H0V10.0717C0 7.60691 0.366286 5.69456 1.09886 4.33466C1.83143 2.93227 2.73638 1.91235 3.81369 1.2749C4.891 0.594955 5.94677 0.169987 6.98099 0Z" fill="#F0AD12"/>
</svg>
